<svg width="24" height="24" viewBox="0 0 24 24" fill="none" xmlns="http://www.w3.org/2000/svg">
<path d="M14.4563 3.60469C14.4753 3.53327 14.5082 3.46629 14.5532 3.4076C14.5981 3.34891 14.6542 3.29965 14.7182 3.26265C14.7822 3.22564 14.8529 3.20162 14.9261 3.19194C14.9994 3.18226 15.0739 3.18713 15.1453 3.20626C16.5039 3.56065 17.7435 4.27084 18.7363 5.26368C19.7292 6.25651 20.4394 7.49608 20.7938 8.85469C20.8129 8.9261 20.8178 9.00058 20.8081 9.07387C20.7984 9.14716 20.7744 9.21782 20.7374 9.28181C20.7004 9.34581 20.6511 9.40188 20.5924 9.44683C20.5337 9.49178 20.4668 9.52471 20.3953 9.54376C20.3479 9.55638 20.2991 9.56268 20.25 9.56251C20.1261 9.56258 20.0056 9.52173 19.9073 9.44629C19.8089 9.37085 19.7383 9.26505 19.7063 9.14532C19.402 7.97831 18.792 6.91354 17.9393 6.06075C17.0865 5.20797 16.0217 4.59801 14.8547 4.29376C14.7833 4.27471 14.7163 4.24178 14.6576 4.19683C14.5989 4.15188 14.5497 4.09581 14.5126 4.03181C14.4756 3.96782 14.4516 3.89716 14.4419 3.82387C14.4323 3.75058 14.4371 3.6761 14.4563 3.60469ZM14.1047 7.29376C15.4688 7.65751 16.3425 8.53126 16.7063 9.89532C16.7383 10.015 16.8089 10.1208 16.9073 10.1963C17.0056 10.2717 17.1261 10.3126 17.25 10.3125C17.2991 10.3127 17.3479 10.3064 17.3953 10.2938C17.4668 10.2747 17.5337 10.2418 17.5924 10.1968C17.6511 10.1519 17.7004 10.0958 17.7374 10.0318C17.7744 9.96782 17.7984 9.89716 17.8081 9.82387C17.8178 9.75058 17.8129 9.6761 17.7938 9.60469C17.325 7.85063 16.1494 6.67501 14.3953 6.20626C14.3239 6.18717 14.2494 6.18234 14.1762 6.19204C14.1029 6.20173 14.0323 6.22577 13.9683 6.26277C13.839 6.33749 13.7448 6.46048 13.7063 6.60469C13.6677 6.74891 13.688 6.90252 13.7628 7.03174C13.8375 7.16097 13.9605 7.25522 14.1047 7.29376ZM21.5522 16.3875C21.3916 17.613 20.7902 18.7381 19.8604 19.5525C18.9306 20.3669 17.736 20.8148 16.5 20.8125C9.15938 20.8125 3.18751 14.8406 3.18751 7.50001C3.18514 6.26442 3.63265 5.07023 4.44645 4.14049C5.26025 3.21076 6.38468 2.60907 7.6097 2.44782C7.89169 2.41355 8.1772 2.4717 8.42333 2.61353C8.66947 2.75536 8.86294 2.97322 8.9747 3.23438L10.9528 7.65001C11.0402 7.84991 11.0763 8.06843 11.058 8.2858C11.0396 8.50318 10.9674 8.71256 10.8478 8.89501C10.8358 8.91358 10.8226 8.93142 10.8084 8.94844L8.83313 11.2978C8.82114 11.3222 8.8149 11.349 8.8149 11.3761C8.8149 11.4032 8.82114 11.43 8.83313 11.4544C9.55126 12.9244 11.0925 14.4544 12.5831 15.1716C12.608 15.1829 12.6352 15.1883 12.6625 15.1873C12.6899 15.1864 12.7166 15.179 12.7406 15.1659L15.0553 13.1972C15.0718 13.1828 15.0894 13.1697 15.1078 13.1578C15.2895 13.0367 15.4984 12.9628 15.7158 12.9429C15.9332 12.9229 16.1522 12.9575 16.3528 13.0434L20.7816 15.0281C21.0393 15.1423 21.2533 15.3365 21.3921 15.5818C21.5309 15.8271 21.587 16.1106 21.5522 16.3903V16.3875ZM20.4375 16.2488C20.4407 16.2096 20.4314 16.1704 20.411 16.1367C20.3907 16.1031 20.3603 16.0767 20.3241 16.0613L15.8944 14.0766C15.8702 14.0672 15.8442 14.0632 15.8184 14.0649C15.7925 14.0665 15.7672 14.0737 15.7444 14.0859L13.4306 16.0547C13.4138 16.0688 13.3959 16.0819 13.3781 16.0941C13.1894 16.2199 12.9713 16.2947 12.745 16.3111C12.5188 16.3276 12.2921 16.2851 12.0872 16.1878C10.3659 15.3563 8.65032 13.6566 7.81876 11.9513C7.72095 11.7475 7.67742 11.522 7.69236 11.2965C7.70731 11.071 7.78023 10.8531 7.90407 10.6641C7.91614 10.6453 7.92962 10.6274 7.94438 10.6106L9.91876 8.26126C9.93004 8.2367 9.93588 8.21 9.93588 8.18298C9.93588 8.15595 9.93004 8.12925 9.91876 8.10469L7.94438 3.68532C7.93135 3.64985 7.90791 3.61915 7.87713 3.59723C7.84635 3.57532 7.80966 3.56321 7.77188 3.56251H7.75032C6.79683 3.68934 5.9221 4.15889 5.28947 4.88347C4.65685 5.60805 4.30958 6.53812 4.31251 7.50001C4.31251 14.22 9.78001 19.6875 16.5 19.6875C17.462 19.6904 18.3922 19.343 19.1168 18.7102C19.8414 18.0774 20.3109 17.2024 20.4375 16.2488Z" fill="white"/>
</svg>
