<svg width="19" height="19" viewBox="0 0 19 19" fill="none" xmlns="http://www.w3.org/2000/svg">
<path d="M11.2688 1.16646C11.2878 1.09503 11.3207 1.02806 11.3657 0.969366C11.4106 0.910675 11.4667 0.861419 11.5307 0.824415C11.5947 0.78741 11.6654 0.763383 11.7386 0.753708C11.8119 0.744032 11.8864 0.748897 11.9578 0.768025C13.3164 1.12242 14.556 1.83261 15.5488 2.82544C16.5417 3.81828 17.2519 5.05785 17.6063 6.41646C17.6254 6.48787 17.6303 6.56235 17.6206 6.63563C17.6109 6.70892 17.5869 6.77959 17.5499 6.84358C17.5129 6.90758 17.4636 6.96365 17.4049 7.0086C17.3462 7.05354 17.2793 7.08648 17.2078 7.10553C17.1604 7.11815 17.1116 7.12445 17.0625 7.12427C16.9386 7.12435 16.8181 7.08349 16.7198 7.00805C16.6214 6.93261 16.5508 6.82681 16.5188 6.70709C16.2145 5.54008 15.6045 4.47531 14.7518 3.62252C13.899 2.76974 12.8342 2.15978 11.6672 1.85552C11.5958 1.83648 11.5288 1.80354 11.4701 1.7586C11.4114 1.71365 11.3622 1.65758 11.3251 1.59358C11.2881 1.52959 11.2641 1.45892 11.2544 1.38563C11.2448 1.31235 11.2496 1.23787 11.2688 1.16646ZM10.9172 4.85553C12.2813 5.21928 13.155 6.09302 13.5188 7.45709C13.5508 7.57681 13.6214 7.68261 13.7198 7.75805C13.8181 7.83349 13.9386 7.87435 14.0625 7.87427C14.1116 7.87445 14.1604 7.86815 14.2078 7.85553C14.2793 7.83648 14.3462 7.80354 14.4049 7.7586C14.4636 7.71365 14.5129 7.65758 14.5499 7.59358C14.5869 7.52959 14.6109 7.45892 14.6206 7.38563C14.6303 7.31235 14.6254 7.23787 14.6063 7.16646C14.1375 5.4124 12.9619 4.23677 11.2078 3.76802C11.1364 3.74894 11.0619 3.74411 10.9887 3.75381C10.9154 3.7635 10.8448 3.78754 10.7808 3.82453C10.6515 3.89926 10.5573 4.02225 10.5188 4.16646C10.4802 4.31067 10.5005 4.46429 10.5753 4.59351C10.65 4.72274 10.773 4.81699 10.9172 4.85553ZM18.3647 13.9493C18.2041 15.1748 17.6027 16.2999 16.6729 17.1143C15.7431 17.9286 14.5485 18.3766 13.3125 18.3743C5.97188 18.3743 9.34893e-06 12.4024 9.34893e-06 5.06177C-0.00235855 3.82619 0.445153 2.632 1.25895 1.70226C2.07275 0.772526 3.19718 0.170838 4.4222 0.0095873C4.70419 -0.0246825 4.9897 0.0334643 5.23583 0.175295C5.48197 0.317126 5.67544 0.534984 5.7872 0.79615L7.76532 5.21177C7.85266 5.41168 7.8888 5.63019 7.87047 5.84757C7.85214 6.06495 7.77991 6.27433 7.66032 6.45677C7.64826 6.47535 7.63511 6.49319 7.62095 6.51021L5.64563 8.85959C5.63364 8.88394 5.6274 8.91072 5.6274 8.93787C5.6274 8.96501 5.63364 8.9918 5.64563 9.01615C6.36376 10.4861 7.90501 12.0161 9.39563 12.7333C9.42052 12.7447 9.44771 12.7501 9.47505 12.7491C9.50238 12.7481 9.52912 12.7408 9.55313 12.7277L11.8678 10.759C11.8843 10.7446 11.9019 10.7314 11.9203 10.7196C12.102 10.5985 12.3109 10.5246 12.5283 10.5046C12.7457 10.4847 12.9647 10.5192 13.1653 10.6052L17.5941 12.5899C17.8518 12.7041 18.0658 12.8982 18.2046 13.1436C18.3434 13.3889 18.3995 13.6724 18.3647 13.9521V13.9493ZM17.25 13.8105C17.2532 13.7713 17.2439 13.7321 17.2235 13.6985C17.2032 13.6648 17.1728 13.6384 17.1366 13.623L12.7069 11.6383C12.6827 11.629 12.6567 11.625 12.6309 11.6266C12.605 11.6282 12.5797 11.6354 12.5569 11.6477L10.2431 13.6165C10.2263 13.6305 10.2084 13.6436 10.1906 13.6558C10.0019 13.7817 9.78377 13.8565 9.55753 13.8729C9.33128 13.8893 9.10463 13.8469 8.8997 13.7496C7.17845 12.918 5.46282 11.2183 4.63126 9.51303C4.53345 9.30928 4.48992 9.08373 4.50486 8.85823C4.51981 8.63272 4.59273 8.41489 4.71657 8.22584C4.72864 8.20703 4.74212 8.18917 4.75688 8.1724L6.73126 5.82302C6.74254 5.79847 6.74838 5.77177 6.74838 5.74474C6.74838 5.71772 6.74254 5.69102 6.73126 5.66646L4.75688 1.24709C4.74385 1.21162 4.72041 1.18091 4.68963 1.159C4.65885 1.13708 4.62216 1.12498 4.58438 1.12427H4.56282C3.60933 1.25111 2.7346 1.72066 2.10197 2.44524C1.46935 3.16982 1.12208 4.09989 1.12501 5.06177C1.12501 11.7818 6.59251 17.2493 13.3125 17.2493C14.2745 17.2522 15.2047 16.9048 15.9293 16.272C16.6539 15.6391 17.1234 14.7642 17.25 13.8105Z" fill="black"/>
</svg>
