<svg width="48" height="48" viewBox="0 0 48 48" fill="none" xmlns="http://www.w3.org/2000/svg">
<path d="M23.9008 43.4988C23.6396 43.4752 23.3949 43.3608 23.2092 43.1756L16.5764 36.5541C16.3651 36.3437 16.2462 36.0579 16.2456 35.7597C16.2451 35.4614 16.3631 35.1752 16.5735 34.964C16.784 34.7527 17.0698 34.6338 17.368 34.6332C17.6663 34.6327 17.9525 34.7506 18.1637 34.9611L22.8747 39.6665V19.5073C22.485 19.3005 22.1586 18.9922 21.93 18.6149C21.7015 18.2376 21.5793 17.8055 21.5765 17.3644C21.5765 16.0435 22.6706 14.9493 23.9915 14.9493C24.6322 14.9523 25.2459 15.2073 25.7 15.6593C26.154 16.1112 26.4119 16.7237 26.4179 17.3644C26.4146 17.8039 26.2928 18.2345 26.0653 18.6106C25.8379 18.9868 25.5131 19.2946 25.1253 19.5016V39.6551L29.8307 34.9611C29.9345 34.8552 30.0583 34.7709 30.195 34.713C30.3316 34.6552 30.4783 34.6251 30.6267 34.6243C30.775 34.6236 30.9221 34.6523 31.0593 34.7087C31.1965 34.7651 31.3212 34.8482 31.4261 34.9531C31.531 35.058 31.614 35.1827 31.6705 35.3199C31.7269 35.4571 31.7556 35.6041 31.7548 35.7525C31.7541 35.9008 31.7239 36.0476 31.6661 36.1842C31.6083 36.3208 31.524 36.4446 31.418 36.5485L24.7852 43.1756C24.67 43.2903 24.5312 43.3786 24.3785 43.4344C24.2258 43.4902 24.0628 43.5121 23.9008 43.4988ZM19.4279 30.1594C16.5113 29.0878 14.0646 27.0243 12.5163 24.3303C10.968 21.6363 10.4167 18.4835 10.9591 15.4239C11.5014 12.3644 13.1027 9.59309 15.4827 7.59539C17.8627 5.59769 20.8695 4.50089 23.9768 4.49704C27.084 4.4932 30.0936 5.58255 32.4785 7.57436C34.8634 9.56616 36.4716 12.3335 37.0215 15.3917C37.5714 18.4499 37.0279 21.604 35.4863 24.3019C33.9447 26.9997 31.5031 29.0693 28.5891 30.1481C28.3102 30.2507 28.002 30.2385 27.732 30.1141C27.4621 29.9898 27.2525 29.7635 27.1492 29.4848C27.0466 29.2059 27.0588 28.8977 27.1832 28.6277C27.3075 28.3578 27.5338 28.1482 27.8125 28.0449C30.2391 27.1568 32.2749 25.4414 33.5615 23.2005C34.8482 20.9596 35.3034 18.3367 34.847 15.7932C34.3906 13.2498 33.0518 10.9488 31.0663 9.29507C29.0807 7.64132 26.5755 6.74078 23.9915 6.75186C21.4091 6.74908 18.9082 7.65605 16.928 9.31356C14.9477 10.9711 13.6145 13.2732 13.1626 15.8157C12.7106 18.3583 13.1688 20.9788 14.4565 23.2172C15.7443 25.4556 17.7794 27.1689 20.2046 28.0562C20.4819 28.1596 20.7072 28.3683 20.8314 28.6369C20.9556 28.9055 20.9687 29.2123 20.8679 29.4905C20.8235 29.6333 20.7497 29.7652 20.6512 29.8778C20.5527 29.9904 20.4318 30.0811 20.2962 30.1441C20.1605 30.2071 20.0132 30.241 19.8637 30.2437C19.7141 30.2463 19.5657 30.2176 19.4279 30.1594Z" fill="#3368C6"/>
</svg>
