<svg width="48" height="48" viewBox="0 0 48 48" fill="none" xmlns="http://www.w3.org/2000/svg">
<path fill-rule="evenodd" clip-rule="evenodd" d="M20 4.00012H28C30.2092 4.00012 32 5.79098 32 8.00012V16.0001C32 20.4184 28.4183 24.0001 24.0001 24.0001C19.5818 24.0001 16 20.4184 16 16.0001V8.00012C16 5.79098 17.7909 4.00012 20 4.00012Z" stroke="white" stroke-linecap="round" stroke-linejoin="round"/>
<path d="M28.2021 22.8101L29.6881 28.7541" stroke="white" stroke-linecap="round" stroke-linejoin="round"/>
<path d="M19.8024 22.8101L18.3164 28.7541" stroke="white" stroke-linecap="round" stroke-linejoin="round"/>
<path d="M16 28.3132V36" stroke="white" stroke-linecap="round" stroke-linejoin="round"/>
<path d="M16 42C17.6569 42 19 40.6569 19 39C19 37.3431 17.6569 36 16 36C14.3431 36 13 37.3431 13 39C13 40.6569 14.3431 42 16 42Z" stroke="white" stroke-linecap="round" stroke-linejoin="round"/>
<path d="M32 28.3132V36" stroke="white" stroke-linecap="round" stroke-linejoin="round"/>
<path d="M28.5551 42C28.1967 41.394 28.0052 40.704 28 40C28 37.7909 29.7909 36 32 36C34.2092 36 36.0001 37.7909 36.0001 40C35.9949 40.704 35.8034 41.394 35.445 42" stroke="white" stroke-linecap="round" stroke-linejoin="round"/>
<path d="M32 12.0002H16" stroke="white" stroke-linecap="round" stroke-linejoin="round"/>
<path d="M6 37.9998V35.2315C6 32.3712 8.01895 29.9086 10.8237 29.3478L16.516 28.2099C16.9863 28.1158 17.4747 28.2122 17.874 28.4779C21.5833 30.9519 26.4167 30.9519 30.126 28.4779C30.5253 28.2122 31.0137 28.1158 31.484 28.2099L37.1763 29.3478C39.981 29.9086 42 32.3712 42 35.2315V37.9998" stroke="white" stroke-linecap="round" stroke-linejoin="round"/>
</svg>
