<svg width="40" height="40" viewBox="0 0 40 40" fill="none" xmlns="http://www.w3.org/2000/svg">
<path d="M30.1998 22.8481C30.5438 23.6385 30.7422 24.6049 30.787 25.7233C31.9422 25.9873 32.8062 27.0225 32.8062 28.2561C32.8062 29.6897 31.6398 30.8561 30.2062 30.8561C28.7726 30.8561 27.6062 29.6897 27.6062 28.2561C27.6062 27.0353 28.4526 26.0129 29.5886 25.7329C29.5374 24.6225 29.2718 22.9329 28.1854 22.0977C27.6302 21.9553 27.0606 21.8513 26.475 21.7969C26.4318 23.7425 19.9998 28.5457 19.9998 28.5457C19.9998 28.5457 13.5646 23.7441 13.5214 21.7985C12.8718 21.8577 12.2398 21.9761 11.6286 22.1473C10.835 22.7745 10.4254 23.9457 10.4046 25.6465C10.6366 25.7793 10.8254 25.9889 10.9406 26.2417C11.795 26.6465 12.5502 27.4945 13.1278 28.7025C13.2254 28.9057 13.2382 29.1361 13.1662 29.3457C13.5134 30.2369 13.7118 31.2113 13.7118 32.0305C13.7118 33.1761 13.7118 34.2609 12.4606 34.5393C12.3262 34.6513 12.1566 34.7137 11.9774 34.7137H11.1422C10.7246 34.7137 10.3838 34.3713 10.3838 33.9553V33.9249C10.3998 33.5217 10.7374 33.1953 11.1422 33.1953H11.9774C12.0638 33.1953 12.147 33.2097 12.2286 33.2369C12.2782 33.2241 12.2942 33.2113 12.2942 33.2113C12.3886 33.0465 12.3886 32.3601 12.3886 32.0305C12.3886 31.3665 12.2222 30.5633 11.9294 29.8177C11.779 29.7313 11.6558 29.6017 11.5806 29.4433C11.075 28.3841 10.3854 27.6993 9.82696 27.6993C9.25416 27.6993 8.53096 28.4401 8.02696 29.5393C7.94536 29.7201 7.79976 29.8657 7.62216 29.9537C7.35976 30.6673 7.21416 31.4017 7.21416 32.0305C7.21416 32.3073 7.21416 33.0417 7.31976 33.2145C7.31976 33.2145 7.34536 33.2289 7.41096 33.2449C7.49736 33.2113 7.59016 33.1953 7.68296 33.1953H8.51976C8.91016 33.1953 9.23656 33.4913 9.27496 33.8769L9.27976 33.9233C9.27976 34.3729 8.93896 34.7137 8.51976 34.7137H7.68296C7.51656 34.7137 7.35656 34.6593 7.22536 34.5585C6.74696 34.4673 6.40936 34.2577 6.19656 33.9137C5.93896 33.4993 5.89096 32.9537 5.89096 32.0305C5.89096 31.2193 6.07816 30.2865 6.41896 29.3953C6.36776 29.2033 6.38536 29.0049 6.46856 28.8241C6.82216 28.0513 7.27336 27.3873 7.76936 26.9073C8.04296 26.6433 8.33736 26.4321 8.64616 26.2769C8.75976 26.0081 8.96136 25.7873 9.20456 25.6465C9.21736 24.5809 9.38216 23.6609 9.68456 22.9025C6.21416 24.6625 3.83496 28.2641 3.83496 32.4225C3.83496 37.7377 7.71816 37.9969 12.8014 37.9969C13.355 37.9969 13.923 37.9937 14.5038 37.9937H25.491C26.0702 37.9937 26.6382 37.9969 27.1934 37.9969C32.2766 37.9969 36.1614 37.7377 36.1614 32.4225C36.1598 28.2193 33.731 24.5873 30.1998 22.8481Z" fill="white"/>
<path d="M20.0034 23.1951C24.917 23.1951 28.8994 15.8063 28.8994 10.8943C28.8994 5.98069 24.917 1.99829 20.0034 1.99829C15.0898 1.99829 11.1074 5.98069 11.1074 10.8943C11.1074 15.8063 15.0898 23.1951 20.0034 23.1951Z" fill="white"/>
<path d="M30.2029 29.4576C30.8653 29.4576 31.4029 28.92 31.4029 28.2576C31.4029 27.5952 30.8653 27.0576 30.2029 27.0576C29.5405 27.0576 29.0029 27.5952 29.0029 28.2576C29.0029 28.92 29.5405 29.4576 30.2029 29.4576Z" fill="white"/>
</svg>
