<svg width="40" height="40" viewBox="0 0 40 40" fill="none" xmlns="http://www.w3.org/2000/svg">
<path d="M34.6626 16.6689H22.445C20.429 16.6689 18.7794 18.2929 18.7794 20.2801V21.4833H13.0738L7.53783 17.3905C6.41463 16.5601 4.94903 16.4401 3.70263 17.0545C2.45623 17.6673 1.67383 18.9073 1.67383 20.2801V21.4833C1.67383 21.8689 1.86903 22.2417 2.18743 22.4577L9.81143 27.8257L7.70903 31.1841C6.03543 31.5217 4.76503 32.9777 4.76503 34.7233C4.76503 36.7089 6.41463 38.3345 8.43063 38.3345C10.4466 38.3345 12.0962 36.7089 12.0962 34.7233C12.0962 34.3025 12.0098 33.8929 11.8754 33.5201H31.229C31.0946 33.8929 31.0098 34.3025 31.0098 34.7233C31.0098 36.7089 32.6594 38.3345 34.6754 38.3345C36.6914 38.3345 38.341 36.7089 38.341 34.7233C38.341 33.1585 37.3138 31.8337 35.8962 31.3297V28.7057H37.1186C37.7906 28.7057 38.341 28.1633 38.341 27.5009V20.2801C38.341 18.2929 36.6914 16.6689 34.6754 16.6689H34.6626ZM21.2226 20.2801C21.2226 19.6177 21.773 19.0769 22.445 19.0769H34.6626C35.3346 19.0769 35.885 19.6177 35.885 20.2801V21.4833H21.2226V20.2801ZM33.4402 31.1121H10.6178L12.1202 28.7057H33.429V31.1121H33.4402Z" fill="white"/>
<path d="M14.1746 18.3344C18.3042 18.3344 21.6738 14.5904 21.6738 10C21.6738 5.41124 18.3042 1.66724 14.1746 1.66724C10.0434 1.66724 6.67383 5.41124 6.67383 10C6.67383 14.5904 10.0434 18.3344 14.1746 18.3344ZM11.0818 8.71844H13.0194V6.56484C13.0194 5.85924 13.5394 5.28324 14.173 5.28324C14.8082 5.28324 15.3282 5.85924 15.3282 6.56484V8.71844H17.2658C17.901 8.71844 18.4194 9.29604 18.4194 10C18.4194 10.7056 17.901 11.2832 17.2658 11.2832H15.3282V13.4368C15.3282 14.1408 14.8082 14.7184 14.173 14.7184C13.5394 14.7184 13.0194 14.1408 13.0194 13.4368V11.2832H11.0818C10.4466 11.2832 9.92823 10.7056 9.92823 10C9.92823 9.29604 10.4466 8.71844 11.0818 8.71844Z" fill="white"/>
</svg>
