<svg width="40" height="40" viewBox="0 0 40 40" fill="none" xmlns="http://www.w3.org/2000/svg">
<path d="M22.0739 3.33914C21.5363 3.28154 21.0499 3.65274 20.9843 4.18554C20.9171 4.72154 21.2963 5.20954 21.8323 5.27674C23.1571 5.44154 24.4531 5.91034 25.6819 6.42874C26.1843 6.63834 26.7523 6.40314 26.9619 5.90874C27.1699 5.41114 26.9379 4.83834 26.4403 4.62874C25.0451 4.04154 23.5763 3.52474 22.0739 3.33914Z" fill="white"/>
<path d="M33.0437 11.2706C33.4741 10.9458 33.5589 10.3314 33.2325 9.90263C32.3173 8.69783 31.2421 7.62423 30.0389 6.70903C29.6085 6.38423 28.9973 6.46583 28.6693 6.89623C28.3429 7.32663 28.4277 7.93943 28.8581 8.26583C29.9205 9.07223 30.8693 10.0194 31.6757 11.0834C32.0021 11.5138 32.6149 11.5954 33.0437 11.2706Z" fill="white"/>
<path d="M34.0276 12.9733C33.5316 13.1829 33.298 13.7557 33.5076 14.2533C34.026 15.4821 34.5588 16.8421 34.7236 18.1685C34.7876 18.6869 35.2564 19.0805 35.8132 19.0165C36.3492 18.9493 36.7284 18.4629 36.6612 17.9269C36.474 16.4245 35.8948 14.8901 35.3076 13.4949C35.098 12.9973 34.5252 12.7669 34.0276 12.9733Z" fill="white"/>
<path d="M13.5588 4.62874C13.0628 4.83834 12.8292 5.41114 13.0388 5.90874C13.2468 6.40314 13.818 6.63834 14.3188 6.42874C15.5476 5.91034 16.842 5.44154 18.1684 5.27674C18.7028 5.20954 19.0836 4.72154 19.0164 4.18554C18.9492 3.65274 18.4596 3.28154 17.9268 3.33914C16.4244 3.52474 14.954 4.04154 13.5588 4.62874Z" fill="white"/>
<path d="M20.0002 36.6656C28.357 36.6656 35.6258 30.3552 36.6594 22.0736C36.725 21.5392 36.3458 21.0512 35.8114 20.984C35.2738 20.9232 34.7874 21.296 34.7202 21.832C33.8098 29.1392 27.3746 34.7136 20.0002 34.7136C11.9218 34.7136 5.28661 28.0768 5.28661 20C5.28661 16.44 6.69941 12.9744 8.99701 10.328V10.6528C8.99701 11.192 9.43381 11.6288 9.97301 11.6288C10.5138 11.6288 10.9506 11.192 10.9506 10.6528V7.88957C10.9506 7.35037 10.5138 6.91357 9.97301 6.91357H7.21141C6.67061 6.91357 6.23381 7.35037 6.23381 7.88957C6.23381 8.43037 6.67061 8.86557 7.21141 8.86557H7.68181C4.97621 11.8912 3.33301 15.8816 3.33301 20C3.33301 29.1536 10.845 36.6656 20.0002 36.6656Z" fill="white"/>
<path d="M8.21582 20.0001C8.21582 26.4625 13.5374 31.7841 19.9998 31.7841C26.4622 31.7841 31.7838 26.4625 31.7838 20.0001C31.7838 13.5377 26.4622 8.21606 19.9998 8.21606C13.5374 8.21606 8.21582 13.5377 8.21582 20.0001ZM20.9758 16.0945C20.9758 15.5537 21.4126 15.1169 21.9534 15.1169C22.4926 15.1169 22.9294 15.5537 22.9294 16.0945V19.0241H24.883V16.0945C24.883 15.5537 25.3198 15.1169 25.859 15.1169C26.3982 15.1169 26.835 15.5537 26.835 16.0945V23.9057C26.835 24.4465 26.3982 24.8833 25.859 24.8833C25.3198 24.8833 24.883 24.4465 24.883 23.9057V20.9761H21.9534C21.4126 20.9761 20.9758 20.5393 20.9758 20.0001V16.0945ZM16.0942 17.0705C15.555 17.0705 15.1166 17.5089 15.1166 18.0465C15.1166 18.5873 14.6798 19.0241 14.1406 19.0241C13.5998 19.0241 13.163 18.5873 13.163 18.0465C13.163 16.4321 14.4782 15.1169 16.0942 15.1169C17.7086 15.1169 19.0238 16.4321 19.0238 18.0465C19.0238 20.0001 17.723 20.9745 16.6782 21.7569C16.1006 22.1921 15.6878 22.5393 15.427 22.9297H18.0462C18.587 22.9297 19.0238 23.3665 19.0238 23.9057C19.0238 24.4465 18.587 24.8833 18.0462 24.8833H14.1406C13.5998 24.8833 13.163 24.4465 13.163 23.9057C13.163 21.9537 14.4638 20.9777 15.5086 20.1953C16.5054 19.4465 17.0702 18.9777 17.0702 18.0465C17.0702 17.5073 16.6318 17.0705 16.0942 17.0705Z" fill="white"/>
</svg>
