<svg width="47" height="41" viewBox="0 0 47 41" fill="none" xmlns="http://www.w3.org/2000/svg">
<path d="M16.7036 12.8866C19.5096 9.29109 23.8838 6.97913 28.798 6.97913C30.9204 6.97913 32.9422 7.41038 34.7803 8.19M24.547 31.3894C21.1376 29.79 18.7766 26.3265 18.7766 22.3116C18.7766 16.7768 23.2634 12.2902 28.798 12.2902C29.2999 12.2902 29.7932 12.3271 30.2753 12.3983M17.8078 11.3391L16.068 9.59925M14.8122 10.5532L17.022 8.34347M27.1547 4.17122V6.89362M30.2752 6.87694V4.17122M15.9172 15.7749H0.703125M13.8627 20.7843H5.02884M26.4304 37.4623C20.2345 36.5019 15.2648 31.8319 13.8627 25.7936H8.61713M25.1503 0.703125H32.2796V3.94069H25.1503V0.703125Z" stroke="white" stroke-width="1.40625" stroke-miterlimit="10" stroke-linecap="round" stroke-linejoin="round"/>
<path d="M40.4501 7.19727L26.0874 25.8214H33.9116L30.6014 39.8634L45.347 20.7055H37.2219L40.4501 7.19727Z" stroke="white" stroke-width="1.40625" stroke-miterlimit="10" stroke-linecap="round" stroke-linejoin="round"/>
</svg>
