<svg width="43" height="43" viewBox="0 0 43 43" fill="none" xmlns="http://www.w3.org/2000/svg">
<path fill-rule="evenodd" clip-rule="evenodd" d="M36.5686 6.233L35.8722 5.53662L38.2401 3.1682L38.937 3.86516L36.5686 6.233ZM36.7194 8.85217C36.9009 8.66968 36.9012 8.36987 36.7194 8.18814L33.9181 5.38677C33.7342 5.20408 33.4368 5.20293 33.2541 5.38677L24.3709 14.269C23.9296 14.7112 23.7228 15.2288 23.7381 15.8527L23.8001 18.3051L26.2525 18.3671C26.876 18.3835 27.395 18.1767 27.8363 17.7354L28.9135 16.6576L27.9087 15.6529C27.6596 15.4038 27.6596 14.9993 27.9087 14.7508C27.968 14.6914 28.0383 14.6443 28.1158 14.6122C28.1932 14.58 28.2762 14.5635 28.3601 14.5635C28.4439 14.5635 28.527 14.58 28.6044 14.6122C28.6819 14.6443 28.7522 14.6914 28.8114 14.7508L29.8157 15.7551L31.5827 13.9887L30.5779 12.9839C30.3288 12.7348 30.3288 12.3303 30.5779 12.0812C30.827 11.8321 31.2315 11.8332 31.4806 12.0812L32.4853 13.0871L34.2517 11.319L33.247 10.3147C33.1274 10.195 33.0602 10.0327 33.0602 9.86339C33.0602 9.69413 33.1274 9.53179 33.247 9.41205C33.3669 9.2926 33.5292 9.22553 33.6984 9.22553C33.8676 9.22553 34.0299 9.2926 34.1497 9.41205L35.1544 10.4174L36.7194 8.85217ZM35.3454 21.455H30.8033C30.7226 20.1043 30.3902 18.7807 29.8233 17.5522L33.1756 14.1999C34.4976 16.3982 35.24 18.8813 35.3454 21.455ZM20.6503 37.4254V32.884C26.1043 32.564 30.4845 28.1844 30.8033 22.7314H35.3448C35.0173 30.6866 28.6061 37.0978 20.6503 37.4254ZM4.68086 22.7314H9.22243C9.54125 28.1844 13.9209 32.564 19.3744 32.884V37.4254C11.4196 37.0978 5.00736 30.6866 4.68086 22.7314ZM19.3743 6.76149V11.303C13.9208 11.6218 9.54115 16.002 9.22234 21.455H4.68086C5.00736 13.5001 11.4196 7.08798 19.3743 6.76149ZM23.4686 13.3673C22.786 14.0494 22.4381 14.9203 22.4628 15.885L22.533 18.67L22.0249 19.1781C21.4342 18.7676 20.7319 18.5481 20.0126 18.5492C18.0586 18.5492 16.4688 20.139 16.4688 22.0932C16.4688 24.0478 18.0586 25.6376 20.0126 25.6376C22.8718 25.6376 24.5434 22.4143 22.9277 20.0803L23.4353 19.5727L26.2203 19.6434C27.1842 19.664 28.0534 19.3244 28.739 18.6371L28.8554 18.5201C29.2349 19.456 29.461 20.447 29.5249 21.4549H26.7937C26.6245 21.4549 26.4622 21.5222 26.3425 21.6418C26.2228 21.7615 26.1555 21.9238 26.1555 22.0931C26.1556 22.2623 26.2229 22.4245 26.3426 22.5442C26.4622 22.6638 26.6245 22.7311 26.7937 22.7313H29.5249C29.2093 27.4808 25.4005 31.2897 20.6505 31.6052V28.8741C20.6505 28.7904 20.6341 28.7074 20.6021 28.63C20.57 28.5527 20.5231 28.4823 20.4638 28.4231C20.4046 28.3639 20.3343 28.3169 20.2569 28.2849C20.1795 28.2529 20.0966 28.2364 20.0128 28.2365C19.8437 28.2364 19.6814 28.3036 19.5617 28.4232C19.442 28.5427 19.3747 28.7049 19.3746 28.8741V31.6052C14.6257 31.2897 10.8162 27.4808 10.5007 22.7313H13.2313C13.4005 22.7311 13.5628 22.6638 13.6824 22.5442C13.8021 22.4245 13.8694 22.2623 13.8695 22.0931C13.8695 21.9238 13.8022 21.7615 13.6825 21.6418C13.5628 21.5222 13.4005 21.4549 13.2313 21.4549H10.5007C10.8162 16.7054 14.6257 12.897 19.3746 12.5815V15.3121C19.3748 15.4813 19.4421 15.6434 19.5618 15.763C19.6814 15.8825 19.8437 15.9497 20.0128 15.9497C20.0966 15.9498 20.1795 15.9333 20.2569 15.9013C20.3342 15.8692 20.4046 15.8223 20.4638 15.763C20.523 15.7038 20.5699 15.6335 20.602 15.5561C20.634 15.4788 20.6505 15.3959 20.6505 15.3121V12.5804C21.6667 12.6469 22.6496 12.8707 23.5852 13.251L23.4686 13.3673ZM22.2811 22.0932C22.2815 21.7131 22.1858 21.3392 22.0029 21.0061L20.4642 22.5437C20.405 22.6032 20.3346 22.6504 20.2571 22.6826C20.1796 22.7148 20.0965 22.7314 20.0125 22.7314C19.451 22.7314 19.1579 22.0457 19.5614 21.6421L21.1001 20.1034C19.6108 19.2841 17.7444 20.3599 17.7444 22.0932C17.7444 23.3443 18.7619 24.3617 20.0124 24.3617C21.2637 24.3617 22.2811 23.3443 22.2811 22.0932ZM27.9059 8.9307L24.5535 12.282C23.3248 11.7153 22.001 11.3833 20.6503 11.303V6.76033C23.225 6.86622 25.707 7.60869 27.9059 8.9307ZM41.9184 5.04222L38.6912 1.81499L37.0642 0.187308C37.0049 0.127935 36.9346 0.0808281 36.8572 0.0486865C36.7797 0.0165448 36.6967 0 36.6128 0C36.529 0 36.4459 0.0165448 36.3685 0.0486865C36.291 0.0808281 36.2207 0.127935 36.1615 0.187308C36.0419 0.306956 35.9746 0.469221 35.9746 0.638413C35.9746 0.807605 36.0419 0.969869 36.1615 1.08952L37.3375 2.266L34.9696 4.63393L34.8204 4.48408C34.1393 3.80421 33.032 3.80421 32.3515 4.48408L28.8334 8.00277C26.3706 6.45803 23.5637 5.59374 20.6504 5.48286V2.71816C20.6504 2.63441 20.6339 2.55149 20.6019 2.47412C20.5699 2.39674 20.5229 2.32644 20.4637 2.26723C20.4045 2.20801 20.3342 2.16105 20.2568 2.12901C20.1794 2.09698 20.0965 2.0805 20.0127 2.08052C19.8436 2.08055 19.6814 2.14772 19.5617 2.26728C19.442 2.38683 19.3747 2.549 19.3745 2.71816V5.4844C10.7163 5.8131 3.73219 12.7955 3.40406 21.4549H0.637632C0.553859 21.4549 0.470914 21.4714 0.393533 21.5035C0.316151 21.5356 0.245848 21.5826 0.186639 21.6419C0.127429 21.7012 0.0804722 21.7715 0.0484487 21.8489C0.0164251 21.9263 -3.77642e-05 22.0093 6.50463e-08 22.0931C6.50463e-08 22.4448 0.285408 22.7313 0.637632 22.7313H3.40387C3.732 31.3901 10.7161 38.373 19.3743 38.7022V41.4674C19.3743 41.5512 19.3908 41.6342 19.4229 41.7116C19.455 41.789 19.502 41.8593 19.5613 41.9185C19.6205 41.9777 19.6909 42.0247 19.7683 42.0567C19.8458 42.0887 19.9288 42.1051 20.0125 42.105C20.0963 42.1052 20.1793 42.0887 20.2567 42.0567C20.3341 42.0247 20.4044 41.9778 20.4637 41.9185C20.5229 41.8593 20.5699 41.789 20.6019 41.7116C20.6339 41.6341 20.6503 41.5512 20.6502 41.4674V38.7022C29.3096 38.3729 36.293 31.3901 36.6211 22.7313H39.3875C39.5567 22.7311 39.7189 22.6638 39.8386 22.5442C39.9582 22.4245 40.0255 22.2623 40.0257 22.0931C40.0256 21.9238 39.9584 21.7615 39.8387 21.6418C39.719 21.5222 39.5567 21.4549 39.3875 21.4549H36.6223C36.5125 18.5415 35.6483 15.7346 34.1035 13.2729L37.6211 9.75486C38.3017 9.07413 38.3023 7.96667 37.6211 7.28545L37.4712 7.1356L39.8391 4.76776L41.0168 5.94481C41.1364 6.06426 41.2985 6.13135 41.4676 6.13135C41.6366 6.13135 41.7988 6.06426 41.9184 5.94481C42.0381 5.8251 42.1053 5.66277 42.1053 5.49352C42.1053 5.32426 42.0381 5.16193 41.9184 5.04222Z" fill="white"/>
</svg>
