<svg width="40" height="33" viewBox="0 0 40 33" fill="none" xmlns="http://www.w3.org/2000/svg">
<path d="M27.5787 23.22C27.2705 22.9181 26.7759 22.9231 26.4739 23.2313L26.4517 23.2539C26.1497 23.5621 26.1548 24.0567 26.463 24.3588C26.6089 24.5021 26.8053 24.5822 27.0097 24.582C27.1137 24.5821 27.2167 24.5614 27.3125 24.5211C27.4084 24.4809 27.4952 24.4218 27.5679 24.3475L27.5901 24.3249C27.892 24.0167 27.8869 23.522 27.5787 23.22ZM35.9829 15.0295H33.9068V12.9534C33.9068 12.5219 33.557 12.1721 33.1255 12.1721C32.694 12.1721 32.3443 12.5219 32.3443 12.9534V15.0295H30.2682C29.8367 15.0295 29.4869 15.3792 29.4869 15.8107C29.4869 16.2422 29.8367 16.592 30.2682 16.592H32.3443V18.6681C32.3443 19.0995 32.694 19.4493 33.1255 19.4493C33.557 19.4493 33.9068 19.0995 33.9068 18.6681V16.592H35.9829C36.4144 16.592 36.7641 16.2422 36.7641 15.8107C36.7641 15.3792 36.4144 15.0295 35.9829 15.0295Z" fill="white"/>
<path d="M35.6792 9.42797C34.9495 4.035 30.4411 0 25.0898 0C22.3884 0 19.8615 1.00695 17.8906 2.85266C15.9197 1.00695 13.3927 0 10.6915 0C4.79617 0 0 4.91039 0 10.9461C0 12.1386 0.347891 13.4752 1.04 14.9507H0.78125C0.349766 14.9507 0 15.3005 0 15.732C0 16.1634 0.349766 16.5132 0.78125 16.5132H1.87203C3.33117 18.9835 5.63867 21.7927 8.78508 24.9212C13.0491 29.1612 17.3729 32.4783 17.4161 32.5113C17.5561 32.6184 17.7234 32.672 17.8906 32.672C18.0579 32.672 18.2251 32.6184 18.3652 32.5113C18.3981 32.4861 21.705 29.9503 25.3697 26.4952C25.6837 26.1991 25.6982 25.7047 25.4022 25.3908C25.1062 25.0769 24.6118 25.0623 24.2978 25.3583C21.503 27.9934 18.9227 30.0827 17.8907 30.8989C16.6643 29.9286 13.2501 27.1588 9.87562 23.8022C7.17406 21.1148 5.10594 18.6657 3.70773 16.5132H10.702C10.8716 16.5132 11.0366 16.458 11.1721 16.3559C11.3075 16.2539 11.4061 16.1105 11.4529 15.9474L12.8179 11.1895L16.5979 23.3002C16.6475 23.4592 16.7466 23.5981 16.8808 23.6968C17.0149 23.7954 17.1771 23.8486 17.3436 23.8486C17.5102 23.8486 17.6723 23.7954 17.8065 23.6968C17.9406 23.5981 18.0397 23.4592 18.0894 23.3002L20.1827 16.5914H23.6705C24.102 16.5914 24.4518 16.2416 24.4518 15.8102C24.4518 15.3787 24.102 15.0289 23.6705 15.0289H19.6081C19.4416 15.0289 19.2794 15.0821 19.1452 15.1808C19.0111 15.2795 18.912 15.4184 18.8623 15.5774L17.3434 20.445L13.532 8.23359C13.4822 8.07301 13.3817 7.93284 13.2457 7.834C13.1097 7.73516 12.9453 7.68295 12.7772 7.68516C12.6091 7.68711 12.4461 7.74321 12.3125 7.84513C12.1788 7.94706 12.0816 8.08937 12.0352 8.25094L10.1131 14.9508H2.78312C1.97555 13.4261 1.5625 12.0823 1.5625 10.9461C1.5625 5.77195 5.65773 1.5625 10.6915 1.5625C13.2215 1.5625 15.5743 2.6025 17.3164 4.49078C17.3896 4.57007 17.4784 4.63335 17.5772 4.67663C17.676 4.71991 17.7827 4.74225 17.8906 4.74225C17.9985 4.74225 18.1052 4.71991 18.2041 4.67663C18.3029 4.63335 18.3917 4.57007 18.4648 4.49078C20.207 2.6025 22.5598 1.5625 25.0898 1.5625C29.4419 1.5625 33.1419 4.70109 34.0214 8.99414C33.7242 8.95525 33.4247 8.93573 33.1249 8.9357C29.3341 8.9357 26.2499 12.0198 26.2499 15.8107C26.2499 19.6016 29.3341 22.6857 33.1249 22.6857C36.9158 22.6857 39.9999 19.6016 39.9999 15.8107C40 12.922 38.209 10.444 35.6792 9.42797ZM33.125 21.1232C30.1957 21.1232 27.8125 18.74 27.8125 15.8107C27.8125 12.8814 30.1957 10.4982 33.125 10.4982C36.0543 10.4982 38.4375 12.8814 38.4375 15.8107C38.4375 18.74 36.0543 21.1232 33.125 21.1232Z" fill="white"/>
</svg>
