<svg width="36" height="36" viewBox="0 0 36 36" fill="none" xmlns="http://www.w3.org/2000/svg">
<path d="M21.6844 5.40692C21.713 5.29978 21.7624 5.19931 21.8298 5.11128C21.8972 5.02324 21.9813 4.94936 22.0773 4.89385C22.1733 4.83834 22.2793 4.8023 22.3892 4.78779C22.4992 4.77327 22.6109 4.78057 22.718 4.80926C24.7559 5.34085 26.6153 6.40614 28.1045 7.89539C29.5938 9.38464 30.659 11.244 31.1906 13.2819C31.2193 13.389 31.2266 13.5007 31.2121 13.6107C31.1976 13.7206 31.1616 13.8266 31.1061 13.9226C31.0505 14.0186 30.9767 14.1027 30.8886 14.1701C30.8006 14.2375 30.7001 14.2869 30.593 14.3155C30.5219 14.3344 30.4486 14.3439 30.375 14.3436C30.1891 14.3438 30.0084 14.2825 29.8609 14.1693C29.7134 14.0561 29.6074 13.8974 29.5594 13.7179C29.103 11.9673 28.1881 10.3702 26.9089 9.09101C25.6297 7.81183 24.0326 6.8969 22.282 6.44051C22.1749 6.41195 22.0744 6.36254 21.9864 6.29512C21.8984 6.2277 21.8245 6.14359 21.769 6.0476C21.7135 5.9516 21.6774 5.84561 21.6629 5.73568C21.6484 5.62575 21.6557 5.51403 21.6844 5.40692ZM21.157 10.9405C23.2031 11.4861 24.5138 12.7968 25.0594 14.8429C25.1074 15.0224 25.2134 15.1811 25.3609 15.2943C25.5084 15.4075 25.6891 15.4688 25.875 15.4686C25.9486 15.4689 26.0219 15.4594 26.093 15.4405C26.2001 15.4119 26.3006 15.3625 26.3886 15.2951C26.4767 15.2277 26.5505 15.1436 26.6061 15.0476C26.6616 14.9516 26.6976 14.8456 26.7121 14.7357C26.7266 14.6257 26.7193 14.514 26.6906 14.4069C25.9875 11.7758 24.2241 10.0124 21.593 9.30926C21.4859 9.28064 21.3742 9.27339 21.2643 9.28794C21.1544 9.30248 21.0484 9.33853 20.9524 9.39403C20.7586 9.50611 20.6172 9.6906 20.5594 9.90692C20.5016 10.1232 20.5321 10.3537 20.6442 10.5475C20.7562 10.7413 20.9407 10.8827 21.157 10.9405ZM32.3283 24.5811C32.0874 26.4194 31.1852 28.1071 29.7905 29.3286C28.3958 30.5502 26.604 31.2221 24.75 31.2186C13.7391 31.2186 4.78126 22.2608 4.78126 11.2499C4.77771 9.39651 5.44898 7.60522 6.66968 6.21062C7.89038 4.81602 9.57701 3.91348 11.4145 3.67161C11.8375 3.6202 12.2658 3.70742 12.635 3.92017C13.0042 4.13292 13.2944 4.4597 13.462 4.85145L16.4292 11.4749C16.5602 11.7747 16.6145 12.1025 16.587 12.4286C16.5595 12.7546 16.4511 13.0687 16.2717 13.3424C16.2536 13.3702 16.2339 13.397 16.2127 13.4225L13.2497 16.9466C13.2317 16.9831 13.2224 17.0233 13.2224 17.064C13.2224 17.1047 13.2317 17.1449 13.2497 17.1815C14.3269 19.3865 16.6388 21.6815 18.8747 22.7572C18.912 22.7743 18.9528 22.7824 18.9938 22.7809C19.0348 22.7794 19.0749 22.7684 19.111 22.7488L22.583 19.7957C22.6078 19.7741 22.6341 19.7544 22.6617 19.7366C22.9342 19.555 23.2477 19.4441 23.5737 19.4142C23.8998 19.3842 24.2282 19.4361 24.5292 19.565L31.1724 22.5421C31.5589 22.7134 31.88 23.0046 32.0882 23.3726C32.2964 23.7406 32.3806 24.1658 32.3283 24.5854V24.5811ZM30.6563 24.373C30.661 24.3142 30.6471 24.2554 30.6166 24.2049C30.586 24.1545 30.5404 24.1149 30.4861 24.0918L23.8416 21.1147C23.8053 21.1007 23.7664 21.0947 23.7275 21.0972C23.6887 21.0996 23.6509 21.1104 23.6166 21.1288L20.146 24.0819C20.1206 24.103 20.0939 24.1227 20.0672 24.141C19.7841 24.3298 19.4569 24.4419 19.1175 24.4666C18.7782 24.4912 18.4382 24.4275 18.1308 24.2816C15.5489 23.0343 12.9755 20.4847 11.7281 17.9268C11.5814 17.6211 11.5161 17.2828 11.5385 16.9446C11.561 16.6063 11.6703 16.2796 11.8561 15.996C11.8742 15.9678 11.8944 15.941 11.9166 15.9158L14.8781 12.3918C14.8951 12.3549 14.9038 12.3149 14.9038 12.2743C14.9038 12.2338 14.8951 12.1938 14.8781 12.1569L11.9166 5.52786C11.897 5.47465 11.8619 5.4286 11.8157 5.39573C11.7695 5.36285 11.7145 5.3447 11.6578 5.34364H11.6255C10.1952 5.53389 8.88315 6.23821 7.93421 7.32508C6.98527 8.41195 6.46436 9.80706 6.46876 11.2499C6.46876 21.3299 14.67 29.5311 24.75 29.5311C26.1931 29.5355 27.5883 29.0144 28.6752 28.0652C29.7621 27.1159 30.4663 25.8035 30.6563 24.373Z" fill="white"/>
</svg>
