<svg width="36" height="36" viewBox="0 0 36 36" fill="none" xmlns="http://www.w3.org/2000/svg">
<path d="M18 9.28125C16.9431 9.28125 15.9099 9.59466 15.0312 10.1818C14.1524 10.769 13.4675 11.6036 13.063 12.58C12.6586 13.5565 12.5527 14.6309 12.7589 15.6675C12.9651 16.7041 13.4741 17.6563 14.2214 18.4036C14.9687 19.1509 15.9209 19.6599 16.9575 19.8661C17.9941 20.0723 19.0685 19.9664 20.045 19.562C21.0214 19.1575 21.856 18.4726 22.4432 17.5938C23.0303 16.7151 23.3438 15.6819 23.3438 14.625C23.3438 13.2077 22.7807 11.8485 21.7786 10.8464C20.7765 9.84425 19.4173 9.28125 18 9.28125ZM18 18.2812C17.2769 18.2812 16.57 18.0668 15.9687 17.6651C15.3674 17.2633 14.8988 16.6923 14.6221 16.0242C14.3453 15.3561 14.2729 14.6209 14.414 13.9117C14.5551 13.2025 14.9033 12.551 15.4146 12.0396C15.926 11.5283 16.5775 11.1801 17.2867 11.039C17.9959 10.8979 18.7311 10.9703 19.3992 11.2471C20.0673 11.5238 20.6383 11.9924 21.0401 12.5937C21.4418 13.195 21.6562 13.9019 21.6562 14.625C21.6562 15.5947 21.271 16.5247 20.5854 17.2104C19.8997 17.896 18.9697 18.2812 18 18.2812ZM18 2.53125C14.7937 2.53497 11.7197 3.81033 9.45254 6.07754C7.18533 8.34475 5.90997 11.4187 5.90625 14.625C5.90625 18.9717 7.92281 23.5884 11.738 27.9759C13.4599 29.966 15.398 31.7582 17.5162 33.3197C17.658 33.4189 17.8269 33.4721 18 33.4721C18.1731 33.4721 18.342 33.4189 18.4838 33.3197C20.602 31.7582 22.5401 29.966 24.262 27.9759C28.0772 23.5884 30.0938 18.9759 30.0938 14.625C30.09 11.4187 28.8147 8.34475 26.5475 6.07754C24.2803 3.81033 21.2063 2.53497 18 2.53125ZM18 31.5717C15.8906 29.9433 7.59375 23.0091 7.59375 14.625C7.59375 11.8651 8.69012 9.21822 10.6417 7.26667C12.5932 5.31512 15.2401 4.21875 18 4.21875C20.7599 4.21875 23.4068 5.31512 25.3583 7.26667C27.3099 9.21822 28.4062 11.8651 28.4062 14.625C28.4063 23.0091 20.1094 29.9433 18 31.5717Z" fill="white"/>
</svg>
