<svg width="48" height="48" viewBox="0 0 48 48" fill="none" xmlns="http://www.w3.org/2000/svg">
<mask id="mask0_31349_448" style="mask-type:luminance" maskUnits="userSpaceOnUse" x="0" y="0" width="48" height="48">
<path d="M0 0H48V48H0V0Z" fill="white"/>
</mask>
<g mask="url(#mask0_31349_448)">
<path d="M20.7118 16.438C21.2308 16.438 21.6514 16.018 21.6514 15.4984V14.5594C21.6427 14.3162 21.54 14.0858 21.3649 13.9168C21.1897 13.7478 20.9558 13.6534 20.7124 13.6534C20.4691 13.6534 20.2352 13.7478 20.06 13.9168C19.8849 14.0858 19.7821 14.3162 19.7734 14.5594V15.499C19.7734 16.0174 20.1928 16.438 20.7118 16.438ZM27.2878 16.438C27.8062 16.438 28.2268 16.018 28.2268 15.4984V14.5594C28.2206 14.3144 28.119 14.0815 27.9435 13.9104C27.768 13.7393 27.5326 13.6436 27.2875 13.6436C27.0425 13.6436 26.8071 13.7393 26.6316 13.9104C26.4561 14.0815 26.3544 14.3144 26.3482 14.5594V15.499C26.3482 16.0174 26.7682 16.438 27.2878 16.438ZM21.6754 20.8594C22.2925 21.4748 23.1284 21.8204 23.9998 21.8204C24.8713 21.8204 25.7072 21.4748 26.3242 20.8594C26.4115 20.7722 26.4807 20.6687 26.5279 20.5548C26.5751 20.4409 26.5994 20.3188 26.5994 20.1954C26.5995 20.0721 26.5752 19.95 26.528 19.836C26.4809 19.7221 26.4117 19.6185 26.3245 19.5313C26.2374 19.4441 26.1338 19.3749 26.0199 19.3277C25.906 19.2805 25.7839 19.2561 25.6605 19.2561C25.5372 19.2561 25.4151 19.2803 25.3012 19.3275C25.1872 19.3747 25.0837 19.4438 24.9964 19.531C24.732 19.7952 24.3736 19.9436 23.9998 19.9436C23.6261 19.9436 23.2676 19.7952 23.0032 19.531C22.8252 19.3642 22.5893 19.2732 22.3454 19.2772C22.1015 19.2812 21.8687 19.3799 21.6963 19.5524C21.5238 19.725 21.4252 19.9578 21.4213 20.2017C21.4175 20.4456 21.5086 20.6815 21.6754 20.8594Z" fill="white"/>
<path d="M36.6809 28.764V12.681C36.6809 5.688 30.9923 0 23.9999 0C17.0075 0 11.3189 5.6886 11.3189 12.681V28.764C8.55527 29.9928 6.62207 32.7624 6.62207 35.976V47.0604C6.62207 47.5794 7.04267 48 7.56167 48H40.4381C40.9571 48 41.3777 47.5794 41.3777 47.0604V35.9766C41.3777 32.7624 39.4445 29.9928 36.6809 28.764ZM13.1975 28.1964V12.6804C13.1975 6.7248 18.0437 1.8786 23.9999 1.8786C29.9561 1.8786 34.8023 6.7248 34.8023 12.681V28.1964C34.4896 28.1455 34.1743 28.1118 33.8579 28.0956C33.4829 28.0776 33.7439 28.0896 28.2269 28.086V24.7662C30.9545 23.2962 32.8169 20.4456 32.9189 17.1882C32.9279 16.89 32.9219 17.2302 32.9237 11.2722C32.9237 10.7532 32.5031 10.3326 31.9841 10.3326C30.3401 10.3326 28.7693 9.8214 27.4397 8.8548L24.5525 6.7548C24.3916 6.63778 24.1976 6.5749 23.9987 6.57522C23.7997 6.57555 23.606 6.63906 23.4455 6.7566L20.5955 8.8416C19.2731 9.81347 17.6741 10.336 16.0331 10.3326H16.0151C15.4967 10.3326 15.0761 10.7532 15.0761 11.2722C15.0785 17.0466 15.0665 17.0772 15.0989 17.535C15.3215 20.733 17.2229 23.3922 19.7729 24.7662V28.086C14.3099 28.0896 14.0591 28.0506 13.1975 28.1964ZM32.2655 39.3582C32.5075 39.3687 32.7361 39.4722 32.9036 39.6472C33.0712 39.8221 33.1648 40.055 33.1648 40.2972C33.1649 40.5394 33.0715 40.7724 32.9041 40.9474C32.7366 41.1225 32.5081 41.2261 32.2661 41.2368C32.0169 41.2366 31.778 41.1376 31.6019 40.9614C31.4257 40.7852 31.3266 40.5464 31.3265 40.2972C31.3265 39.7794 31.7477 39.3582 32.2655 39.3582ZM23.9999 31.356L21.6515 28.6716V25.518C23.1431 25.9254 24.7715 25.9488 26.3483 25.518V28.6728L23.9999 31.3566V31.356ZM16.9547 16.908V12.168C18.6728 12.0059 20.3146 11.3803 21.7049 10.3578L24.0017 8.6778L26.3345 10.374C27.7154 11.3829 29.3422 12.0019 31.0445 12.1662C31.0415 16.926 31.0739 17.2218 30.9695 17.9346C30.4637 21.3504 27.5207 23.9526 23.9999 23.9526C20.1257 23.9526 16.9547 20.7984 16.9547 16.908ZM8.50067 35.976C8.50067 32.7702 11.0315 30.1224 14.2313 29.9718C14.4689 29.961 14.5541 29.9658 14.7947 29.9646V34.7562C12.6533 35.1924 11.0369 37.0902 11.0369 39.3582V42.1764C11.0369 42.6948 11.4575 43.1154 11.9765 43.1154H13.8551C13.9804 43.1186 14.1051 43.0966 14.2219 43.0508C14.3386 43.0051 14.445 42.9364 14.5348 42.8488C14.6245 42.7613 14.6959 42.6567 14.7446 42.5411C14.7933 42.4256 14.8184 42.3015 14.8184 42.1761C14.8184 42.0507 14.7933 41.9266 14.7446 41.8111C14.6959 41.6955 14.6245 41.5909 14.5348 41.5034C14.445 41.4158 14.3386 41.3471 14.2219 41.3014C14.1051 41.2556 13.9804 41.2336 13.8551 41.2368H12.9161V39.3582C12.9169 38.6111 13.214 37.8948 13.7422 37.3665C14.2704 36.8382 14.9866 36.541 15.7337 36.54C16.4809 36.5408 17.1972 36.838 17.7256 37.3663C18.2539 37.8947 18.5511 38.611 18.5519 39.3582V41.2368H17.6123C17.3673 41.243 17.1344 41.3447 16.9633 41.5201C16.7922 41.6956 16.6964 41.931 16.6964 42.1761C16.6964 42.4212 16.7922 42.6566 16.9633 42.8321C17.1344 43.0075 17.3673 43.1092 17.6123 43.1154H19.4909C20.0099 43.1154 20.4305 42.6954 20.4305 42.1764V39.3582C20.4305 37.0902 18.8141 35.1924 16.6733 34.7562V29.964H20.2859L23.0603 33.135V46.122H8.50187V35.976H8.50067ZM39.4991 46.122H24.9395V33.1356L27.7139 29.9646H31.3265V37.641C30.7776 37.8359 30.3025 38.1958 29.9663 38.6713C29.6301 39.1469 29.4492 39.7148 29.4485 40.2972C29.4493 41.0443 29.7464 41.7606 30.2746 42.2889C30.8028 42.8172 31.519 43.1144 32.2661 43.1154C33.0133 43.1146 33.7296 42.8174 34.258 42.2891C34.7863 41.7607 35.0835 41.0444 35.0843 40.2972C35.0835 39.7147 34.9025 39.1468 34.5662 38.6712C34.2299 38.1956 33.7546 37.8358 33.2057 37.641V29.9646C33.4613 29.9664 33.6725 29.9574 34.0457 29.9916C37.0979 30.2754 39.4991 32.8488 39.4991 35.9766V46.122Z" fill="white"/>
</g>
</svg>
