<svg width="48" height="39" viewBox="0 0 48 39" fill="none" xmlns="http://www.w3.org/2000/svg">
<path d="M47.0631 20.6106H44.1123C45.2739 18.3606 45.8613 16.1892 45.8613 14.1378C45.8613 6.21 40.0833 0 32.7069 0C28.6167 0 25.7835 1.845 24.0009 3.6282C22.1997 1.8282 19.3671 0 15.2925 0C7.9161 0 2.1381 6.21 2.1381 14.1378C2.1381 16.185 2.7333 18.3564 3.9099 20.6106H0.9375C0.68886 20.6106 0.450403 20.7094 0.274587 20.8852C0.098772 21.061 0 21.2995 0 21.5481C0 21.7967 0.098772 22.0352 0.274587 22.211C0.450403 22.3868 0.68886 22.4856 0.9375 22.4856H4.9503C7.3203 26.1666 11.1267 30.003 16.2693 33.8946C20.1993 36.8688 23.3997 38.7162 23.5335 38.793C23.6842 38.8796 23.856 38.9226 24.0297 38.9172L24.1227 38.9148C24.2767 38.9101 24.4271 38.8674 24.5607 38.7906C24.6945 38.7138 27.8883 36.8748 31.8087 33.9048C36.9351 30.0186 40.7265 26.1786 43.0827 22.4862H47.0619C47.3106 22.4862 47.5492 22.3874 47.725 22.2115C47.9009 22.0357 47.9997 21.7971 47.9997 21.5484C47.9997 21.2997 47.9009 21.0611 47.725 20.8853C47.5492 20.7094 47.3106 20.6106 47.0619 20.6106H47.0631ZM4.0131 14.1378C4.0131 7.2618 8.9685 1.875 15.2931 1.875C19.2399 1.875 21.8205 3.9096 23.2905 5.6166C23.3797 5.72003 23.4904 5.80273 23.6149 5.85892C23.7394 5.9151 23.8747 5.94341 24.0113 5.94187C24.1478 5.94032 24.2824 5.90896 24.4056 5.84998C24.5288 5.791 24.6377 5.70582 24.7245 5.6004C24.7425 5.5794 24.7545 5.565 24.7623 5.5578C24.7747 5.54496 24.7867 5.53175 24.7983 5.5182C26.2581 3.8562 28.8153 1.875 32.7075 1.875C39.0327 1.875 43.9875 7.2612 43.9875 14.1378C43.9875 16.1394 43.3101 18.315 41.9745 20.6106H34.5081L30.0003 11.3058C29.9234 11.1474 29.8034 11.0139 29.6541 10.9205C29.5048 10.8271 29.3322 10.7777 29.1561 10.7778H29.1537C28.7937 10.7778 28.4661 10.9854 28.3107 11.3106L22.1631 24.1674L17.6559 15.5214C17.5814 15.3786 17.4714 15.2574 17.3365 15.1694C17.2015 15.0815 17.0462 15.0297 16.8855 15.0192C16.7247 15.0088 16.564 15.0398 16.4188 15.1095C16.2736 15.1792 16.1487 15.2851 16.0563 15.417L12.4245 20.6106H6.0543C4.7001 18.3084 4.0131 16.1328 4.0131 14.1378ZM24.0453 36.9162C21.9207 35.634 12.3231 29.6106 7.2183 22.4862H12.9123C13.2189 22.4862 13.5063 22.3362 13.6809 22.0854L16.7073 17.7576L21.3675 26.6982C21.5295 27.0084 21.8499 27.2022 22.1991 27.2022H22.2153C22.3893 27.1991 22.5591 27.1476 22.7055 27.0535C22.852 26.9594 22.9694 26.8264 23.0445 26.6694L29.1615 13.8762L33.0771 21.957C33.2331 22.281 33.5613 22.4856 33.9207 22.4856H40.8219C35.7459 29.6358 26.1585 35.6436 24.0459 36.9156L24.0453 36.9162Z" fill="white"/>
</svg>
