<svg width="31" height="48" viewBox="0 0 31 48" fill="none" xmlns="http://www.w3.org/2000/svg">
<path d="M14.6292 24.7675L12.3072 29.4721L7.11479 30.2269C6.94175 30.2522 6.77923 30.3253 6.64557 30.4381C6.51192 30.5509 6.41245 30.6988 6.35841 30.8651C6.30437 31.0314 6.2979 31.2095 6.33974 31.3793C6.38158 31.5491 6.47006 31.7038 6.59519 31.8259L10.3524 35.4883L9.46499 40.6597C9.43525 40.8322 9.45441 41.0096 9.52031 41.1718C9.58622 41.334 9.69622 41.4744 9.83786 41.5773C9.97951 41.6802 10.1471 41.7413 10.3217 41.7538C10.4963 41.7663 10.671 41.7296 10.8258 41.6479L15.4698 39.2059L20.1138 41.6479C20.2686 41.7292 20.4431 41.7655 20.6175 41.7529C20.7919 41.7402 20.9593 41.679 21.1008 41.5762C21.2422 41.4735 21.3522 41.3332 21.4181 41.1712C21.4841 41.0093 21.5034 40.8321 21.474 40.6597L20.5872 35.4877L24.3444 31.8259C24.4695 31.7038 24.558 31.5491 24.5998 31.3793C24.6417 31.2095 24.6352 31.0314 24.5812 30.8651C24.5271 30.6988 24.4277 30.5509 24.294 30.4381C24.1603 30.3253 23.9978 30.2522 23.8248 30.2269L18.6324 29.4721L16.3104 24.7669C16.233 24.61 16.1133 24.4779 15.9647 24.3855C15.8162 24.2931 15.6447 24.2441 15.4698 24.2441C15.2948 24.2441 15.1234 24.2931 14.9748 24.3855C14.8263 24.4779 14.7065 24.6106 14.6292 24.7675ZM17.1696 30.7435C17.2366 30.88 17.3359 30.9981 17.4589 31.0876C17.5818 31.1771 17.7247 31.2353 17.8752 31.2571L21.6756 31.8091L18.9252 34.4899C18.8164 34.5961 18.735 34.727 18.6881 34.8716C18.6412 35.0161 18.6301 35.1699 18.6558 35.3197L19.305 39.1045L15.906 37.3171C15.7715 37.2464 15.6218 37.2095 15.4698 37.2095C15.3178 37.2095 15.1681 37.2464 15.0336 37.3171L11.6346 39.1045L12.2838 35.3197C12.3094 35.1699 12.2982 35.0161 12.2512 34.8715C12.2041 34.727 12.1227 34.596 12.0138 34.4899L9.26399 31.8091L13.0644 31.2571C13.2148 31.2352 13.3576 31.177 13.4805 31.0877C13.6034 30.9983 13.7027 30.8804 13.77 30.7441L15.4698 27.3001L17.1696 30.7441V30.7435Z" fill="white"/>
<path d="M30.8425 0.525C30.7654 0.367492 30.6456 0.234788 30.4968 0.141979C30.348 0.0491696 30.1761 -2.11167e-05 30.0007 2.5184e-07H21.5629C21.2731 2.5184e-07 20.9989 0.1344 20.8219 0.3636L15.4435 7.3068L10.1197 0.366C10.0321 0.252046 9.91939 0.159772 9.79039 0.0963093C9.66138 0.0328467 9.51951 -0.000105103 9.37574 2.5184e-07H0.937341C0.761989 8.62813e-05 0.590173 0.049334 0.4414 0.142152C0.292628 0.23497 0.172859 0.36764 0.0956916 0.5251C0.0185238 0.68256 -0.0129512 0.858501 0.00483976 1.03295C0.0226307 1.2074 0.0889753 1.37336 0.196341 1.512L9.33794 13.3128H7.50134C7.2527 13.3128 7.01424 13.4116 6.83843 13.5874C6.66261 13.7632 6.56384 14.0017 6.56384 14.2503C6.56384 14.4989 6.66261 14.7374 6.83843 14.9132C7.01424 15.089 7.2527 15.1878 7.50134 15.1878H8.43854V19.7538C3.70154 22.278 0.469341 27.2682 0.469341 33C0.469341 41.271 7.19834 48 15.4693 48C23.7403 48 30.4693 41.271 30.4693 33C30.4693 27.2682 27.2371 22.278 22.5007 19.7532V15.1872H23.4379C23.6825 15.181 23.9149 15.0795 24.0857 14.9044C24.2564 14.7292 24.352 14.4943 24.352 14.2497C24.352 14.0051 24.2564 13.7702 24.0857 13.595C23.9149 13.4199 23.6825 13.3184 23.4379 13.3122H21.6001L30.7417 1.512C30.9607 1.2294 30.9997 0.8454 30.8425 0.525ZM8.91314 1.875L14.2555 8.8398L11.2507 12.7194L2.85074 1.875H8.91314ZM28.5943 33C28.5943 40.2372 22.7065 46.125 15.4693 46.125C8.23214 46.125 2.34434 40.2372 2.34434 33C2.34434 25.7628 8.23214 19.875 15.4693 19.875C22.7065 19.875 28.5943 25.7628 28.5943 33ZM20.6257 18.9132C17.296 17.6951 13.6426 17.6951 10.3129 18.9132V15.1872H20.6257V18.9132ZM19.2283 13.3128H13.1623L22.0231 1.875H28.0891L19.2283 13.3128Z" fill="white"/>
</svg>
