<svg width="44" height="44" viewBox="0 0 44 44" fill="none" xmlns="http://www.w3.org/2000/svg">
<g clip-path="url(#clip0_31222_498)">
<path d="M17.3071 20.1816C17.9753 20.6798 19.8895 20.6798 20.5576 20.1816C20.621 20.1344 20.693 20.1001 20.7696 20.0808C20.8462 20.0614 20.9258 20.0573 21.004 20.0687C21.0822 20.0801 21.1573 20.1068 21.2252 20.1472C21.293 20.1877 21.3523 20.2411 21.3995 20.3045C21.4467 20.3678 21.481 20.4398 21.5003 20.5164C21.5197 20.593 21.5238 20.6726 21.5124 20.7508C21.501 20.829 21.4743 20.9041 21.4339 20.972C21.3934 21.0399 21.34 21.0991 21.2767 21.1463C20.7289 21.5546 19.8307 21.7587 18.9324 21.7587C18.0341 21.7587 17.1359 21.5546 16.5881 21.1463C16.4602 21.0509 16.3754 20.9087 16.3523 20.7508C16.3293 20.5929 16.3699 20.4324 16.4653 20.3045C16.5606 20.1765 16.7029 20.0917 16.8608 20.0687C17.0186 20.0457 17.1792 20.0863 17.3071 20.1816ZM15.755 16.1123C16.2972 16.1123 16.7368 15.6728 16.7368 15.1305C16.7368 14.5882 16.2972 14.1487 15.755 14.1487C15.2127 14.1487 14.7731 14.5882 14.7731 15.1305C14.7731 15.6728 15.2127 16.1123 15.755 16.1123ZM22.1522 16.1123C22.6944 16.1123 23.134 15.6728 23.134 15.1305C23.134 14.5882 22.6944 14.1487 22.1522 14.1487C21.6099 14.1487 21.1704 14.5882 21.1704 15.1305C21.1704 15.6728 21.6099 16.1123 22.1522 16.1123ZM43.2266 34.7102C43.2266 39.4061 39.4061 43.2266 34.7102 43.2266H1.375C1.21546 43.2266 1.06245 43.1632 0.949631 43.0504C0.836816 42.9376 0.773438 42.7845 0.773438 42.625V30.7978C0.773438 29.1751 1.86931 27.7872 3.43845 27.4227L9.55573 26.0013C10.4277 24.6102 11.5953 23.4281 12.9755 22.5389C11.917 21.3042 11.2331 19.7394 11.1028 18.0222H10.6296C9.03512 18.0222 7.73798 16.725 7.73798 15.1306C7.73798 14.3303 8.06489 13.605 8.59203 13.081V11.1353C8.59195 5.42171 13.2401 0.773438 18.9536 0.773438C24.6671 0.773438 29.3153 5.42171 29.3153 11.1351V13.0809C29.8424 13.6049 30.1693 14.3302 30.1693 15.1305C30.1693 16.725 28.8721 18.0221 27.2777 18.0221H26.8046C26.6742 19.7392 25.9904 21.3041 24.9319 22.5387C26.3159 23.4316 27.4825 24.6207 28.3491 26.0007L31.6423 26.7658C32.6207 26.3868 33.661 26.1929 34.7103 26.1938C39.4061 26.1938 43.2266 30.0143 43.2266 34.7102ZM29.1 27.4104C29.1974 27.631 29.2876 27.8547 29.3703 28.0812C29.5728 27.9177 29.7826 27.7636 29.9991 27.6192L29.1 27.4104ZM24.5343 23.7188V25.1144L26.5708 25.5875C25.9816 24.8735 25.2962 24.2446 24.5343 23.7188ZM23.3312 23.962C22.0785 24.8029 20.5724 25.2942 18.9536 25.2942C17.3348 25.2942 15.8286 24.8029 14.576 23.962V25.391L18.9536 31.2039L23.3312 25.391V23.962ZM12.0996 26.6454L16.4464 33.083C16.485 33.1417 16.5364 33.191 16.5966 33.2271C16.6569 33.2632 16.7246 33.2853 16.7946 33.2916C16.8646 33.2981 16.9351 33.2888 17.001 33.2644C17.0669 33.24 17.1265 33.201 17.1753 33.1504L18.1608 32.151L13.7294 26.2667L12.0996 26.6454ZM19.7464 32.151L20.7319 33.1505C20.7806 33.2012 20.8402 33.2402 20.9061 33.2646C20.972 33.2891 21.0426 33.2982 21.1126 33.2915C21.1826 33.2852 21.2503 33.2632 21.3105 33.2271C21.3708 33.191 21.4222 33.1418 21.4607 33.083L25.8075 26.6454L24.1779 26.2667L19.7464 32.151ZM28.9662 15.1304C28.9662 14.1994 28.2087 13.4419 27.2777 13.4419H26.8274V16.819H27.2777C28.2086 16.819 28.9662 16.0615 28.9662 15.1304ZM9.79507 12.362C10.0657 12.2802 10.3468 12.2387 10.6295 12.2388H11.0799V11.7586C11.0799 11.6002 11.1424 11.4481 11.2538 11.3355C11.3652 11.2229 11.5165 11.1587 11.675 11.157C15.3672 11.1167 18.2554 9.15698 21.6477 6.59905C21.7168 6.54697 21.7963 6.5104 21.8809 6.49186C21.9654 6.47331 22.0529 6.47323 22.1375 6.4916C22.2221 6.50997 22.3017 6.54636 22.3709 6.59831C22.4402 6.65025 22.4974 6.71652 22.5387 6.79259C23.7592 9.04312 25.1571 10.6122 26.4746 11.2109C26.5798 11.2587 26.6689 11.3357 26.7315 11.4329C26.794 11.53 26.8273 11.6431 26.8273 11.7586V12.2388H27.2776C27.5676 12.2388 27.8477 12.2822 28.1121 12.3621V11.1352C28.1121 6.08515 24.0035 1.97656 18.9536 1.97656C13.9037 1.97656 9.79507 6.08515 9.79507 11.1351V12.362ZM10.6294 16.819H11.0798V13.4419H10.6294C9.69839 13.4419 8.94094 14.1994 8.94094 15.1304C8.94094 16.0615 9.69839 16.819 10.6294 16.819ZM12.283 17.4206C12.283 21.0988 15.2754 24.0911 18.9536 24.0911C22.6318 24.0911 25.6242 21.0988 25.6242 17.4206V12.1296C24.0178 11.249 22.7202 9.50271 21.8225 7.97173C18.6567 10.3306 15.8455 12.1227 12.283 12.3389V17.4206ZM11.3335 25.5882L13.3728 25.1144V23.7194C12.6096 24.2447 11.9233 24.8737 11.3335 25.5882ZM1.97656 42.0234H18.352V33.6706L18.0318 33.9952C17.6761 34.3557 17.1855 34.5362 16.6836 34.4895C16.1825 34.4431 15.7326 34.1759 15.4492 33.7563L10.8447 26.9369L10.3271 27.0572C9.80197 27.993 9.43361 29.0084 9.23665 30.0632C10.9235 30.3427 12.3509 32.068 13.1145 34.7989C13.5786 36.4585 13.4744 37.7007 12.8047 38.4911C12.3531 39.0241 11.7505 39.2269 11.2569 39.296C11.0834 39.5154 10.8158 39.6571 10.5156 39.6571C9.99487 39.6571 9.57026 39.2324 9.57026 38.7118C9.57026 38.1911 9.99487 37.7664 10.5156 37.7664C10.7944 37.7664 11.045 37.889 11.2183 38.0822C11.4539 38.0318 11.706 37.9267 11.8868 37.7132C12.2771 37.2526 12.301 36.3569 11.956 35.1227C11.2837 32.7186 10.0546 31.2251 8.74835 31.2251C7.4421 31.2251 6.21302 32.7186 5.54073 35.1227C5.19561 36.3568 5.21959 37.2525 5.60991 37.7132C5.79073 37.9267 6.04278 38.0319 6.27834 38.0823C6.45167 37.8891 6.70227 37.7664 6.98113 37.7664C7.50183 37.7664 7.92645 38.1911 7.92645 38.7118C7.92645 39.2324 7.50183 39.6571 6.98113 39.6571C6.68087 39.6571 6.41309 39.5154 6.23975 39.2959C5.74544 39.2267 5.14336 39.0237 4.69202 38.4911C4.02239 37.7007 3.91806 36.4585 4.38221 34.7989C5.10744 32.2054 6.43122 30.5191 8.0074 30.1164C8.15672 29.1837 8.42563 28.2742 8.80748 27.4104L3.71104 28.5945C2.67343 28.8356 1.97656 29.721 1.97656 30.7978V42.0234ZM30.3508 42.0234C27.8631 40.5349 26.1937 37.814 26.1937 34.7102C26.1937 32.51 27.0324 30.5021 28.4068 28.9891C28.2005 28.3172 27.9227 27.6694 27.5781 27.0567L27.0622 26.9369L22.4579 33.7562C22.1745 34.1759 21.7247 34.4431 21.2236 34.4895C21.1719 34.4943 21.1201 34.4967 21.0683 34.4967C20.622 34.4967 20.1941 34.3185 19.8753 33.9953L19.5551 33.6707V42.0234H30.3508ZM42.0234 34.7102C42.0234 30.6776 38.7427 27.3969 34.7102 27.3969C30.6776 27.3969 27.3969 30.6776 27.3969 34.7102C27.3969 38.7427 30.6776 42.0234 34.7102 42.0234C38.7427 42.0234 42.0234 38.7427 42.0234 34.7102ZM40.4688 34.7126C40.4694 34.7916 40.4543 34.8699 40.4246 34.9431C40.3948 35.0163 40.351 35.0829 40.2955 35.1391C40.24 35.1954 40.174 35.2401 40.1012 35.2708C40.0284 35.3016 39.9503 35.3176 39.8713 35.3182L38.4269 35.3279C37.6305 36.4895 36.3988 37.59 35.2584 38.6083C35.1077 38.7432 34.9125 38.8178 34.7102 38.8177C34.5079 38.8178 34.3125 38.7432 34.1618 38.6082C33.0215 37.59 31.7898 36.4895 30.9935 35.328L29.549 35.3183C29.3895 35.3177 29.2367 35.2538 29.1242 35.1407C29.0118 35.0275 28.9489 34.8743 28.9494 34.7147C28.9499 34.5552 29.0138 34.4024 29.127 34.2899C29.2402 34.1775 29.3934 34.1146 29.553 34.1151H29.5571L30.3518 34.1205C30.2145 33.744 30.1375 33.3624 30.1375 32.9761C30.1375 31.6675 31.2981 30.6029 32.7246 30.6029C33.5717 30.6029 34.1891 30.8664 34.7101 31.4684C35.231 30.8664 35.8485 30.6029 36.6956 30.6029C38.1221 30.6029 39.2826 31.6675 39.2826 32.9761C39.2826 33.3625 39.2056 33.7441 39.0683 34.1205L39.8631 34.1151H39.8672C40.026 34.1151 40.1785 34.1778 40.2912 34.2898C40.4039 34.4017 40.4678 34.5537 40.4688 34.7126ZM31.6655 34.1292L31.9122 34.1309L32.8603 33.5559C32.9861 33.4796 33.1356 33.4521 33.2804 33.4785C33.4251 33.505 33.5552 33.5836 33.6459 33.6995L34.3295 34.5728L35.6695 33.0222C35.7249 32.9581 35.7932 32.9064 35.8699 32.8706C35.9466 32.8347 36.03 32.8154 36.1147 32.814C36.2898 32.8096 36.4505 32.8815 36.5667 33.0073L37.6038 34.1302L37.755 34.1291C37.9599 33.7355 38.0798 33.349 38.0798 32.9759C38.0798 32.3307 37.4589 31.8058 36.6958 31.8058C36.0895 31.8058 35.7627 31.9939 35.4006 32.5514L35.4004 32.5518C35.3258 32.6668 35.2236 32.7614 35.103 32.8268C34.9825 32.8921 34.8475 32.9262 34.7103 32.9259H34.7102C34.573 32.9262 34.438 32.892 34.3175 32.8266C34.197 32.7612 34.0948 32.6666 34.0203 32.5515C33.6579 31.994 33.3311 31.8058 32.7248 31.8058C31.9617 31.8058 31.3409 32.3307 31.3409 32.9759C31.3406 33.3491 31.4605 33.7356 31.6655 34.1292ZM36.9986 35.2272C36.9627 35.2024 36.9297 35.1737 36.9001 35.1417L36.1396 34.3183L34.7618 35.9128C34.7053 35.9781 34.6354 36.0305 34.5569 36.0664C34.4783 36.1024 34.393 36.121 34.3066 36.121L34.292 36.1208C34.2032 36.1187 34.116 36.0969 34.0366 36.057C33.9572 36.0171 33.8876 35.9601 33.8329 35.8902L33.0276 34.8615L32.4228 35.2282C33.0602 35.9913 33.8986 36.7583 34.7102 37.4846C35.5222 36.7579 36.3609 35.9905 36.9986 35.2272Z" fill="white"/>
</g>
<defs>
<clipPath id="clip0_31222_498">
<rect width="44" height="44" fill="white"/>
</clipPath>
</defs>
</svg>
