<svg width="40" height="40" viewBox="0 0 40 40" fill="none" xmlns="http://www.w3.org/2000/svg">
<path d="M36.1263 23.5485L20.7257 8.14737L24.3114 4.56166C25.0314 3.83791 25.8878 3.26414 26.831 2.87357C27.7741 2.48299 28.7854 2.28336 29.8063 2.28623C36.6657 2.28623 40.212 10.6405 35.3012 15.5519L32.8606 17.9925C32.5137 18.3394 32.7634 18.9297 33.2486 18.9297C33.6549 18.9297 33.5903 18.7348 36.0772 16.3279C36.9033 15.5064 37.5584 14.5291 38.0044 13.4528C38.4504 12.3764 38.6785 11.2222 38.6754 10.0571C38.6754 5.15594 34.7092 1.18851 29.8069 1.18851C28.6417 1.18529 27.4874 1.41322 26.4109 1.85913C25.3344 2.30503 24.3571 2.96003 23.5354 3.78623L19.9497 7.37137L16.3143 3.73709C12.884 0.305086 7.30173 0.305086 3.8703 3.73709L3.77316 3.8348C0.341728 7.26566 0.341728 12.8479 3.77316 16.2788L7.40744 19.9131L3.84573 23.4754C0.388013 26.9325 0.388013 32.5594 3.84573 36.0177C7.30344 39.4748 12.9297 39.4748 16.388 36.0177L19.9497 32.4559L23.584 36.0902C27.0154 39.5211 32.5972 39.5211 36.028 36.0902L36.1263 35.9931C39.5572 32.5617 39.5572 26.9794 36.1263 23.5485ZM15.612 35.2411C12.5817 38.2714 7.65201 38.2714 4.62173 35.2411C1.59201 32.2114 1.59201 27.2811 4.62173 24.2514L8.18344 20.6897L19.1737 31.6799L15.612 35.2411ZM35.3503 35.2159L35.252 35.3142C32.2492 38.3171 27.3629 38.3171 24.3606 35.3142L4.54858 15.5028C1.54516 12.4999 1.54516 7.61423 4.54858 4.61137C4.60573 4.57309 6.60687 2.26109 10.092 2.26109C12.0646 2.26109 14.0366 3.01194 15.5377 4.51309L35.3492 24.3245C38.3526 27.3274 38.3532 32.2131 35.3503 35.2159Z" fill="white"/>
<path d="M27.9577 20.623L19.1057 11.7715C19.0548 11.7206 18.9943 11.6801 18.9277 11.6525C18.8611 11.6249 18.7898 11.6107 18.7177 11.6107C18.6456 11.6107 18.5743 11.6249 18.5077 11.6525C18.4411 11.6801 18.3806 11.7206 18.3297 11.7715L11.8074 18.2938C11.7564 18.3448 11.716 18.4052 11.6884 18.4718C11.6608 18.5384 11.6466 18.6097 11.6466 18.6818C11.6466 18.7539 11.6608 18.8252 11.6884 18.8918C11.716 18.9584 11.7564 19.0189 11.8074 19.0698L13.2748 20.5372C13.3255 20.5894 13.386 20.631 13.4528 20.6596C13.5197 20.6882 13.5916 20.7032 13.6643 20.7037C13.737 20.7043 13.8091 20.6904 13.8764 20.6628C13.9437 20.6353 14.0048 20.5946 14.0563 20.5432C14.1077 20.4918 14.1484 20.4307 14.176 20.3635C14.2036 20.2962 14.2176 20.2241 14.2171 20.1514C14.2166 20.0787 14.2016 20.0068 14.1731 19.9399C14.1445 19.873 14.103 19.8125 14.0508 19.7618L12.972 18.6818L18.7177 12.9355L26.7937 21.0115L21.0474 26.7572L15.896 21.6064C15.845 21.5554 15.7845 21.5149 15.7179 21.4873C15.6514 21.4597 15.58 21.4455 15.5079 21.4455C15.4358 21.4454 15.3644 21.4596 15.2978 21.4872C15.2312 21.5147 15.1707 21.5551 15.1197 21.6061C15.0687 21.657 15.0283 21.7175 15.0006 21.7841C14.973 21.8507 14.9588 21.9221 14.9588 21.9942C14.9588 22.0663 14.9729 22.1376 15.0005 22.2043C15.028 22.2709 15.0685 22.3314 15.1194 22.3824L20.6594 27.9218C20.7103 27.9729 20.7707 28.0135 20.8373 28.0411C20.9039 28.0688 20.9753 28.0831 21.0474 28.0831C21.1195 28.0831 21.1909 28.0688 21.2575 28.0411C21.3241 28.0135 21.3845 27.9729 21.4354 27.9218L27.9577 21.3995C28.0087 21.3486 28.0491 21.2881 28.0767 21.2215C28.1043 21.1549 28.1185 21.0836 28.1185 21.0115C28.1185 20.9395 28.1043 20.8681 28.0767 20.8015C28.0491 20.735 28.0087 20.6739 27.9577 20.623ZM8.39084 14.1012C8.33989 14.0503 8.2794 14.0099 8.21282 13.9823C8.14625 13.9547 8.0749 13.9405 8.00284 13.9405C7.93078 13.9405 7.85943 13.9547 7.79286 13.9823C7.72628 14.0099 7.66579 14.0503 7.61484 14.1012C7.56389 14.1522 7.52347 14.2127 7.49589 14.2793C7.46832 14.3458 7.45413 14.4172 7.45413 14.4892C7.45413 14.5613 7.46832 14.6326 7.49589 14.6992C7.52347 14.7658 7.56389 14.8263 7.61484 14.8772L7.99656 15.2595C8.04751 15.3105 8.10801 15.351 8.17459 15.3786C8.24118 15.4062 8.31255 15.4204 8.38464 15.4204C8.45672 15.4205 8.52811 15.4063 8.59472 15.3787C8.66132 15.3512 8.72185 15.3108 8.77284 15.2598C8.82383 15.2089 8.86429 15.1484 8.8919 15.0818C8.91951 15.0152 8.93373 14.9438 8.93376 14.8717C8.93378 14.7996 8.91961 14.7283 8.89205 14.6616C8.86449 14.595 8.82408 14.5345 8.77313 14.4835L8.39027 14.1007L8.39084 14.1012ZM8.13427 10.6612L7.75141 10.279C7.70046 10.228 7.63997 10.1876 7.5734 10.16C7.50682 10.1324 7.43547 10.1182 7.36341 10.1182C7.29135 10.1182 7.22 10.1324 7.15343 10.16C7.08686 10.1876 7.02636 10.228 6.97541 10.279C6.92446 10.3299 6.88404 10.3904 6.85647 10.457C6.82889 10.5235 6.8147 10.5949 6.8147 10.667C6.8147 10.739 6.82889 10.8104 6.85647 10.8769C6.88404 10.9435 6.92446 11.004 6.97541 11.055C7.27941 11.3172 7.39827 11.5984 7.74627 11.5984C8.23027 11.5984 8.48055 11.0081 8.13427 10.6612ZM11.4737 7.32238L11.0908 6.93952C11.0399 6.88857 10.9794 6.84815 10.9128 6.82058C10.8463 6.793 10.7749 6.77881 10.7028 6.77881C10.6308 6.77881 10.5594 6.793 10.4929 6.82058C10.4263 6.84815 10.3658 6.88857 10.3148 6.93952C10.2639 6.99048 10.2235 7.05097 10.1959 7.11754C10.1683 7.18411 10.1541 7.25547 10.1541 7.32752C10.1541 7.39958 10.1683 7.47093 10.1959 7.53751C10.2235 7.60408 10.2639 7.66457 10.3148 7.71552C10.6188 7.97781 10.7377 8.25895 11.0857 8.25895C11.5703 8.25895 11.8206 7.66867 11.4737 7.32181V7.32238ZM12.0343 11.2224L11.6514 10.8395C11.5475 10.7414 11.4094 10.6878 11.2665 10.6899C11.1236 10.692 10.9871 10.7497 10.8861 10.8508C10.7851 10.9519 10.7275 11.0884 10.7255 11.2313C10.7235 11.3742 10.7773 11.5122 10.8754 11.6161C11.1794 11.8778 11.2983 12.159 11.6468 12.159C11.7555 12.1591 11.8617 12.127 11.9521 12.0667C12.0425 12.0064 12.1129 11.9206 12.1545 11.8202C12.196 11.7198 12.2068 11.6094 12.1855 11.5028C12.1642 11.3963 12.1118 11.2985 12.0348 11.2218L12.0343 11.2224ZM14.9074 8.89838C15.392 8.89838 15.6423 8.30809 15.2954 7.96124L14.9126 7.57838C14.8091 7.47802 14.6704 7.42238 14.5263 7.42349C14.3822 7.4246 14.2443 7.48236 14.1425 7.58429C14.0406 7.68622 13.983 7.82414 13.982 7.96824C13.981 8.11234 14.0367 8.25104 14.1371 8.35438C14.4411 8.61724 14.5594 8.89838 14.9074 8.89838ZM25.38 31.0898C25.329 31.0389 25.2685 30.9984 25.2019 30.9709C25.1352 30.9433 25.0639 30.9291 24.9918 30.9292C24.9197 30.9292 24.8483 30.9434 24.7817 30.971C24.7151 30.9986 24.6546 31.0391 24.6037 31.0901C24.5527 31.1411 24.5123 31.2016 24.4848 31.2682C24.4572 31.3348 24.443 31.4062 24.4431 31.4783C24.4431 31.5504 24.4573 31.6218 24.4849 31.6883C24.5125 31.7549 24.553 31.8154 24.604 31.8664L24.9868 32.2487C25.0378 32.2996 25.0983 32.34 25.1649 32.3676C25.2314 32.3952 25.3028 32.4094 25.3748 32.4094C25.4469 32.4094 25.5183 32.3952 25.5848 32.3676C25.6514 32.34 25.7119 32.2996 25.7628 32.2487C25.8138 32.1977 25.8542 32.1372 25.8818 32.0706C25.9094 32.0041 25.9236 31.9327 25.9236 31.8607C25.9236 31.7886 25.9094 31.7173 25.8818 31.6507C25.8542 31.5841 25.8138 31.5236 25.7628 31.4727L25.38 31.0898ZM29.2017 31.7292C29.1507 31.6783 29.0903 31.6379 29.0237 31.6103C28.9571 31.5827 28.8858 31.5685 28.8137 31.5685C28.7416 31.5685 28.6703 31.5827 28.6037 31.6103C28.5371 31.6379 28.4767 31.6783 28.4257 31.7292C28.3747 31.7802 28.3343 31.8407 28.3067 31.9073C28.2792 31.9738 28.265 32.0452 28.265 32.1172C28.265 32.1893 28.2792 32.2606 28.3067 32.3272C28.3343 32.3938 28.3747 32.4543 28.4257 32.5052L28.8086 32.8881C28.9115 32.991 29.051 33.0488 29.1966 33.0488C29.3421 33.0488 29.4816 32.991 29.5846 32.8881C29.6875 32.7852 29.7453 32.6456 29.7453 32.5001C29.7453 32.3546 29.6875 32.215 29.5846 32.1121L29.2017 31.7292ZM32.5411 28.3898C32.4902 28.3389 32.4297 28.2984 32.3631 28.2709C32.2965 28.2433 32.2252 28.2291 32.1531 28.2291C32.0811 28.2291 32.0097 28.2433 31.9431 28.2709C31.8766 28.2984 31.8161 28.3389 31.7651 28.3898C31.7142 28.4408 31.6738 28.5012 31.6462 28.5678C31.6186 28.6344 31.6044 28.7058 31.6044 28.7778C31.6044 28.8499 31.6186 28.9212 31.6462 28.9878C31.6738 29.0544 31.7142 29.1149 31.7651 29.1658L32.148 29.5487C32.2509 29.6516 32.3905 29.7094 32.536 29.7094C32.6815 29.7094 32.8211 29.6516 32.924 29.5487C33.0269 29.4458 33.0847 29.3062 33.0847 29.1607C33.0847 29.0151 33.0269 28.8756 32.924 28.7727L32.5411 28.3898ZM29.024 28.2115L28.6411 27.8287C28.5378 27.7273 28.3987 27.6708 28.2539 27.6714C28.1091 27.6721 27.9705 27.7299 27.8682 27.8323C27.7658 27.9346 27.708 28.0733 27.7073 28.218C27.7066 28.3628 27.7632 28.5019 27.8646 28.6052C28.1686 28.8675 28.2874 29.1481 28.636 29.1481C29.12 29.1481 29.3703 28.5578 29.024 28.2115ZM32.2851 24.9504L31.9023 24.5675C31.8513 24.5166 31.7907 24.4762 31.7241 24.4486C31.6575 24.421 31.5862 24.4069 31.5141 24.4069C31.442 24.4069 31.3706 24.4211 31.304 24.4488C31.2374 24.4764 31.1769 24.5168 31.126 24.5678C31.075 24.6188 31.0346 24.6793 31.0071 24.7459C30.9795 24.8125 30.9653 24.8839 30.9654 24.956C30.9654 25.0281 30.9796 25.0995 31.0072 25.1661C31.0348 25.2326 31.0753 25.2931 31.1263 25.3441C31.4303 25.6064 31.5486 25.8869 31.8966 25.8869C32.3811 25.8869 32.6314 25.2972 32.2851 24.9504Z" fill="white"/>
</svg>
