<svg width="40" height="40" viewBox="0 0 40 40" fill="none" xmlns="http://www.w3.org/2000/svg">
<path d="M27.224 14.0697C26.3572 15.8634 25.4943 17.3314 24.6377 18.5183V13.844C24.6377 12.9566 25.1212 12.1412 25.8989 11.7149L29.1577 9.92915C29.9158 9.51269 30.4777 8.81256 30.7202 7.98235C30.9628 7.15214 30.8661 6.25962 30.4515 5.50058L30.2406 5.11544C30.1706 4.98768 30.0527 4.89297 29.9128 4.85214C29.773 4.81131 29.6226 4.82771 29.4949 4.89772C29.3671 4.96774 29.2724 5.08564 29.2316 5.22549C29.1908 5.36534 29.2072 5.51568 29.2772 5.64344L29.488 6.02801C29.7629 6.53149 29.8268 7.1234 29.6659 7.67398C29.5051 8.22455 29.1324 8.68888 28.6297 8.96515L25.3715 10.752C24.3097 11.3343 23.6486 12.4206 23.5703 13.6189C21.0761 12.9817 18.4617 12.9817 15.9675 13.6189C15.8892 12.4212 15.228 11.3337 14.1663 10.752L10.9069 8.9663C10.6576 8.82983 10.4376 8.64557 10.2595 8.42403C10.0815 8.2025 9.94881 7.94804 9.86915 7.67521C9.78949 7.40238 9.76439 7.11652 9.79528 6.83398C9.82617 6.55144 9.91245 6.27776 10.0492 6.02858L11.4949 3.3903C11.6376 3.12924 11.8327 2.90045 12.068 2.71825C12.3032 2.53604 12.5735 2.40435 12.8619 2.3314C13.1504 2.25846 13.4508 2.24583 13.7444 2.29431C14.0379 2.34279 14.3183 2.45133 14.568 2.61315C14.9195 2.78458 16.7166 4.37201 19.7686 4.37201C22.812 4.37201 24.6229 2.7823 24.9697 2.61372C25.2194 2.45191 25.4998 2.34336 25.7934 2.29488C26.087 2.2464 26.3874 2.25903 26.6758 2.33197C26.9643 2.40492 27.2346 2.53662 27.4698 2.71882C27.705 2.90102 27.9001 3.12981 28.0429 3.39087C28.0776 3.45413 28.1243 3.50994 28.1806 3.55512C28.2368 3.60029 28.3014 3.63395 28.3707 3.65417C28.4399 3.67438 28.5124 3.68076 28.5842 3.67294C28.6559 3.66512 28.7253 3.64325 28.7886 3.60858C28.8519 3.57391 28.9077 3.52712 28.9528 3.47088C28.998 3.41465 29.0317 3.35006 29.0519 3.28081C29.0721 3.21157 29.0785 3.13902 29.0707 3.06731C29.0629 2.9956 29.041 2.92613 29.0063 2.86287C28.7904 2.46984 28.496 2.12537 28.1415 1.85082C27.7869 1.57628 27.3797 1.37751 26.9452 1.26687C25.1812 0.821153 24.06 1.95658 23.7337 2.10515C22.5521 2.86821 21.1755 3.27409 19.7689 3.27409C18.3623 3.27409 16.9856 2.86821 15.804 2.10515L15.1652 1.69144C14.7885 1.44797 14.3657 1.28472 13.9232 1.21189C13.4806 1.13905 13.0278 1.15819 12.593 1.2681C12.1581 1.37802 11.7506 1.57635 11.3958 1.85073C11.0411 2.12511 10.7466 2.46965 10.5309 2.86287L9.08517 5.50058C8.87911 5.87633 8.74912 6.28902 8.70265 6.71504C8.65618 7.14106 8.69413 7.57206 8.81433 7.98341C8.93453 8.39475 9.13463 8.77837 9.40319 9.11233C9.67174 9.4463 10.0035 9.72405 10.3795 9.92972L13.6383 11.7154C14.0201 11.9245 14.3386 12.2324 14.5605 12.6069C14.7824 12.9814 14.8995 13.4087 14.8995 13.844V18.5189C14.0423 17.3332 13.1806 15.8663 12.3149 14.0732C10.2275 9.7543 3.6606 11.4103 3.91775 16.1817C3.9246 16.3103 3.93546 16.4406 3.95089 16.5697C4.18764 18.5992 4.48587 20.6211 4.84517 22.6326C4.87094 22.7759 4.9526 22.9032 5.07219 22.9864C5.19179 23.0695 5.33952 23.1018 5.48289 23.076C5.62626 23.0502 5.75352 22.9686 5.83668 22.849C5.91984 22.7294 5.95208 22.5817 5.92632 22.4383C5.57104 20.4488 5.27605 18.449 5.04175 16.4417C5.02928 16.3356 5.02013 16.229 5.01432 16.1223C4.82117 12.5394 9.75717 11.3057 11.3252 14.5514C16.8172 25.9172 22.7149 25.9297 28.2137 14.5486C29.7943 11.2766 34.9583 12.5183 34.496 16.4417C34.0229 20.476 32.7349 28.7 30.8212 32.2669C29.6863 34.3812 26.8549 34.9314 24.9857 33.3932C24.8063 33.2457 23.6772 32.4703 23.4966 32.3652C20.8989 30.8463 18.2875 30.8657 15.5429 32.6829C15.4795 32.7252 14.6457 33.3166 14.5897 33.3623C13.5955 34.1749 12.428 34.4994 11.3023 34.2749C10.2143 34.0589 9.2966 33.3463 8.71832 32.2703C8.67131 32.1831 8.62691 32.0944 8.58517 32.0046C7.81775 30.3532 7.10917 28.068 6.48003 25.2137C6.44866 25.0714 6.36204 24.9474 6.23923 24.869C6.11642 24.7905 5.96748 24.7641 5.82517 24.7954C5.68287 24.8268 5.55885 24.9134 5.48041 25.0362C5.40196 25.159 5.37552 25.308 5.40689 25.4503C6.05317 28.3823 6.78746 30.7434 7.5886 32.4674C7.63946 32.576 7.69374 32.6846 7.75089 32.7897C8.48746 34.1612 9.6726 35.0709 11.088 35.352C11.3835 35.4107 11.684 35.4402 11.9852 35.44C12.9949 35.44 14.0052 35.096 14.8995 34.4789V35.8903C14.9004 36.6256 15.1929 37.3306 15.7129 37.8506C16.2328 38.3706 16.9378 38.6631 17.6732 38.664H21.8646C22.6 38.6631 23.3049 38.3706 23.8249 37.8506C24.3449 37.3306 24.6374 36.6256 24.6383 35.8903V34.4697C27.1732 36.2189 30.6189 35.3269 31.9486 32.4674C34.1515 27.7292 35.5115 18.1263 35.6189 16.1966C35.8875 11.4212 29.312 9.74858 27.2246 14.0709L27.224 14.0697ZM22.58 20.8086C21.628 21.5903 20.6863 21.9857 19.7686 21.9857C18.8503 21.9857 17.9086 21.5903 16.9566 20.8086C16.9423 20.7972 16.928 20.7812 16.9143 20.7686C16.6777 20.572 16.4406 20.3343 16.2035 20.0903C18.5418 19.4876 20.9948 19.4876 23.3332 20.0903C23.1077 20.3285 22.8703 20.5551 22.6217 20.7692C22.6075 20.7806 22.5937 20.7972 22.58 20.8086ZM15.9972 17.5606C18.4659 16.8863 21.0702 16.8863 23.5389 17.5606V19.0137C21.064 18.387 18.472 18.387 15.9972 19.0137V17.56V17.5606ZM23.5389 14.7337V16.4377C21.0641 15.8109 18.472 15.8109 15.9972 16.4377V14.7343C18.4659 14.0601 21.0702 14.0595 23.5389 14.7337ZM23.5389 34.4309C21.064 33.8043 18.472 33.8043 15.9972 34.4309V33.7012C18.612 31.8954 21.012 31.9543 23.5389 33.7V34.4303V34.4309ZM21.864 37.5652H17.6726C17.2284 37.5647 16.8025 37.388 16.4884 37.0739C16.1743 36.7598 15.9976 36.3339 15.9972 35.8897V35.5526C18.4659 34.8783 21.0702 34.8783 23.5389 35.5526V35.8897C23.5386 36.3339 23.362 36.7598 23.048 37.0739C22.734 37.388 22.3082 37.5647 21.864 37.5652Z" fill="white"/>
</svg>
