<svg width="40" height="40" viewBox="0 0 40 40" fill="none" xmlns="http://www.w3.org/2000/svg">
<path d="M14.7504 23.5103H12.4938V21.2543C12.4938 21.105 12.4345 20.9617 12.3289 20.8561C12.2233 20.7505 12.08 20.6912 11.9307 20.6912C11.7813 20.6912 11.6381 20.7505 11.5325 20.8561C11.4269 20.9617 11.3675 21.105 11.3675 21.2543V23.5103H9.11152C8.96209 23.5103 8.81878 23.5697 8.71312 23.6753C8.60746 23.781 8.5481 23.9243 8.5481 24.0737C8.5481 24.2232 8.60746 24.3665 8.71312 24.4721C8.81878 24.5778 8.96209 24.6372 9.11152 24.6372H11.3675V26.8932C11.3675 27.0425 11.4269 27.1858 11.5325 27.2914C11.6381 27.397 11.7813 27.4563 11.9307 27.4563C12.08 27.4563 12.2233 27.397 12.3289 27.2914C12.4345 27.1858 12.4938 27.0425 12.4938 26.8932V24.6372H14.7498C14.8992 24.6372 15.0426 24.5778 15.1482 24.4721C15.2539 24.3665 15.3132 24.2232 15.3132 24.0737C15.3132 23.9243 15.2539 23.781 15.1482 23.6753C15.0426 23.5697 14.8998 23.5103 14.7504 23.5103Z" fill="white"/>
<path d="M18.6297 24.0731C18.6297 20.3794 15.6246 17.3743 11.9303 17.3743C8.23659 17.3743 5.23145 20.38 5.23145 24.0731C5.23145 27.7674 8.23659 30.7726 11.9303 30.7726C15.6246 30.7726 18.6297 27.7674 18.6297 24.0731ZM11.9303 29.6468C8.85773 29.6468 6.35773 27.1468 6.35773 24.0737C6.35773 21.0006 8.85773 18.5011 11.9303 18.5011C15.0034 18.5011 17.5034 21.0006 17.5034 24.0737C17.5034 27.1468 15.0034 29.6468 11.9303 29.6468Z" fill="white"/>
<path d="M34.1041 12.1954C34.0322 12.1737 33.9567 12.1665 33.882 12.1744C33.8073 12.1823 33.735 12.205 33.6692 12.2413C33.6034 12.2775 33.5456 12.3265 33.499 12.3855C33.4525 12.4444 33.4182 12.512 33.3981 12.5844C33.3781 12.6568 33.3727 12.7324 33.3823 12.8069C33.392 12.8814 33.4164 12.9532 33.4541 13.0181C33.4919 13.083 33.5423 13.1397 33.6023 13.1849C33.6623 13.23 33.7307 13.2627 33.8035 13.2811C34.8761 13.5811 35.8213 14.2233 36.4953 15.11C37.1693 15.9967 37.5352 17.0793 37.5372 18.1931V22.7965H31.6418C31.2138 22.4685 31.2652 22.5251 30.7989 22.2537C30.0572 21.8211 30.0806 21.8514 29.4286 21.6251C28.6526 21.3548 28.6063 21.3605 27.9349 21.2674C27.7349 21.2394 27.5441 21.1851 27.3395 21.1731V18.1931C27.3375 16.9953 27.7582 15.8352 28.5276 14.9171C29.2969 13.999 30.3655 13.3818 31.5452 13.1742C31.6181 13.1614 31.6877 13.1343 31.7501 13.0945C31.8125 13.0547 31.8664 13.003 31.9088 12.9424C31.9513 12.8818 31.9813 12.8134 31.9973 12.7412C32.0133 12.6689 32.0149 12.5942 32.0021 12.5214C31.9892 12.4485 31.9621 12.3789 31.9223 12.3165C31.8825 12.2541 31.8309 12.2002 31.7703 12.1577C31.7096 12.1153 31.6412 12.0852 31.569 12.0693C31.4968 12.0533 31.4221 12.0516 31.3492 12.0645C29.9087 12.3181 28.6038 13.0718 27.6643 14.1928C26.7248 15.3139 26.211 16.7304 26.2132 18.1931V21.2239C24.9303 21.3297 23.7343 21.7245 22.6978 22.3731V14.1371C22.6969 13.3606 22.388 12.6161 21.8388 12.0671C21.2897 11.518 20.5452 11.2093 19.7686 11.2085H18.0841V10.1331H19.8452C19.9944 10.1329 20.1375 10.0736 20.243 9.96807C20.3486 9.86254 20.4079 9.71947 20.4081 9.57023V3.23823C20.4081 3.16427 20.3936 3.09102 20.3654 3.02266C20.3371 2.95431 20.2957 2.89219 20.2434 2.83986C20.1911 2.78754 20.1291 2.74603 20.0607 2.7177C19.9924 2.68938 19.9192 2.6748 19.8452 2.6748H4.01663C3.94267 2.67473 3.86942 2.68923 3.80106 2.71749C3.73271 2.74574 3.67059 2.78719 3.61826 2.83946C3.56594 2.89173 3.52443 2.95381 3.4961 3.02213C3.46778 3.09046 3.45321 3.1637 3.45321 3.23766V4.33766C3.45321 4.48709 3.51257 4.6304 3.61823 4.73607C3.72389 4.84173 3.8672 4.90109 4.01663 4.90109C4.16606 4.90109 4.30937 4.84173 4.41504 4.73607C4.5207 4.6304 4.58006 4.48709 4.58006 4.33766V3.80109H7.32463V9.00623H4.58006V7.22338C4.58006 7.07395 4.5207 6.93063 4.41504 6.82497C4.30937 6.71931 4.16606 6.65995 4.01663 6.65995C3.8672 6.65995 3.72389 6.71931 3.61823 6.82497C3.51257 6.93063 3.45321 7.07395 3.45321 7.22338V9.56966C3.45321 9.88052 3.70578 10.1325 4.01663 10.1325H5.77663V11.2079H4.09321C3.31668 11.2087 2.57217 11.5175 2.02303 12.0665C1.47389 12.6155 1.16497 13.36 1.16406 14.1365V34.0108C1.16406 35.6257 2.47835 36.9394 4.09321 36.9394H13.4046C13.5495 36.9328 13.6863 36.8707 13.7865 36.7659C13.8868 36.661 13.9427 36.5216 13.9427 36.3765C13.9427 36.2315 13.8868 36.092 13.7865 35.9872C13.6863 35.8823 13.5495 35.8202 13.4046 35.8137H4.09263C3.61472 35.8131 3.15657 35.6229 2.81869 35.2849C2.48081 34.9469 2.2908 34.4887 2.29035 34.0108V14.1365C2.29095 13.6587 2.48103 13.2006 2.81889 12.8628C3.15676 12.5249 3.61482 12.3348 4.09263 12.3342H19.7686C20.2464 12.3348 20.7045 12.5249 21.0424 12.8628C21.3802 13.2006 21.5703 13.6587 21.5709 14.1365V23.1925C21.5183 23.2405 21.4818 23.3011 21.4303 23.3497C21.2183 23.5514 21.0338 23.7765 20.8452 24.0011C20.3766 24.5588 20.4206 24.4411 19.9349 25.3439C19.6846 25.8114 19.6081 25.7839 19.2818 26.9685C19.2669 27.0222 18.9675 27.7262 18.9675 29.0485C18.9675 30.1034 19.1778 31.1497 19.5989 32.1354C19.6749 32.3142 19.7881 32.4748 19.8772 32.6479C20.4166 33.6885 20.3463 33.4937 20.8092 34.0537C20.9829 34.2628 21.1446 34.4822 21.3383 34.6725C21.3652 34.6988 21.3835 34.7308 21.4103 34.7571C21.2672 35.0722 21.0361 35.3394 20.745 35.5266C20.4538 35.7138 20.1148 35.8131 19.7686 35.8125H15.9743C15.8249 35.8125 15.6816 35.8719 15.5759 35.9775C15.4703 36.0832 15.4109 36.2265 15.4109 36.3759C15.4109 36.5254 15.4703 36.6687 15.5759 36.7743C15.6816 36.88 15.8249 36.9394 15.9743 36.9394H19.7686C20.8395 36.9394 21.7772 36.3497 22.2886 35.4565C25.4121 37.6914 29.5498 37.3571 32.2886 34.7468C35.7846 34.8399 38.6635 32.0079 38.6635 28.5268V18.1931C38.6635 15.4057 36.7892 12.9388 34.1041 12.1954ZM19.2818 9.00566H16.5372V3.80109H19.2818V9.00566ZM12.4938 9.00566V3.80109H15.4109V9.00623L12.4938 9.00566ZM8.45149 3.80109H11.3681V9.00623H8.45149V3.80109ZM6.90406 10.1325H16.9583V11.2074H6.90349L6.90406 10.1325ZM26.8589 22.2851C28.5206 22.2851 30.0246 22.9102 31.2029 23.9079L21.7178 33.3937C17.8995 28.8822 21.3235 22.2851 26.8589 22.2851ZM22.5143 34.1897L31.9989 24.7051C35.8349 29.2365 32.3755 35.8137 26.8583 35.8137C25.1966 35.8137 23.6926 35.1879 22.5143 34.1897ZM33.3441 33.5451C34.1801 32.3445 34.7492 30.6337 34.7492 29.0491C34.7492 27.7017 34.4481 27.0108 34.4446 26.9977C34.1412 25.8799 34.1263 26.0097 33.8675 25.5017C33.5589 24.8948 33.4955 24.7085 32.8195 23.9234H37.5366V28.5268C37.5366 31.0297 35.7252 33.1159 33.3441 33.5451Z" fill="white"/>
</svg>
