<svg width="40" height="40" viewBox="0 0 40 40" fill="none" xmlns="http://www.w3.org/2000/svg">
<path d="M29.3856 34.9389H27.4199C26.8077 34.9417 26.2017 34.8161 25.641 34.5701C25.0804 34.3241 24.5776 33.9633 24.1651 33.5109C23.3536 32.6303 22.9262 31.5183 23.0119 30.1394L23.3548 24.7549C23.5531 24.8749 23.7588 24.9657 23.9605 25.0703C24.4085 25.3006 24.8782 25.5412 25.6439 25.768C25.6954 26.856 26.1788 28.4617 27.8079 28.8377C28.5296 29.0034 28.7554 27.9263 28.0554 27.7646C27.1279 27.5509 26.8536 26.6503 26.7742 26.0217C27.5434 26.1474 28.1594 26.148 28.1668 26.148C28.3127 26.148 28.4527 26.09 28.5559 25.9868C28.6591 25.8836 28.7171 25.7437 28.7171 25.5977C28.7171 25.4518 28.6591 25.3118 28.5559 25.2086C28.4527 25.1054 28.3127 25.0474 28.1668 25.0474H28.1514C25.6599 25.0137 23.2988 23.7309 21.5096 21.8417C21.2986 21.62 21.0447 21.4435 20.7634 21.3229C20.4821 21.2023 20.1792 21.1401 19.8731 21.1401C19.567 21.1401 19.2641 21.2023 18.9827 21.3229C18.7014 21.4435 18.4475 21.62 18.2365 21.8417C15.0011 25.2589 11.6885 25.0234 11.5794 25.0474C11.4333 25.0474 11.2933 25.1055 11.19 25.2087C11.0868 25.312 11.0288 25.452 11.0288 25.598C11.0288 25.744 11.0868 25.8841 11.19 25.9873C11.2933 26.0906 11.4333 26.1486 11.5794 26.1486C11.5965 26.1474 12.1536 26.1554 12.9314 26.032C12.8502 26.6594 12.5742 27.552 11.6514 27.7646C10.9514 27.9263 11.1771 29.0046 11.8994 28.8377C13.5222 28.4634 14.0074 26.8669 14.0622 25.7794C14.5212 25.644 14.9693 25.4742 15.4028 25.2714C15.4102 25.2686 16.3399 24.7869 16.4656 24.7097C16.8696 31.0406 16.8028 30.0343 16.8131 30.1497C17.0256 32.7154 15.0091 34.9383 12.4039 34.9383H10.6542C10.5113 34.9429 10.3757 35.0029 10.2762 35.1057C10.1767 35.2084 10.1211 35.3459 10.1211 35.4889C10.1211 35.6319 10.1767 35.7693 10.2762 35.8721C10.3757 35.9748 10.5113 36.0348 10.6542 36.0394H12.4039C15.6279 36.0394 18.1736 33.2812 17.9102 30.064L17.5205 23.9583C18.0594 23.544 18.566 23.0894 19.0359 22.5983C19.1434 22.4843 19.2732 22.3937 19.4172 22.3321C19.5613 22.2705 19.7164 22.2391 19.8731 22.24C20.6708 22.24 20.6016 22.72 22.2976 24.0229L21.9131 30.064C21.8516 30.8245 21.948 31.5894 22.1961 32.3109C22.4442 33.0323 22.8387 33.6947 23.3548 34.2566C23.8728 34.8181 24.5013 35.2663 25.2009 35.5731C25.9005 35.8799 26.656 36.0387 27.4199 36.0394H29.3856C29.5316 36.0394 29.6716 35.9815 29.7748 35.8783C29.878 35.7751 29.9359 35.6351 29.9359 35.4892C29.9359 35.3432 29.878 35.2033 29.7748 35.1001C29.6716 34.9969 29.5316 34.9389 29.3856 34.9389Z" fill="white"/>
<path d="M38.6262 33.6703C37.4765 25.0852 36.3907 16.9766 31.0616 13.4452C30.3552 12.9771 29.5262 12.7282 28.6787 12.7297C26.4833 12.7297 23.0902 14.396 22.8993 16.6983L22.7776 18.1652C22.3759 17.5823 22.0747 17.1543 22.0747 16.448V4.0686C22.0747 3.92265 22.0168 3.78268 21.9136 3.67949C21.8104 3.57629 21.6704 3.51831 21.5245 3.51831C21.3785 3.51831 21.2385 3.57629 21.1353 3.67949C21.0321 3.78268 20.9742 3.92265 20.9742 4.0686V16.4475C20.9742 17.0532 21.141 17.6435 21.4576 18.156C21.8591 18.7952 22.306 19.4048 22.7947 19.98C23.641 20.948 24.437 21.5532 25.2462 22.0069C25.2845 22.0286 25.3205 22.0623 25.3593 22.0829C25.3816 22.0983 25.5022 22.1572 25.5462 22.168C26.3256 22.5577 27.3279 22.8452 28.1896 22.8452C28.2707 22.8452 28.329 22.7915 28.3987 22.7595C28.4576 22.7326 28.529 22.7326 28.5742 22.6869C28.921 22.3469 28.6867 21.7509 28.1965 21.744C27.933 21.7406 27.6742 21.6846 27.4142 21.6372C27.9182 21.2846 28.429 20.716 28.681 19.784C28.7134 19.645 28.6906 19.4988 28.6174 19.3763C28.5441 19.2538 28.4262 19.1645 28.2884 19.1272C28.1506 19.0899 28.0037 19.1076 27.8787 19.1765C27.7536 19.2454 27.6602 19.3602 27.6182 19.4966C27.2542 20.8429 26.1667 21.0606 25.8702 21.0966C25.0736 20.668 24.3747 20.0806 23.7776 19.424L23.9965 16.7886C24.129 15.184 26.9667 13.8297 28.6782 13.8297C29.3147 13.8297 29.9285 14.0137 30.4536 14.3617C35.3656 17.6177 36.4193 25.4857 37.5347 33.8154L37.553 33.9515C37.5873 34.204 37.513 34.4486 37.345 34.64C37.2638 34.7343 37.1631 34.8097 37.0498 34.8612C36.9365 34.9127 36.8134 34.939 36.689 34.9383H31.8079C31.6619 34.9383 31.5218 34.9963 31.4186 35.0996C31.3153 35.2028 31.2573 35.3429 31.2573 35.4889C31.2573 35.6349 31.3153 35.7749 31.4186 35.8782C31.5218 35.9814 31.6619 36.0395 31.8079 36.0395H36.689C36.9702 36.0395 37.2481 35.9794 37.5042 35.8633C37.7602 35.7471 37.9885 35.5776 38.1737 35.366C38.3589 35.1544 38.4967 34.9057 38.5779 34.6365C38.6591 34.3673 38.6818 34.0839 38.6445 33.8052L38.6262 33.6703ZM9.37017 14.3623C9.89662 14.014 10.5143 13.8291 11.1456 13.8309C12.857 13.8309 15.6942 15.1852 15.8273 16.7892L16.0387 19.3417C15.8479 19.5549 15.6519 19.7275 15.457 19.9126C14.9839 20.3617 15.1896 20.2543 14.325 20.8155C14.1805 20.9097 14.0382 21.0269 13.8919 21.1069C13.6713 21.0869 12.4713 20.9103 12.0885 19.4972C12.0464 19.3608 11.953 19.246 11.828 19.1771C11.703 19.1082 11.5561 19.0905 11.4183 19.1278C11.2805 19.165 11.1625 19.2544 11.0893 19.3769C11.016 19.4994 10.9932 19.6456 11.0256 19.7846C11.2782 20.7177 11.7902 21.2875 12.2953 21.64C12.0473 21.6829 11.801 21.7417 11.5496 21.7452C11.0622 21.7515 10.8239 22.3463 11.1725 22.688C11.2067 22.7217 11.2627 22.7183 11.305 22.7423C11.3919 22.7915 11.4605 22.8475 11.565 22.8457C12.3696 22.8349 13.6776 22.4732 14.3593 22.1115C16.0262 21.2286 17.4005 19.6029 18.2902 18.1572C18.6056 17.6452 18.7719 17.0543 18.7719 16.4503V4.0686C18.7719 3.99633 18.7576 3.92477 18.73 3.85801C18.7023 3.79125 18.6618 3.73058 18.6107 3.67949C18.5596 3.62839 18.4989 3.58785 18.4322 3.5602C18.3654 3.53254 18.2939 3.51831 18.2216 3.51831C18.1493 3.51831 18.0778 3.53254 18.011 3.5602C17.9442 3.58785 17.8836 3.62839 17.8325 3.67949C17.7814 3.73058 17.7409 3.79125 17.7132 3.85801C17.6855 3.92477 17.6713 3.99633 17.6713 4.0686V16.4497C17.6713 17.3372 17.1747 17.8052 17.033 18.0143L16.9245 16.6977C16.7336 14.3955 13.3399 12.7292 11.1456 12.7292C10.2978 12.7273 9.46831 12.9762 8.7616 13.4446C3.10445 17.1932 2.16274 26.4652 1.17931 33.8057C1.14229 34.0843 1.16519 34.3677 1.2465 34.6367C1.3278 34.9057 1.46563 35.1543 1.65076 35.3658C1.83589 35.5773 2.06405 35.7468 2.31997 35.8629C2.57589 35.9791 2.85368 36.0393 3.13474 36.0395H7.49817C7.64419 36.0395 7.78423 35.9814 7.88748 35.8782C7.99073 35.7749 8.04874 35.6349 8.04874 35.4889C8.04874 35.3429 7.99073 35.2028 7.88748 35.0996C7.78423 34.9963 7.64419 34.9383 7.49817 34.9383H3.13474C2.87988 34.9383 2.64674 34.8326 2.47874 34.6412C2.15874 34.2755 2.29131 33.8772 2.28845 33.8154C3.40388 25.4857 4.45817 17.6177 9.37017 14.3617V14.3623Z" fill="white"/>
</svg>
