<svg width="158" height="36" viewBox="0 0 158 36" fill="none" xmlns="http://www.w3.org/2000/svg">
<g clip-path="url(#clip0_31178_259)">
<path fill-rule="evenodd" clip-rule="evenodd" d="M151.528 20.9071C154.985 20.9071 157.655 18.1087 157.689 14.7906C157.449 13.3418 156.939 10.6611 153.153 10.6611C149.013 10.6611 147.641 16.4088 144.268 20.1125C143.997 22.2206 141.992 24.1067 139.483 24.4237C140.098 25.062 141.464 25.4071 143.095 25.4071C146.079 25.4071 149.694 24.5141 151.585 22.6588C149.061 22.6922 147.438 21.0818 147.278 18.8489C148.51 20.3302 149.9 20.9071 151.528 20.9071Z" fill="#17ABDA"/>
<path fill-rule="evenodd" clip-rule="evenodd" d="M65.0803 10.542C66.1363 10.542 66.7428 11.5069 66.6375 12.8951C66.5146 14.5239 65.3208 16.3862 63.2475 17.8543C62.1591 14.79 62.9675 10.542 65.0803 10.542ZM50.9586 32.6582C49.8737 32.6582 49.3005 31.6362 49.3005 30.4763C49.3005 27.3557 51.6055 25.6988 54.4487 24.2773C54.3187 31.0997 52.7229 32.6582 50.9586 32.6582ZM124.975 11.7633C124.975 9.93785 124.866 8.71824 123.663 8.71824C123.116 8.71824 122.849 8.82361 122.368 8.98429C122.793 15.1561 121.389 20.5903 119.677 20.5903C117.431 20.5903 118.552 7.36341 113.792 7.36341C109.405 7.36341 108.773 17.922 108.275 17.922C107.934 17.922 107.885 15.1491 107.901 13.0356C108.088 12.0223 108.184 11.1127 108.184 10.4217C108.184 9.43824 107.782 7.73746 105.537 8.58829C105.616 16.1369 104.093 20.7019 102.38 20.7019C99.8666 20.7019 99.8385 13.8566 99.8385 11.9688C99.8385 10.1266 99.972 7.66371 97.2175 8.54088C96.8049 15.128 95.0696 20.0978 93.975 20.0978C92.3397 20.0978 92.6671 8.72 89.1358 8.72C85.9626 8.72 84.9804 19.4954 84.3186 19.4954C83.1336 19.4954 84.6872 7.36341 80.1035 7.36341C77.6984 7.36341 76.7442 11.4156 75.8015 15.9481C75.6198 16.8279 75.4267 16.8534 75.3951 15.8621C75.3712 15.0158 75.3642 14.1692 75.374 13.3227C76.5327 8.76566 75.1177 7.08156 72.9935 8.29678C73.679 16.7059 69.794 20.8169 66.813 20.8169C65.7334 20.8169 64.8881 20.3612 64.2543 19.6412C67.8295 17.4654 69.4192 14.9638 69.4192 12.5237C69.4192 9.87639 67.8892 8.35122 65.3471 8.35122C61.8009 8.35122 59.8171 11.9802 59.8171 15.063C59.8171 16.7225 60.1279 18.1327 60.644 19.2943C59.4239 19.8721 58.2749 20.3708 57.2066 20.8564C57.1153 17.6831 56.7537 14.35 56.4781 11.2778C54.5926 10.7632 54.0405 11.6641 53.8957 13.3341C53.5595 17.1414 52.1401 19.5068 50.8849 19.5068C49.9386 19.5068 49.3628 18.3645 49.2935 17.1484C48.9424 11.0442 53.9308 9.34605 56.5413 10.2294C57.082 8.88595 56.4877 7.91483 54.1335 7.91483C51.2799 7.91483 49.146 9.63844 47.5818 11.8485C46.5372 13.3227 45.3312 14.3685 43.7275 15.6329C43.7679 15.2676 43.7889 14.905 43.7889 14.5476C43.7889 10.2408 41.4435 8.35122 39.2008 8.35122C37.346 8.35122 36.1786 9.45932 35.5045 11.1522C35.3368 9.45405 34.9953 8.72 34.0017 8.72C33.5733 8.72 32.9835 8.84029 32.348 9.14498C32.6385 10.095 32.7535 12.1971 32.7535 13.5826C32.7535 18.7596 31.2586 21.0794 29.8244 21.0794C28.1812 21.0794 27.9196 14.9401 27.7826 12.55C27.5258 12.4526 27.2533 12.4029 26.9786 12.4034C25.4934 12.4034 25.3003 14.3852 24.9334 16.208C24.5278 18.2249 23.356 20.7651 21.6224 20.7651C20.5761 20.7651 19.9221 19.7615 19.8396 17.9571C19.6693 14.2965 22.7337 9.95981 27.5316 11.3076C28.1592 9.85005 27.1726 8.7402 25.1827 8.7402C21.6777 8.7402 18.7784 11.348 17.5153 14.4335C16.2311 17.2599 13.9857 21.414 9.4169 21.414C6.18931 21.414 3.72012 18.62 3.72012 12.7538C3.72012 7.6962 6.93015 2.89327 10.3526 2.89327C12.7489 2.89327 13.3037 5.23239 13.093 7.42927C14.3307 8.41971 16.3671 7.50127 16.3671 5.02781C16.3671 3.32439 14.975 0.435611 10.4799 0.435611C4.91653 0.435611 0.000976562 5.94624 0.000976562 13.1901C0.000976562 20.204 3.58494 24.3475 8.65586 24.3475C11.8554 24.3475 14.874 22.5343 16.9596 19.1863C17.4828 22.1164 19.4912 23.35 20.9974 23.35C23.4359 23.35 25.0282 21.7827 25.8981 19.6605C26.4414 21.7871 27.5869 23.3571 29.4864 23.3571C30.8268 23.3571 31.8713 22.6845 32.6587 21.6027C32.348 28.9933 31.9521 33.704 36.348 32.7759C35.6704 30.6765 35.4527 26.85 35.4527 23.4177C35.4527 14.019 37.0125 10.9257 38.969 10.9257C40.3849 10.9257 40.844 12.7213 40.844 14.6354C40.844 15.6601 40.7448 16.8376 40.4841 17.9018C38.0781 19.4067 36.1602 20.5947 36.1602 22.1076C36.1602 23.3009 37.0511 23.4124 37.8227 23.4124C39.6704 23.4124 41.8903 21.6133 43.1183 18.2179C44.1909 17.5734 45.268 16.834 46.2959 15.8269C46.2607 16.1711 46.2432 16.5206 46.2432 16.8718C46.2423 20.2435 47.7275 22.278 50.0966 22.278C51.9531 22.278 53.347 20.9697 54.3302 19.0099C54.3934 20.139 54.432 21.1786 54.4469 22.1357C50.6812 23.8655 46.5118 25.6251 46.5118 30.5061C46.5118 33.0323 48.3481 34.935 50.7392 34.935C55.9874 34.935 57.1847 29.4314 57.233 23.0401C58.9402 22.3025 60.2139 21.7362 61.6833 21.0153C62.9385 22.5756 64.644 23.358 66.2109 23.358C69.1707 23.358 71.3959 21.7994 73.1813 18.6367C73.4973 21.0443 74.1267 23.358 75.4144 23.358C77.7624 23.358 78.2364 11.1636 79.9832 11.1636C81.3201 11.1636 80.2211 24.358 83.7515 24.358C86.7755 24.358 87.3416 12.7467 88.8137 12.7467C89.8573 12.7467 89.9363 23.3597 93.2262 23.3597C94.8475 23.3597 96.6039 21.428 97.4835 17.3776C97.8943 20.0723 99.2645 23.3597 101.939 23.3597C103.501 23.3597 104.844 21.7906 105.878 19.707C106.164 21.853 106.776 23.3597 107.956 23.3597C111.032 23.3597 110.929 11.19 113.365 11.19C115.263 11.19 114.675 23.3597 119.196 23.3597C121.348 23.3597 122.367 21.5386 122.973 19.254C123.805 22.6151 125.15 23.3597 126.254 23.3597C126.954 23.3597 127.483 23.1165 128.177 22.2929C124.681 20.7861 124.975 15.3036 124.975 11.7633ZM98.5719 5.93044C99.5805 5.8962 100.284 5.03746 100.287 4.01629C100.292 2.99161 99.5963 2.18995 98.5877 2.22507C97.5791 2.2602 96.7593 3.11717 96.7532 4.1401C96.7488 5.16303 97.5633 5.96381 98.5719 5.93044ZM123.625 6.44937C124.543 6.416 125.291 5.59942 125.293 4.62478C125.298 3.65015 124.556 2.88625 123.639 2.91961C122.72 2.95298 121.974 3.77044 121.969 4.7442C121.964 5.71883 122.706 6.48273 123.625 6.44937ZM157.683 14.5476C157.608 10.6921 155.761 7.43542 152.914 4.83903C150.751 2.87571 148.181 1.38829 145.488 0.264391C145.271 0.173772 145.052 0.0859603 144.833 0.000976562C141.518 3.94868 130.033 6.89541 130.033 15.1693C130.033 18.4049 132.091 21.4298 135.111 22.6432C136.861 23.3009 138.612 23.3369 140.366 22.7512C141.922 22.2437 143.203 21.2849 144.269 20.1127C147.641 16.4091 149.013 10.6622 153.152 10.6622C156.939 10.6622 157.449 13.3429 157.69 14.7908C157.69 14.7864 157.688 14.6863 157.683 14.5476Z" fill="#0070AD"/>
</g>
<defs>
<clipPath id="clip0_31178_259">
<rect width="158" height="36" fill="white"/>
</clipPath>
</defs>
</svg>
