<svg width="155" height="26" viewBox="0 0 155 26" fill="none" xmlns="http://www.w3.org/2000/svg">
<path d="M43.7623 26C47.6426 26 50.9841 24.0581 52.2775 20.1743C52.4931 19.4191 52.1698 18.8797 51.4152 18.8797H50.014C49.3673 18.8797 48.9361 19.2034 48.6127 19.8507C47.4271 22.1162 45.918 22.8714 43.87 22.8714C40.313 22.8714 38.1572 20.3901 38.1572 16.2905C38.1572 12.1909 40.4208 9.70959 43.7623 9.70959C45.8102 9.70959 47.5349 10.5727 48.6127 12.7303C48.9361 13.3776 49.3673 13.7013 50.014 13.7013H51.4152C52.1698 13.7013 52.4931 13.2698 52.2775 12.5146C50.7685 8.3071 47.2115 6.68884 43.6545 6.68884C38.265 6.68884 34.2769 10.6805 34.2769 16.3984C34.3846 22.0083 38.1572 26 43.7623 26ZM140.449 14.5644C140.88 11.4357 143.036 9.49382 145.946 9.49382C148.856 9.49382 151.012 11.5436 151.335 14.5644H140.449ZM146.054 26C149.503 26 152.844 24.3818 154.569 20.8216C155 19.9585 154.569 19.4191 153.814 19.4191H152.413C151.766 19.4191 151.335 19.7428 151.012 20.2822C149.934 22.2241 147.994 23.0872 146.054 23.0872C142.712 23.0872 140.556 20.8216 140.233 17.0457H153.814C154.569 17.0457 155 16.6141 155 15.859C154.892 10.0332 151.12 6.58096 145.838 6.58096C140.664 6.58096 136.46 10.3569 136.46 16.2905C136.568 22.2241 140.664 26 146.054 26ZM124.604 16.722H125.789C126.544 16.722 126.975 16.2905 127.083 15.5353C127.837 10.5727 130.748 9.92536 133.766 10.0332C134.412 10.0332 134.951 9.6017 134.951 8.84652V7.6598C134.951 6.90461 134.628 6.47308 133.874 6.47308C131.071 6.36519 128.7 7.33615 127.298 10.0332C127.191 10.1411 126.975 10.1411 126.975 9.92535L126.759 7.87556C126.652 7.12038 126.328 6.79673 125.574 6.79673H119.969C119.322 6.79673 118.783 7.33615 118.783 7.98345V8.63075C118.783 9.27805 119.322 9.81747 119.969 9.81747H122.232C122.879 9.81747 123.418 10.3569 123.418 11.0042V15.5353C123.418 16.1826 123.957 16.722 124.604 16.722ZM119.645 25.6764H131.179C131.933 25.6764 132.364 25.2448 132.364 24.4897V23.8424C132.364 23.0872 131.933 22.6556 131.179 22.6556H128.269C127.514 22.6556 127.083 22.2241 127.083 21.4689V19.4191C127.083 18.6639 126.652 18.2324 125.897 18.2324H124.604C123.849 18.2324 123.418 18.6639 123.418 19.4191V21.4689C123.418 22.2241 122.987 22.6556 122.232 22.6556H119.645C118.891 22.6556 118.46 23.0872 118.46 23.8424V24.4897C118.46 25.137 118.891 25.6764 119.645 25.6764ZM101.753 14.5644C102.184 11.4357 104.339 9.49382 107.25 9.49382C110.16 9.49382 112.316 11.5436 112.639 14.5644H101.753ZM107.465 26C110.915 26 114.256 24.3818 115.981 20.8216C116.412 19.9585 115.981 19.4191 115.226 19.4191H113.825C113.178 19.4191 112.747 19.7428 112.424 20.2822C111.346 22.2241 109.406 23.0872 107.465 23.0872C104.124 23.0872 101.968 20.8216 101.645 17.0457H115.226C115.981 17.0457 116.412 16.6141 116.412 15.859C116.304 10.0332 112.531 6.58096 107.25 6.58096C102.076 6.58096 97.8721 10.3569 97.8721 16.2905C97.9799 22.2241 101.968 26 107.465 26ZM64.6732 26C70.1705 26 74.1586 21.9004 74.1586 16.2905C74.1586 10.6805 70.1705 6.58096 64.6732 6.58096C59.176 6.58096 55.1878 10.7884 55.1878 16.2905C55.1878 17.5851 55.4034 18.9876 56.0501 20.6058C56.3735 21.361 57.0202 21.4689 57.667 21.0374L58.7449 20.2822C59.2838 19.8507 59.4994 19.4191 59.2838 18.6639C58.9604 17.693 58.9604 16.9378 58.9604 16.1826C58.9604 12.2988 61.3318 9.6017 64.6732 9.6017C68.1225 9.6017 70.386 12.1909 70.386 16.1826C70.386 20.1743 68.1225 22.7635 64.6732 22.7635C63.4876 22.7635 62.4097 22.5477 61.0084 21.5768C60.4695 21.1453 59.9305 21.0374 59.3916 21.4689L58.6371 22.2241C57.9903 22.6556 57.8826 23.4108 58.5293 23.8424C60.4695 25.4606 62.733 26 64.6732 26ZM78.9013 25.6764H80.087C80.7337 25.6764 81.2727 25.137 81.2727 24.4897V15.6432C81.2727 11.8673 83.3207 9.70959 86.3387 9.70959C89.1412 9.70959 90.7581 11.5436 90.7581 14.9959V24.4897C90.7581 25.137 91.297 25.6764 91.9438 25.6764H93.2372C93.8839 25.6764 94.4229 25.137 94.4229 24.4897V14.3486C94.4229 9.38594 91.836 6.58096 87.5244 6.58096C84.6141 6.58096 82.8895 7.76768 81.5961 9.49382C81.4883 9.6017 81.2727 9.6017 81.2727 9.38594V1.40254C81.2727 0.755239 80.7337 0.21582 80.087 0.21582H78.9013C78.2546 0.21582 77.7157 0.755239 77.7157 1.40254V24.5975C77.7157 25.137 78.2546 25.6764 78.9013 25.6764Z" fill="#355146"/>
<path fill-rule="evenodd" clip-rule="evenodd" d="M8.40731 15.5353C9.05405 15.5353 10.4553 15.5353 12.3955 14.6722C14.6591 13.7012 19.0784 12.083 22.312 10.3568C24.5756 9.17012 25.5457 7.55186 25.5457 5.39419C25.5457 2.48133 23.1744 0 20.1563 0H7.76058C3.55683 0 0.107594 3.45228 0.107594 7.65974C-0.000194432 12.083 3.23346 15.5353 8.40731 15.5353Z" fill="#355146"/>
<path fill-rule="evenodd" clip-rule="evenodd" d="M10.4556 20.822C10.4556 18.7722 11.749 16.8303 13.6892 16.0751L17.5696 14.4568C21.5578 12.8386 25.8693 15.7515 25.8693 19.9589C25.8693 23.3033 23.1746 26.0004 19.8332 26.0004H15.6294C12.8269 26.0004 10.4556 23.7348 10.4556 20.822Z" fill="#D9A6E5"/>
<path d="M4.41933 16.5059C1.9402 16.5059 0 18.4478 0 20.9291V21.4685C0 23.9498 1.9402 25.8917 4.41933 25.8917C6.89847 25.8917 8.83866 23.9498 8.83866 21.4685V20.9291C8.94645 18.5557 6.89847 16.5059 4.41933 16.5059Z" fill="#FF7759"/>
</svg>
