<svg width="151" height="38" viewBox="0 0 151 38" fill="none" xmlns="http://www.w3.org/2000/svg">
<g clip-path="url(#clip0_31178_257)">
<path d="M11.2802 3.91542C9.80222 2.16612 8.52952 0.389493 8.26951 0.0204996C8.24214 -0.00683321 8.20107 -0.00683321 8.17371 0.0204996C7.91369 0.389493 6.641 2.16612 5.16302 3.91542C-7.52285 20.0554 7.16103 30.9476 7.16103 30.9476L7.28419 31.0296C7.39366 32.7105 7.66736 35.1295 7.66736 35.1295H8.21476H8.76215C8.76215 35.1295 9.03586 32.7242 9.14534 31.0296L9.2685 30.9339C9.28217 30.9476 23.9661 20.0554 11.2802 3.91542ZM8.21476 30.7015C8.21476 30.7015 7.55789 30.1412 7.37998 29.8543V29.8269L8.17371 12.2519C8.17371 12.1973 8.25582 12.1973 8.25582 12.2519L9.04953 29.8269V29.8543C8.87164 30.1412 8.21476 30.7015 8.21476 30.7015Z" fill="#001E2B"/>
<path d="M35.6946 27.1148L29.5757 12.2062L29.562 12.165H24.8012V13.1672H25.5695C25.8027 13.1672 26.0222 13.2633 26.1869 13.428C26.3515 13.5927 26.4339 13.8124 26.4339 14.0458L26.2967 29.0504C26.2967 29.5171 25.9126 29.9015 25.4461 29.9153L24.6641 29.9289V30.9174H29.3014V29.9289L28.8211 29.9153C28.3547 29.9015 27.9704 29.5171 27.9704 29.0504V14.9106L34.6383 30.9174C34.7342 31.1507 34.9537 31.3017 35.2008 31.3017C35.4477 31.3017 35.6672 31.1507 35.7632 30.9174L42.2801 15.2675L42.3761 29.0504C42.3761 29.5309 41.9919 29.9153 41.5118 29.9289H41.0178V30.9174H46.4508V29.9289H45.7099C45.2435 29.9289 44.8593 29.5309 44.8456 29.0641L44.8045 14.0594C44.8045 13.579 45.1886 13.1946 45.6551 13.1809L46.4508 13.1672V12.165H41.8135L35.6946 27.1148Z" fill="#001E2B"/>
<path d="M78.3595 29.6678C78.2081 29.5166 78.1256 29.3103 78.1256 29.0628V21.6919C78.1256 20.2893 77.713 19.1891 76.8876 18.4053C76.0761 17.6214 74.9481 17.2227 73.5451 17.2227C71.578 17.2227 70.0238 18.0202 68.937 19.588C68.9233 19.6154 68.8821 19.6292 68.8408 19.6292C68.7995 19.6292 68.7721 19.6016 68.7721 19.5605L68.263 17.5939H67.4102L65.2231 18.8453V19.5329H65.7871C66.0484 19.5329 66.2685 19.6016 66.4199 19.7393C66.5712 19.8768 66.6537 20.083 66.6537 20.3717V29.049C66.6537 29.2965 66.5712 29.5028 66.4199 29.6541C66.2685 29.8053 66.0623 29.8879 65.8147 29.8879H65.2644V30.8917H70.2988V29.8879H69.7486C69.501 29.8879 69.2947 29.8053 69.1434 29.6541C68.9921 29.5028 68.9095 29.2965 68.9095 29.049V23.3009C68.9095 22.572 69.0746 21.8432 69.3773 21.128C69.6935 20.4268 70.1612 19.8355 70.7803 19.3817C71.3992 18.9279 72.142 18.7078 72.9949 18.7078C73.9577 18.7078 74.6868 19.0103 75.1406 19.6154C75.5946 20.2206 75.8285 21.0043 75.8285 21.9394V29.0353C75.8285 29.2827 75.7459 29.489 75.5946 29.6403C75.4433 29.7916 75.237 29.8741 74.9894 29.8741H74.4392V30.8779H79.4736V29.8741H78.9234C78.7171 29.9017 78.5244 29.8191 78.3595 29.6678Z" fill="#001E2B"/>
<path d="M124.355 13.2875C122.964 12.5483 121.408 12.165 119.73 12.165H113.182V13.1643H113.823C114.068 13.1643 114.287 13.2602 114.505 13.4792C114.71 13.6845 114.819 13.9173 114.819 14.1636V28.8931C114.819 29.1394 114.71 29.3722 114.505 29.5775C114.3 29.7828 114.068 29.8923 113.823 29.8923H113.182V30.8917H119.73C121.408 30.8917 122.964 30.5084 124.355 29.7692C125.747 29.0299 126.879 27.9348 127.698 26.5386C128.516 25.1423 128.939 23.4586 128.939 21.542C128.939 19.6256 128.516 17.9555 127.698 16.5456C126.866 15.1219 125.747 14.0404 124.355 13.2875ZM126.306 21.5147C126.306 23.2669 125.993 24.7452 125.379 25.9362C124.765 27.1272 123.946 28.0169 122.936 28.592C121.927 29.1669 120.808 29.4544 119.607 29.4544H118.284C118.039 29.4544 117.82 29.3585 117.602 29.1394C117.397 28.9341 117.288 28.7015 117.288 28.455V14.5607C117.288 14.3142 117.384 14.0952 117.602 13.8761C117.807 13.6708 118.039 13.5613 118.284 13.5613H119.607C120.808 13.5613 121.927 13.8488 122.936 14.4237C123.946 14.9986 124.765 15.8885 125.379 17.0793C125.993 18.284 126.306 19.7761 126.306 21.5147Z" fill="#001E2B"/>
<path d="M144.419 22.514C143.813 21.8158 142.644 21.2272 141.27 20.9123C143.168 19.9678 144.144 18.6399 144.144 16.9288C144.144 15.998 143.897 15.1629 143.401 14.4511C142.906 13.7393 142.205 13.1643 141.311 12.7673C140.416 12.3704 139.371 12.165 138.188 12.165H130.776V13.1643H131.367C131.615 13.1643 131.835 13.2602 132.055 13.4792C132.261 13.6845 132.371 13.9173 132.371 14.1636V28.8931C132.371 29.1394 132.261 29.3722 132.055 29.5775C131.849 29.7828 131.615 29.8923 131.367 29.8923H130.721V30.8917H138.767C139.99 30.8917 141.132 30.6863 142.164 30.2756C143.195 29.865 144.02 29.2627 144.612 28.4687C145.216 27.6748 145.519 26.7028 145.519 25.5803C145.506 24.3756 145.148 23.3489 144.419 22.514ZM135.191 29.1531C134.984 28.9478 134.874 28.7151 134.874 28.4687V21.8568H138.698C140.045 21.8568 141.077 22.1991 141.792 22.8835C142.507 23.568 142.865 24.4578 142.865 25.5529C142.865 26.21 142.699 26.8534 142.398 27.442C142.081 28.0444 141.613 28.5235 140.981 28.8931C140.362 29.2627 139.592 29.4544 138.698 29.4544H135.878C135.631 29.4544 135.411 29.3585 135.191 29.1531ZM134.888 20.4469V14.5743C134.888 14.3279 134.984 14.1089 135.204 13.8898C135.411 13.6845 135.644 13.575 135.892 13.575H137.708C139.013 13.575 139.977 13.9036 140.582 14.5332C141.187 15.1766 141.489 15.998 141.489 17.011C141.489 18.0513 141.2 18.8864 140.637 19.516C140.073 20.1321 139.22 20.4469 138.093 20.4469H134.888Z" fill="#001E2B"/>
<path d="M59.1939 18.0958C58.143 17.5228 56.9692 17.2227 55.7 17.2227C54.4307 17.2227 53.2433 17.5092 52.206 18.0958C51.155 18.6687 50.3225 19.5009 49.7083 20.5513C49.0942 21.6018 48.7803 22.8297 48.7803 24.1939C48.7803 25.5581 49.0942 26.7859 49.7083 27.8364C50.3225 28.8869 51.155 29.7191 52.206 30.2921C53.257 30.8649 54.4307 31.1651 55.7 31.1651C56.9692 31.1651 58.1567 30.8786 59.1939 30.2921C60.2449 29.7191 61.0775 28.8869 61.6916 27.8364C62.3057 26.7859 62.6197 25.5581 62.6197 24.1939C62.6197 22.8297 62.3057 21.6018 61.6916 20.5513C61.0775 19.5009 60.2449 18.6687 59.1939 18.0958ZM60.2039 24.1939C60.2039 25.8719 59.7945 27.2361 58.9755 28.2183C58.1704 29.2006 57.0649 29.7054 55.7 29.7054C54.3352 29.7054 53.2296 29.2006 52.4244 28.2183C51.6054 27.2361 51.196 25.8719 51.196 24.1939C51.196 22.5159 51.6054 21.1517 52.4244 20.1694C53.2296 19.1872 54.3352 18.6824 55.7 18.6824C57.0649 18.6824 58.1704 19.1872 58.9755 20.1694C59.7945 21.1517 60.2039 22.5159 60.2039 24.1939Z" fill="#001E2B"/>
<path d="M107.564 18.0958C106.513 17.5228 105.339 17.2227 104.07 17.2227C102.8 17.2227 101.613 17.5092 100.576 18.0958C99.5247 18.6687 98.6921 19.5009 98.078 20.5513C97.4638 21.6018 97.1499 22.8297 97.1499 24.1939C97.1499 25.5581 97.4638 26.7859 98.078 27.8364C98.6921 28.8869 99.5247 29.7191 100.576 30.2921C101.627 30.8649 102.8 31.1651 104.07 31.1651C105.339 31.1651 106.526 30.8786 107.564 30.2921C108.615 29.7191 109.447 28.8869 110.061 27.8364C110.675 26.7859 110.989 25.5581 110.989 24.1939C110.989 22.8297 110.675 21.6018 110.061 20.5513C109.447 19.5009 108.601 18.6687 107.564 18.0958ZM108.574 24.1939C108.574 25.8719 108.164 27.2361 107.345 28.2183C106.54 29.2006 105.434 29.7054 104.07 29.7054C102.705 29.7054 101.599 29.2006 100.794 28.2183C99.9751 27.2361 99.5656 25.8719 99.5656 24.1939C99.5656 22.5022 99.9751 21.1517 100.794 20.1694C101.599 19.1872 102.705 18.6824 104.07 18.6824C105.434 18.6824 106.54 19.1872 107.345 20.1694C108.15 21.1517 108.574 22.5159 108.574 24.1939Z" fill="#001E2B"/>
<path d="M88.0567 17.2227C86.9569 17.2227 85.9536 17.4556 85.0464 17.9216C84.1392 18.3875 83.4245 19.0181 82.9158 19.8266C82.4073 20.6215 82.1462 21.5124 82.1462 22.458C82.1462 23.3077 82.3385 24.0889 82.7371 24.7879C83.122 25.4595 83.6444 26.0213 84.3042 26.4873L82.3385 29.1462C82.0911 29.4751 82.0637 29.9136 82.2423 30.2699C82.4347 30.6399 82.7921 30.8593 83.2045 30.8593H83.7681C83.2182 31.2293 82.7784 31.6679 82.476 32.1886C82.1186 32.7779 81.9399 33.3947 81.9399 34.0251C81.9399 35.2038 82.4623 36.1769 83.4931 36.9032C84.5104 37.6296 85.9398 37.9996 87.7404 37.9996C88.9913 37.9996 90.1871 37.7941 91.273 37.3966C92.3726 36.9992 93.266 36.4098 93.9258 35.6424C94.5994 34.8749 94.9431 33.9429 94.9431 32.8739C94.9431 31.7501 94.5306 30.9551 93.5684 30.1878C92.7438 29.5435 91.4517 29.201 89.8435 29.201H84.3454C84.3317 29.201 84.3178 29.1872 84.3178 29.1872C84.3178 29.1872 84.3041 29.1598 84.3178 29.1462L85.7474 27.2275C86.1323 27.4056 86.4897 27.5152 86.8058 27.5837C87.1356 27.6523 87.5068 27.6796 87.9191 27.6796C89.0738 27.6796 90.1185 27.4467 91.0256 26.9807C91.9328 26.5147 92.6614 25.8843 93.1837 25.0757C93.7059 24.2808 93.967 23.39 93.967 22.4444C93.967 21.4301 93.4723 19.5799 92.1252 18.6343C92.1252 18.6206 92.139 18.6206 92.139 18.6206L95.0942 18.9495V17.5927H90.3658C89.6235 17.3598 88.8539 17.2227 88.0567 17.2227ZM89.706 25.802C89.1837 26.0761 88.6201 26.2269 88.0567 26.2269C87.1357 26.2269 86.3247 25.898 85.6374 25.2539C84.9502 24.6097 84.6066 23.6641 84.6066 22.458C84.6066 21.252 84.9502 20.3063 85.6374 19.6622C86.3247 19.0181 87.1357 18.6891 88.0567 18.6891C88.634 18.6891 89.1837 18.8262 89.706 19.1139C90.2284 19.3881 90.6545 19.8129 90.9982 20.3749C91.328 20.9368 91.5067 21.6357 91.5067 22.458C91.5067 23.294 91.3417 23.9929 90.9982 24.5412C90.6682 25.1031 90.2284 25.528 89.706 25.802ZM85.981 30.8455H89.706C90.737 30.8455 91.3968 31.0511 91.8366 31.4897C92.2765 31.9282 92.4964 32.5175 92.4964 33.2029C92.4964 34.2033 92.0978 35.0257 91.3006 35.6424C90.5032 36.2592 89.4312 36.5744 88.1116 36.5744C86.9569 36.5744 85.9947 36.314 85.2937 35.8205C84.5927 35.3272 84.2354 34.5733 84.2354 33.6141C84.2354 33.011 84.4003 32.449 84.7303 31.9557C85.0601 31.4623 85.4587 31.1059 85.981 30.8455Z" fill="#001E2B"/>
<path d="M148.308 30.6632C148.036 30.5152 147.832 30.2999 147.669 30.0443C147.52 29.7752 147.438 29.4927 147.438 29.1832C147.438 28.8738 147.52 28.5778 147.669 28.3222C147.818 28.0531 148.036 27.8513 148.308 27.7033C148.58 27.5554 148.879 27.4746 149.219 27.4746C149.559 27.4746 149.857 27.5554 150.13 27.7033C150.401 27.8513 150.605 28.0666 150.769 28.3222C150.918 28.5912 151 28.8738 151 29.1832C151 29.4927 150.918 29.7886 150.769 30.0443C150.619 30.3134 150.401 30.5152 150.13 30.6632C149.857 30.8111 149.559 30.8919 149.219 30.8919C148.893 30.8919 148.58 30.8246 148.308 30.6632ZM149.981 30.4748C150.211 30.3537 150.375 30.1654 150.511 29.9501C150.633 29.7214 150.701 29.4658 150.701 29.1832C150.701 28.9007 150.633 28.6451 150.511 28.4164C150.388 28.1877 150.211 28.0128 149.981 27.8917C149.749 27.7705 149.504 27.7033 149.219 27.7033C148.934 27.7033 148.689 27.7705 148.457 27.8917C148.227 28.0128 148.062 28.2011 147.927 28.4164C147.805 28.6451 147.736 28.9007 147.736 29.1832C147.736 29.4658 147.805 29.7214 147.927 29.9501C148.05 30.1788 148.227 30.3537 148.457 30.4748C148.689 30.5959 148.934 30.6632 149.219 30.6632C149.504 30.6632 149.763 30.5959 149.981 30.4748ZM148.484 30.0039V29.8828L148.512 29.8694H148.594C148.62 29.8694 148.647 29.8559 148.661 29.8425C148.689 29.8156 148.689 29.8022 148.689 29.7752V28.524C148.689 28.4971 148.675 28.4703 148.661 28.4567C148.634 28.4298 148.62 28.4298 148.594 28.4298H148.512L148.484 28.4164V28.2953L148.512 28.2819H149.219C149.423 28.2819 149.572 28.3222 149.694 28.4164C149.818 28.5106 149.871 28.6317 149.871 28.7931C149.871 28.9142 149.831 29.0352 149.735 29.116C149.641 29.2102 149.531 29.264 149.396 29.2774L149.559 29.3313L149.871 29.829C149.898 29.8694 149.926 29.8828 149.967 29.8828H150.048L150.062 29.8964V30.0173L150.048 30.0309H149.627L149.6 30.0173L149.164 29.2908H149.056V29.7752C149.056 29.8022 149.069 29.829 149.083 29.8425C149.111 29.8694 149.124 29.8694 149.15 29.8694H149.233L149.26 29.8828V30.0039L149.233 30.0173H148.512L148.484 30.0039ZM149.178 29.116C149.287 29.116 149.382 29.0891 149.437 29.0218C149.49 28.968 149.531 28.8738 149.531 28.7662C149.531 28.6585 149.504 28.5778 149.45 28.5106C149.396 28.4433 149.313 28.4164 149.219 28.4164H149.164C149.137 28.4164 149.111 28.4298 149.097 28.4433C149.069 28.4701 149.069 28.4837 149.069 28.5106V29.116H149.178Z" fill="#001E2B"/>
</g>
<defs>
<clipPath id="clip0_31178_257">
<rect width="151" height="38" fill="white"/>
</clipPath>
</defs>
</svg>
