<svg width="180" height="34" viewBox="0 0 180 34" fill="none" xmlns="http://www.w3.org/2000/svg">
<g clip-path="url(#clip0_31178_249)">
<path fill-rule="evenodd" clip-rule="evenodd" d="M17.1124 0C26.5247 0 34.2327 7.62434 34.2327 16.9804C34.2327 26.3365 26.5168 34 17.1124 34C7.70809 34 0 26.3678 0 16.9804C0 7.59299 7.67653 0 17.1124 0ZM14.7456 31.6884L22.0434 19.0961H17.1045L19.5582 14.8726H31.1558L28.6943 19.1118L24.5049 19.0961L17.1045 31.8765C25.3412 31.8765 32.0947 25.1689 32.0947 16.9726C32.0947 8.77622 25.3491 2.13137 17.1124 2.13137C16.5128 2.13137 15.9053 2.17055 15.3452 2.24107L7.98422 14.8804H17.1124L14.6351 19.1039H3.06114L12.5049 2.86011C6.4931 4.79558 2.13018 10.4139 2.13018 16.9804C2.13018 24.3775 7.60552 30.5522 14.7456 31.6884Z" fill="#004C88"/>
<path d="M42.998 25.5293H53.1598L53.7515 22.8416H47.0138L50.0908 8.4784H46.6509L43.0138 25.5293H42.998ZM55.4478 11.1661H60.2919L57.1677 25.5293H60.7574L63.8817 11.1661H68.7259L69.2939 8.4784H56.0395L55.4478 11.1661ZM67.4793 25.5293H71.0691L74.6825 8.4784H71.0927L67.4793 25.5293ZM74.6588 25.5293H77.933L81.0809 11.409H81.1282L82.5089 25.5293H85.8067L93.5779 11.409H93.6253L90.3748 25.5293H94.0119L97.6805 8.4784H91.9527L85.1913 20.7651H85.144L83.9921 8.4784H78.3117L74.6746 25.5293H74.6588ZM97.6332 25.5293H100.931L103.637 12.9449H100.339L97.6332 25.5293ZM100.852 10.6489H104.15L104.836 7.52242H101.538L100.852 10.6489ZM104.466 25.5293H107.763L109.12 19.2058C109.538 17.3251 110.375 15.2016 112.663 15.2016C113.72 15.2016 114.462 15.9068 114.462 16.9569C114.462 17.8815 114.264 18.7434 114.091 19.5976L112.86 25.5372H116.158L117.483 19.433C117.657 18.6494 117.901 17.6464 117.901 16.6983C117.901 14.2064 116.252 12.6706 113.767 12.6706C112.339 12.6706 111.085 13.3523 110.178 14.1829H110.13L110.351 12.9605H107.132C107.085 13.3523 106.959 14.0106 106.817 14.7706L104.481 25.545L104.466 25.5293ZM131.866 7.20898L130.264 14.4415C129.231 13.2661 127.976 12.6549 126.351 12.6549C122.043 12.6549 119.984 16.8315 119.984 20.5927C119.984 23.3274 121.341 25.8193 124.339 25.8193C126.256 25.8193 127.487 25.0357 128.473 23.6722H128.521L128.205 25.5293H131.282C131.353 24.8946 131.55 23.8211 131.748 22.7476L135.164 7.20898H131.866ZM126.895 15.1938C128.568 15.1938 129.278 16.7061 129.278 18.1714C129.278 20.4908 127.85 23.2804 125.444 23.2804C123.819 23.2804 123.424 21.5722 123.424 20.3028C123.424 18.4222 124.529 15.1938 126.895 15.1938ZM135.306 15.3427H137.688L136.757 19.5897C136.537 20.5927 136.339 21.5409 136.339 22.5203C136.339 24.9416 137.917 25.8193 140.15 25.8193C140.718 25.8193 141.357 25.6469 141.917 25.5293L142.485 22.9905C142.067 23.1629 141.475 23.2804 140.884 23.2804C140.142 23.2804 139.629 22.8181 139.629 22.058C139.629 21.5722 139.7 21.1334 139.779 20.8356L140.986 15.3427H143.937L144.458 12.9449H141.507L142.32 9.20714L138.777 10.3512L138.209 12.937H135.826L135.306 15.3348V15.3427ZM144.087 25.5293H147.385L148.568 19.8875C148.986 17.858 150.114 15.7815 152.458 15.7815C152.876 15.7815 153.341 15.852 153.712 15.9774L154.398 12.7803C154.004 12.6863 153.562 12.6549 153.144 12.6549C151.621 12.6549 149.996 13.9479 149.404 15.3191H149.357L149.799 12.9527H146.651C146.556 13.5404 146.454 14.0967 146.359 14.6374L144.095 25.5372L144.087 25.5293ZM166.004 20.2558C166.201 19.3311 166.32 18.3987 166.32 17.4505C166.32 14.2535 164.252 12.6628 161.128 12.6628C156.97 12.6628 153.925 16.424 153.925 20.3341C153.925 24.2442 156.387 25.8271 160.024 25.8271C161.381 25.8271 162.777 25.5137 164.055 25.1219L164.473 22.536C163.243 23.1002 161.941 23.4371 160.584 23.4371C158.32 23.4371 157.065 22.583 157.065 20.2636H165.996L166.004 20.2558ZM157.515 18.0069C158.154 16.2751 159.038 15.0527 161.081 15.0527C162.462 15.0527 163.172 15.8128 163.172 17.1528C163.172 17.4427 163.148 17.7169 163.101 18.0069H157.515ZM179.677 20.2558C179.874 19.3311 179.992 18.3987 179.992 17.4505C179.992 14.2535 177.925 12.6628 174.801 12.6628C170.643 12.6628 167.598 16.424 167.598 20.3341C167.598 24.2442 170.059 25.8271 173.696 25.8271C175.053 25.8271 176.45 25.5137 177.728 25.1219L178.146 22.536C176.915 23.1002 175.613 23.4371 174.256 23.4371C171.992 23.4371 170.738 22.583 170.738 20.2636H179.669L179.677 20.2558ZM171.187 18.0069C171.826 16.2751 172.71 15.0527 174.753 15.0527C176.134 15.0527 176.844 15.8128 176.844 17.1528C176.844 17.4427 176.821 17.7169 176.773 18.0069H171.187Z" fill="#004C88"/>
</g>
<defs>
<clipPath id="clip0_31178_249">
<rect width="180" height="34" fill="white"/>
</clipPath>
</defs>
</svg>
