<svg width="192" height="34" viewBox="0 0 192 34" fill="none" xmlns="http://www.w3.org/2000/svg">
<g clip-path="url(#clip0_31178_247)">
<mask id="mask0_31178_247" style="mask-type:luminance" maskUnits="userSpaceOnUse" x="0" y="0" width="192" height="34">
<path d="M192 0H0V34H192V0Z" fill="white"/>
</mask>
<g mask="url(#mask0_31178_247)">
<path d="M24.4479 33.5927C33.7766 33.5927 41.339 26.1388 41.339 16.9438C41.339 7.74888 33.7766 0.294922 24.4479 0.294922C15.1191 0.294922 7.55664 7.74888 7.55664 16.9438C7.55664 26.1388 15.1191 33.5927 24.4479 33.5927Z" fill="#D3DDF4"/>
<path d="M16.8912 33.5927C26.22 33.5927 33.7824 26.1388 33.7824 16.9438C33.7824 7.74888 26.22 0.294922 16.8912 0.294922C7.56243 0.294922 0 7.74888 0 16.9438C0 26.1388 7.56243 33.5927 16.8912 33.5927Z" fill="#1653F1"/>
<path d="M14.0514 10.2842V17.2609L9.51611 16.3095L15.3473 20.4321L12.7556 22.9691L19.2347 19.7979L20.2066 23.6033L20.6735 17.2609L24.742 17.8951L18.5868 14.0896L21.5024 10.9184L15.3473 14.0896L14.0514 10.2842Z" fill="white" stroke="white"/>
<path d="M62.8314 10.4418C61.0694 8.7049 58.7693 7.82422 56.4692 7.82422C50.4251 7.82422 47.415 12.2766 47.415 17.0959C47.415 21.5973 50.0333 25.8295 56.4692 25.8295C59.4788 25.8295 61.608 24.6797 63.2964 22.747V15.5303H55.9552V18.417H60.3354V21.4505C58.9893 22.5269 57.8149 22.8205 56.4692 22.8205C52.2112 22.8205 50.5718 19.9093 50.5718 17.0959C50.5718 13.5731 52.7984 10.7843 56.4692 10.7843C57.9617 10.7843 59.6746 11.3959 60.8249 12.4968L62.8314 10.4418ZM65.7071 13.3775V25.4381H68.6926V19.0775C68.6926 16.8513 70.1365 16.0196 71.7022 16.0196C72.6811 16.0196 73.2442 16.2886 73.8559 16.8024L75.2017 14.2092C74.5408 13.5487 73.3419 13.0594 72.0939 13.0594C70.8705 13.0594 69.6225 13.2796 68.6926 14.7719L68.4722 13.3775H65.7071ZM81.994 13.1328C78.1523 13.1328 75.7544 15.9706 75.7544 19.42C75.7544 22.8938 78.1032 25.7071 82.0185 25.7071C85.9339 25.7071 88.3076 22.8938 88.3076 19.42C88.3076 15.9706 85.8361 13.1328 81.994 13.1328ZM82.0185 15.8483C84.025 15.8483 85.2976 17.6097 85.2976 19.42C85.2976 21.2548 84.1964 22.9672 82.0185 22.9672C79.8407 22.9672 78.7394 21.2548 78.7394 19.42C78.7394 17.6097 79.8652 15.8483 82.0185 15.8483ZM98.3088 13.353L95.6906 22.429L92.9255 13.353H89.5973L93.8308 25.487H97.3058L98.5538 21.9153L99.6304 17.8788L100.707 21.9153L101.955 25.487H105.43L109.639 13.353H106.335L103.57 22.429L100.927 13.353H98.3088ZM113.385 10.295V13.4019H111.134V15.9706H113.385V21.1814C113.385 24.1904 115.098 25.6827 117.716 25.5848C118.622 25.5604 119.332 25.4136 120.188 25.0711L119.356 22.5269C118.916 22.747 118.377 22.8938 117.912 22.8938C116.982 22.8938 116.346 22.3312 116.346 21.1814V15.9706H119.699V13.4019H116.371V9.97702L113.385 10.295ZM121.936 8.31347V25.4381H124.921V19.2732C124.921 17.4629 126.145 15.9706 127.906 15.9706C129.497 15.9706 130.647 16.9002 130.647 19.102V25.4381H133.632V19.0775C133.632 15.5303 132.115 13.2062 128.689 13.2062C127.319 13.2062 125.998 13.6221 124.921 15.0165V8.31347H121.936ZM136.374 8.31347V25.4381H148.413V22.4535H139.604V8.31347H136.374ZM156.146 13.1328C152.303 13.1328 149.906 15.9706 149.906 19.42C149.906 22.8938 152.255 25.7071 156.17 25.7071C160.085 25.7071 162.459 22.8938 162.459 19.42C162.459 15.9706 159.987 13.1328 156.146 13.1328ZM156.17 15.8483C158.177 15.8483 159.449 17.6097 159.449 19.42C159.449 21.2548 158.348 22.9672 156.17 22.9672C153.992 22.9672 152.891 21.2548 152.891 19.42C152.891 17.6097 154.016 15.8483 156.17 15.8483ZM170.197 13.1328C166.355 13.1328 163.957 15.9706 163.957 19.42C163.957 22.8938 166.306 25.7071 170.221 25.7071C174.136 25.7071 176.51 22.8938 176.51 19.42C176.51 15.9706 174.039 13.1328 170.197 13.1328ZM170.221 15.8483C172.228 15.8483 173.5 17.6097 173.5 19.42C173.5 21.2548 172.399 22.9672 170.221 22.9672C168.044 22.9672 166.942 21.2548 166.942 19.42C166.942 17.6097 168.068 15.8483 170.221 15.8483ZM185.251 22.8449C183.22 22.8449 181.825 21.3037 181.825 19.42C181.825 17.5363 183.098 15.9951 185.251 15.9951C187.405 15.9951 188.677 17.5363 188.677 19.42C188.677 21.3037 187.282 22.8449 185.251 22.8449ZM181.556 30.4776V24.0191C182.413 25.3402 184.297 25.7316 185.569 25.7316C189.436 25.7316 191.663 22.9428 191.663 19.42C191.663 15.8728 189.191 13.1083 185.472 13.1083C184.101 13.1083 182.486 13.6955 181.556 15.041L181.36 13.3775H178.571V30.4776H181.556Z" fill="black"/>
</g>
</g>
<defs>
<clipPath id="clip0_31178_247">
<rect width="192" height="34" fill="white"/>
</clipPath>
</defs>
</svg>
