<svg width="167" height="32" viewBox="0 0 167 32" fill="none" xmlns="http://www.w3.org/2000/svg">
<path d="M36.8408 11.0282L29.4727 6.7023V0.655273L41.974 7.99427V22.6932L36.8408 19.6797V11.0282Z" fill="#131313"/>
<path d="M5.13374 20.9711L12.5018 25.2966V31.3446L0 24.0055V9.30664L5.13374 12.3202V20.9711Z" fill="#131313"/>
<path d="M28.3552 8.65137L8.46826 20.3262L13.6188 23.3498L33.5059 11.6752L28.3552 8.65137Z" fill="#131313"/>
<path d="M34.6062 19.6794L14.7363 31.3444V25.2969L34.6062 13.6328V19.6794Z" fill="#131313"/>
<path d="M28.3555 31.9999L23.2046 28.9763L35.7236 21.627L40.8749 24.6509L28.3555 31.9999Z" fill="#131313"/>
<path d="M27.2384 0.655273L7.36865 12.3201V18.3668L27.2384 6.70228V0.655273Z" fill="#131313"/>
<path d="M6.2507 10.373L18.7697 3.02355L13.6191 0L1.1001 7.34902L6.2507 10.373Z" fill="#131313"/>
<path d="M155.086 11.1522H158.261V12.9517C158.677 12.2973 159.229 11.7702 159.917 11.3703C160.622 10.9522 161.446 10.7432 162.386 10.7432C163.327 10.7432 164.141 10.9431 164.829 11.343C165.535 11.7247 166.068 12.2973 166.43 13.0608C166.81 13.8061 167 14.7149 167 15.7874V25.0852H163.743V16.0601C163.743 15.2603 163.553 14.6241 163.173 14.1514C162.812 13.6607 162.233 13.4153 161.437 13.4153C160.894 13.4153 160.387 13.5516 159.917 13.8242C159.446 14.0969 159.066 14.5332 158.777 15.133C158.487 15.7147 158.343 16.4418 158.343 17.3143V25.0852H155.086V11.1522Z" fill="#131313"/>
<path d="M145.135 25.4942C143.796 25.4942 142.584 25.1852 141.498 24.5671C140.413 23.9309 139.562 23.0493 138.947 21.9223C138.332 20.7953 138.024 19.5229 138.024 18.105C138.024 16.7054 138.332 15.442 138.947 14.315C139.562 13.188 140.413 12.3155 141.498 11.6975C142.584 11.0613 143.796 10.7432 145.135 10.7432C146.456 10.7432 147.659 11.0613 148.744 11.6975C149.83 12.3155 150.68 13.188 151.296 14.315C151.911 15.442 152.218 16.7054 152.218 18.105C152.218 19.5229 151.911 20.7953 151.296 21.9223C150.68 23.0493 149.83 23.9309 148.744 24.5671C147.659 25.1852 146.456 25.4942 145.135 25.4942ZM145.135 22.8494C145.895 22.8494 146.555 22.6676 147.116 22.304C147.677 21.9404 148.111 21.4041 148.419 20.6953C148.744 19.9681 148.907 19.1048 148.907 18.105C148.907 17.1235 148.744 16.2782 148.419 15.5693C148.111 14.8604 147.677 14.3241 147.116 13.9606C146.555 13.5789 145.895 13.388 145.135 13.388C144.375 13.388 143.706 13.5789 143.127 13.9606C142.566 14.3241 142.122 14.8604 141.797 15.5693C141.489 16.2782 141.335 17.1235 141.335 18.105C141.335 19.1048 141.489 19.9681 141.797 20.6953C142.122 21.4041 142.566 21.9404 143.127 22.304C143.706 22.6676 144.375 22.8494 145.135 22.8494Z" fill="#131313"/>
<path d="M128.352 30.8112C126.525 30.8112 125.087 30.4476 124.037 29.7205C123.006 28.9934 122.391 27.9301 122.192 26.5304H125.557C125.702 27.1303 126.009 27.5756 126.48 27.8664C126.968 28.1573 127.629 28.3027 128.461 28.3027C129.601 28.3027 130.46 28.0119 131.039 27.4302C131.618 26.8485 131.908 26.0032 131.908 24.8944V22.5495C131.546 23.2039 131.003 23.7311 130.279 24.131C129.574 24.5309 128.732 24.7308 127.755 24.7308C126.616 24.7308 125.575 24.4672 124.634 23.9401C123.694 23.3948 122.952 22.595 122.409 21.5407C121.866 20.4864 121.595 19.223 121.595 17.7507C121.595 16.2965 121.866 15.0422 122.409 13.9879C122.952 12.9336 123.694 12.1338 124.634 11.5885C125.575 11.0432 126.616 10.7705 127.755 10.7705C128.696 10.7705 129.538 10.9795 130.279 11.3976C131.021 11.7975 131.564 12.3156 131.908 12.9518V11.1522H135.137V24.7581C135.137 25.9214 134.893 26.9576 134.404 27.8664C133.934 28.7753 133.192 29.4933 132.179 30.0205C131.166 30.5476 129.89 30.8112 128.352 30.8112ZM128.407 22.2223C129.112 22.2223 129.727 22.0315 130.252 21.6497C130.795 21.268 131.211 20.7409 131.501 20.0683C131.808 19.3776 131.962 18.605 131.962 17.7507C131.962 16.8781 131.808 16.1056 131.501 15.433C131.211 14.7605 130.795 14.2333 130.252 13.8516C129.727 13.4699 129.112 13.279 128.407 13.279C127.683 13.279 127.059 13.4608 126.534 13.8243C126.009 14.1879 125.611 14.7059 125.34 15.3785C125.069 16.0329 124.933 16.8236 124.933 17.7507C124.933 19.1503 125.231 20.2501 125.828 21.0499C126.426 21.8315 127.285 22.2223 128.407 22.2223Z" fill="#131313"/>
<path d="M111.213 25.4669C109.82 25.4669 108.644 25.1034 107.685 24.3763C106.744 23.631 106.273 22.5858 106.273 21.2407C106.273 20.2045 106.554 19.3956 107.115 18.814C107.694 18.2141 108.363 17.796 109.123 17.5597C109.883 17.3234 110.77 17.1326 111.783 16.9871L112.787 16.8781C113.493 16.7872 114.036 16.6781 114.415 16.5509C114.813 16.4236 115.103 16.2419 115.284 16.0055C115.483 15.7692 115.582 15.433 115.582 14.9967C115.582 14.415 115.365 13.9606 114.931 13.6334C114.515 13.288 113.918 13.1153 113.14 13.1153C112.38 13.1153 111.765 13.2698 111.294 13.5789C110.824 13.8697 110.534 14.2605 110.426 14.7513H106.871C107.033 13.9697 107.377 13.2789 107.902 12.6791C108.445 12.0792 109.159 11.6066 110.046 11.2612C110.932 10.9158 111.973 10.7432 113.167 10.7432C114.434 10.7432 115.483 10.9158 116.315 11.2612C117.147 11.5884 117.763 12.0792 118.161 12.7336C118.577 13.388 118.785 14.1787 118.785 15.1058V21.7315C118.785 22.2768 118.83 22.8494 118.921 23.4492C119.011 24.0309 119.12 24.5762 119.246 25.0852H116.017C115.872 24.4308 115.772 23.8219 115.718 23.2584C115.338 23.8764 114.759 24.4035 113.981 24.8398C113.221 25.2579 112.298 25.4669 111.213 25.4669ZM112.108 22.9584C112.796 22.9584 113.402 22.8039 113.927 22.4949C114.452 22.1859 114.859 21.7587 115.148 21.2134C115.438 20.6499 115.582 20.0319 115.582 19.3593V17.8597C115.347 18.1687 115.022 18.4141 114.605 18.5958C114.207 18.7594 113.601 18.9049 112.787 19.0321C111.701 19.2139 110.914 19.4411 110.426 19.7138C109.937 19.9864 109.693 20.459 109.693 21.1316C109.693 21.7133 109.919 22.1677 110.371 22.4949C110.824 22.8039 111.403 22.9584 112.108 22.9584Z" fill="#131313"/>
<path d="M98.2235 25.4943C96.9027 25.4943 95.7176 25.1943 94.6682 24.5945C93.6188 23.9946 92.7956 23.1494 92.1985 22.0587C91.6196 20.9499 91.3301 19.6411 91.3301 18.1324C91.3301 16.6782 91.6286 15.3967 92.2257 14.2879C92.8227 13.1608 93.646 12.2974 94.6954 11.6976C95.7628 11.0795 96.966 10.7705 98.3049 10.7705C99.4628 10.7705 100.485 10.9886 101.372 11.4249C102.276 11.843 102.991 12.4156 103.516 13.1427C104.058 13.8698 104.402 14.6787 104.547 15.5694H101.317C101.1 14.915 100.738 14.3969 100.232 14.0152C99.7433 13.6335 99.1191 13.4426 98.3592 13.4426C97.6535 13.4426 97.0293 13.6244 96.4866 13.9879C95.9438 14.3515 95.5095 14.8877 95.1839 15.5966C94.8763 16.3056 94.7225 17.1508 94.7225 18.1324C94.7225 19.1322 94.8763 19.9865 95.1839 20.6954C95.5095 21.386 95.9347 21.9133 96.4594 22.2769C97.0022 22.6222 97.6174 22.7949 98.3049 22.7949C99.101 22.7949 99.7433 22.6041 100.232 22.2223C100.738 21.8406 101.109 21.3316 101.344 20.6954H104.547C104.42 21.5678 104.086 22.3768 103.543 23.1221C103 23.8492 102.267 24.4309 101.344 24.8672C100.44 25.2852 99.3995 25.4943 98.2235 25.4943Z" fill="#131313"/>
<path d="M82.6741 25.4942C81.2086 25.4942 79.9331 25.1943 78.8475 24.5944C77.7619 23.9764 76.9206 23.1129 76.3235 22.0041C75.7446 20.8953 75.4551 19.6047 75.4551 18.1323C75.4551 16.7145 75.7717 15.442 76.405 14.315C77.0382 13.188 77.8886 12.3155 78.9561 11.6975C80.0235 11.0613 81.1815 10.7432 82.4299 10.7432C83.823 10.7432 85.0353 11.0704 86.0666 11.7247C87.1159 12.3791 87.9301 13.3335 88.5091 14.5877C89.0881 15.8238 89.3866 17.3143 89.4047 19.0594H77.3277V16.6599H87.3964L86.2565 17.6961C86.2384 16.3873 85.9037 15.333 85.2524 14.5332C84.601 13.7334 83.6964 13.3335 82.5384 13.3335C81.8328 13.3335 81.1905 13.5152 80.6115 13.8788C80.0507 14.2242 79.5983 14.7149 79.2546 15.3512C78.9289 15.9692 78.7661 16.6508 78.7661 17.3961V18.6776C78.7661 19.4956 78.938 20.2318 79.2817 20.8862C79.6255 21.5224 80.0869 22.0223 80.6658 22.3858C81.2629 22.7494 81.9504 22.9312 82.7284 22.9312C83.4521 22.9312 84.0492 22.7948 84.5196 22.5222C85.0081 22.2495 85.37 21.886 85.6052 21.4315H89.0247C88.6629 22.6676 87.9211 23.6583 86.7993 24.4035C85.6956 25.1306 84.3206 25.4942 82.6741 25.4942Z" fill="#131313"/>
<path d="M57.1719 5.99902H63.4139C65.3137 5.99902 67.0234 6.39893 68.5432 7.19874C70.0631 7.99855 71.2481 9.12555 72.0985 10.5798C72.967 12.0158 73.4012 13.6699 73.4012 15.5422C73.4012 17.4145 72.967 19.0777 72.0985 20.5319C71.2481 21.9679 70.0631 23.0859 68.5432 23.8857C67.0234 24.6855 65.3137 25.0854 63.4139 25.0854H57.1719V5.99902ZM63.1425 22.1679C64.5719 22.1679 65.7931 21.9134 66.8063 21.4044C67.8376 20.8773 68.6156 20.1229 69.1403 19.1413C69.6831 18.1416 69.9545 16.9419 69.9545 15.5422C69.9545 14.1425 69.6831 12.9519 69.1403 11.9703C68.6156 10.9706 67.8376 10.2162 66.8063 9.70723C65.7931 9.18008 64.5719 8.91651 63.1425 8.91651H60.5914V22.1679H63.1425Z" fill="#131313"/>
</svg>
