<svg width="190" height="34" viewBox="0 0 190 34" fill="none" xmlns="http://www.w3.org/2000/svg">
<g clip-path="url(#clip0_31178_253)">
<mask id="mask0_31178_253" style="mask-type:luminance" maskUnits="userSpaceOnUse" x="45" y="2" width="146" height="32">
<path d="M45.7607 2.08594H190.077V33.6132H45.7607V2.08594Z" fill="white"/>
</mask>
<g mask="url(#mask0_31178_253)">
<mask id="mask1_31178_253" style="mask-type:luminance" maskUnits="userSpaceOnUse" x="45" y="2" width="146" height="32">
<path d="M45.7607 2.08594H190.077V33.6132H45.7607V2.08594Z" fill="white"/>
</mask>
<g mask="url(#mask1_31178_253)">
<path d="M122.673 8.26776H125.533V25.345H122.673V8.26776ZM112.238 7.88139C110.383 7.88139 108.682 8.49957 107.291 9.65866V8.26776H104.431V25.345H107.291V15.6859C107.291 12.9041 109.532 10.7405 112.238 10.7405C114.943 10.7405 117.185 12.9814 117.185 15.6859V25.345H120.045V15.6859C120.045 11.3587 116.567 7.88139 112.238 7.88139ZM98.7105 8.19048H101.571V24.6496C101.493 29.5178 97.551 33.4587 92.6812 33.5359C88.8163 33.6132 85.2606 31.0632 84.1784 27.3541H87.2703C88.2752 29.4405 90.3623 30.7541 92.6812 30.6768C96.0051 30.5996 98.6332 27.895 98.7878 24.5723V23.1814C95.1548 26.5041 89.512 26.3496 86.1881 22.7178C82.8643 19.0859 83.0189 13.445 86.6519 10.1223C90.0531 6.95412 95.3867 6.95412 98.7878 10.1223L98.7105 8.19048ZM98.7105 16.7678C98.7105 13.445 96.0051 10.6632 92.6812 10.6632C89.3574 10.6632 86.5746 13.3678 86.5746 16.6905C86.5746 20.0132 89.2801 22.795 92.6812 22.795C96.0051 22.795 98.7105 20.0905 98.7105 16.7678ZM54.6503 10.6632C56.9693 10.6632 59.1336 12.0541 60.1385 14.1405H63.1532C61.7618 9.42685 56.7374 6.7223 52.0222 8.19048C47.3069 9.58139 44.6015 14.6041 46.0702 19.3178C47.5388 24.0314 52.4859 26.7359 57.2012 25.2678C60.0612 24.4178 62.3029 22.1768 63.1532 19.3178H60.1385C58.7471 22.3314 55.1141 23.645 52.0995 22.2541C49.0848 20.8632 47.7707 17.2314 49.1621 14.2178C50.167 12.0541 52.2541 10.6632 54.6503 10.6632ZM82.4005 16.7678C82.4005 21.7132 78.381 25.6541 73.5112 25.6541C68.5641 25.6541 64.6218 21.6359 64.6218 16.7678C64.6218 11.8996 68.4868 7.88139 73.4339 7.88139C78.381 7.88139 82.4005 11.8223 82.4005 16.7678ZM79.5405 16.7678C79.5405 13.445 76.835 10.6632 73.5112 10.6632C70.1873 10.6632 67.4046 13.3678 67.4046 16.6905C67.4046 20.0132 70.11 22.795 73.4339 22.795C76.835 22.795 79.5405 20.0905 79.5405 16.7678ZM172.685 7.88139C170.83 7.88139 169.13 8.49957 167.738 9.65866V8.26776H164.878V25.345H167.738V15.6859C167.738 12.9041 169.98 10.6632 172.685 10.6632C175.468 10.6632 177.71 12.9041 177.71 15.6087V25.2678H180.57V15.6859C180.492 11.3587 177.014 7.88139 172.685 7.88139ZM159.158 8.26776H162.018V25.345H159.158V23.3359C155.525 26.6587 149.882 26.5041 146.558 22.8723C143.235 19.2405 143.389 13.5996 147.022 10.2768C148.645 8.73139 150.81 7.88139 153.051 7.88139C155.293 7.88139 157.457 8.73139 159.158 10.2768V8.26776ZM159.158 16.7678C159.158 13.445 156.453 10.7405 153.051 10.7405C149.728 10.7405 147.022 13.445 147.022 16.845C147.022 20.1678 149.728 22.8723 153.051 22.8723C156.453 22.795 159.158 20.0905 159.158 16.7678ZM190 11.0496V8.19048H185.749V3.55412H182.889V19.6268C182.889 22.795 185.44 25.345 188.609 25.345H190V22.4859H188.609C187.063 22.4859 185.749 21.1723 185.749 19.6268V11.0496H190ZM124.064 2.08594C122.982 2.08594 122.209 2.93594 122.209 3.94048C122.209 5.0223 123.06 5.79503 124.064 5.79503C125.147 5.79503 125.92 4.94503 125.92 3.94048C125.997 2.93594 125.147 2.08594 124.064 2.08594C124.142 2.08594 124.142 2.08594 124.064 2.08594ZM142.616 8.26776H128.393V11.1268H138.906L128.393 22.4859V25.345H142.616V22.4859H132.026L142.539 11.1268L142.616 8.26776Z" fill="#000048"/>
</g>
</g>
<mask id="mask2_31178_253" style="mask-type:luminance" maskUnits="userSpaceOnUse" x="0" y="0" width="41" height="34">
<path d="M0 0H40.2726V34H0V0Z" fill="white"/>
</mask>
<g mask="url(#mask2_31178_253)">
<mask id="mask3_31178_253" style="mask-type:luminance" maskUnits="userSpaceOnUse" x="0" y="17" width="25" height="17">
<path d="M0 17L11.8267 34L24.0399 26.6591L17.1603 17H0Z" fill="white"/>
</mask>
<g mask="url(#mask3_31178_253)">
<path d="M0 17H24.0399V34H0V17Z" fill="url(#paint0_linear_31178_253)"/>
</g>
<mask id="mask4_31178_253" style="mask-type:luminance" maskUnits="userSpaceOnUse" x="11" y="17" width="30" height="17">
<path d="M11.8267 34H28.6778L40.2726 17L11.8267 34Z" fill="white"/>
</mask>
<g mask="url(#mask4_31178_253)">
<path d="M11.8267 17H40.2726V34H11.8267V17Z" fill="url(#paint1_linear_31178_253)"/>
</g>
<mask id="mask5_31178_253" style="mask-type:luminance" maskUnits="userSpaceOnUse" x="0" y="0" width="25" height="17">
<path d="M11.8267 0L0 17H17.1603L24.0399 7.34091L11.8267 0Z" fill="white"/>
</mask>
<g mask="url(#mask5_31178_253)">
<path d="M0 0H24.0399V17H0V0Z" fill="url(#paint2_linear_31178_253)"/>
</g>
<mask id="mask6_31178_253" style="mask-type:luminance" maskUnits="userSpaceOnUse" x="11" y="0" width="30" height="17">
<path d="M11.8267 0L40.2726 17L28.6778 0H11.8267Z" fill="white"/>
</mask>
<g mask="url(#mask6_31178_253)">
<path d="M11.8267 0H40.2726V17H11.8267V0Z" fill="url(#paint3_linear_31178_253)"/>
</g>
</g>
</g>
<defs>
<linearGradient id="paint0_linear_31178_253" x1="0.00567874" y1="25.4808" x2="24.0506" y2="25.4808" gradientUnits="userSpaceOnUse">
<stop stop-color="#3D54CE"/>
<stop offset="1" stop-color="#35CACF"/>
</linearGradient>
<linearGradient id="paint1_linear_31178_253" x1="11.821" y1="25.4808" x2="40.3037" y2="25.4808" gradientUnits="userSpaceOnUse">
<stop stop-color="#13457D"/>
<stop offset="1" stop-color="#279698"/>
</linearGradient>
<linearGradient id="paint2_linear_31178_253" x1="-0.00390234" y1="8.48719" x2="24.0604" y2="8.48719" gradientUnits="userSpaceOnUse">
<stop stop-color="#090086"/>
<stop offset="1" stop-color="#2F96A9"/>
</linearGradient>
<linearGradient id="paint3_linear_31178_253" x1="11.821" y1="8.48719" x2="40.3037" y2="8.48719" gradientUnits="userSpaceOnUse">
<stop stop-color="#3B62CA"/>
<stop offset="1" stop-color="#93DFE3"/>
</linearGradient>
<clipPath id="clip0_31178_253">
<rect width="190" height="34" fill="white"/>
</clipPath>
</defs>
</svg>
