<svg width="175" height="28" viewBox="0 0 175 28" fill="none" xmlns="http://www.w3.org/2000/svg">
<g clip-path="url(#clip0_31178_251)">
<path d="M54.7286 21.6523C56.6989 19.8744 57.6994 17.3058 57.6994 14.0218C57.6994 10.7378 56.7295 8.22407 54.7286 6.41187C52.7379 4.61342 50.1108 3.70215 46.919 3.70215H41.0762V24.3345H46.919C50.1858 24.3345 52.7414 23.4577 54.7286 21.6557V21.6523ZM44.0061 6.36716H46.9769C51.8872 6.36716 54.7047 9.15596 54.7047 14.0218C54.7047 18.8875 51.9383 21.6247 47.1061 21.6763V21.6832H44.0061V6.36716Z" fill="#0B0B0B"/>
<path d="M79.652 24.7639C80.4178 24.7639 81.1051 24.6573 81.6972 24.4475L81.4591 22.1332C81.1018 22.2296 80.7887 22.2743 80.4791 22.2743C79.0566 22.2743 78.3385 21.4972 78.3385 19.9669V11.9822H81.6155V9.79857H78.3385V5.7959H75.5856V9.79857H73.2173V11.989H75.5856V20.5103C75.5856 23.3713 76.9162 24.7639 79.6555 24.7639H79.652Z" fill="#0B0B0B"/>
<path d="M106.514 15.5968L111.299 24.3415H114.691L109.573 15.3079L109.737 15.2631C112.748 14.4723 114.545 12.3093 114.545 9.47581C114.545 7.74957 113.943 6.3844 112.701 5.30463C111.452 4.22145 109.805 3.69531 107.671 3.69531H99.2593V24.3379H102.196V15.5245H106.48L106.518 15.5934H106.514V15.5968ZM102.196 6.24342H107.47C110.227 6.24342 111.622 7.38163 111.622 9.62711C111.622 11.8726 110.227 12.9867 107.47 12.9867H102.196V6.24342Z" fill="#0B0B0B"/>
<path d="M128.619 11.5148C127.156 10.0843 125.165 9.29684 123.164 9.36216C121.092 9.36216 119.271 10.0568 117.747 11.422C116.202 12.8009 115.453 14.644 115.453 17.0615C115.453 19.4789 116.134 21.1398 117.532 22.4981V22.4911L117.747 22.6838C119.271 24.0524 121.092 24.7435 123.157 24.7435C125.175 24.8054 127.156 24.0248 128.615 22.5909C129.64 21.5869 130.861 19.8124 130.861 17.0512C130.861 14.2899 129.64 12.512 128.615 11.5114L128.619 11.5148ZM126.625 20.7684C125.675 21.7244 124.498 22.2092 123.13 22.2092C121.762 22.2092 120.619 21.7244 119.669 20.7684C118.744 19.8331 118.274 18.5848 118.274 17.0649C118.274 15.5449 118.744 14.2933 119.669 13.3614C120.619 12.4054 121.786 11.9206 123.13 11.9206C124.474 11.9206 125.672 12.4054 126.625 13.3614C127.571 14.3174 128.051 15.5656 128.051 17.0649C128.051 18.5642 127.571 19.8124 126.625 20.7684Z" fill="#0B0B0B"/>
<path d="M140.659 24.7501C142.615 24.7501 144.266 24.0417 145.559 22.6421C146.873 21.1979 147.537 19.3203 147.537 17.0577C147.537 14.7951 146.883 12.8968 145.59 11.5007C144.313 10.0633 142.748 9.36527 140.812 9.36527C138.733 9.36527 136.861 10.3384 135.806 11.9684L135.568 12.3363V3.69824H132.815V24.3271H135.568V21.8306L135.806 22.2123C136.786 23.777 138.648 24.7501 140.662 24.7501H140.659ZM135.374 17.0645C135.374 15.5721 135.833 14.3342 136.739 13.392C137.654 12.4016 138.736 11.9168 140.05 11.9168C141.363 11.9168 142.493 12.4154 143.371 13.3954C144.273 14.3308 144.732 15.5652 144.732 17.0645C144.732 18.5639 144.286 19.7777 143.371 20.7647C142.496 21.7103 141.346 22.2089 140.05 22.2089C138.753 22.2089 137.657 21.724 136.739 20.7647C135.833 19.7914 135.374 18.5466 135.374 17.0611V17.0645Z" fill="#0B0B0B"/>
<path d="M162.648 11.5148C161.185 10.0843 159.194 9.29684 157.194 9.36216C155.121 9.36216 153.301 10.0568 151.776 11.422C150.232 12.8009 149.482 14.644 149.482 17.0615C149.482 19.4789 150.163 21.1398 151.562 22.4981V22.4911L151.776 22.6838C153.301 24.0524 155.121 24.7435 157.186 24.7435C159.202 24.8054 161.185 24.0248 162.645 22.5909C163.669 21.5869 164.891 19.8124 164.891 17.0512C164.891 14.2899 163.669 12.512 162.645 11.5114L162.648 11.5148ZM160.651 20.7684C159.702 21.7244 158.524 22.2092 157.156 22.2092C155.788 22.2092 154.644 21.7244 153.695 20.7684C152.77 19.8331 152.301 18.5848 152.301 17.0649C152.301 15.5449 152.77 14.2933 153.695 13.3614C154.644 12.4054 155.813 11.9206 157.156 11.9206C158.5 11.9206 159.698 12.4054 160.651 13.3614C161.596 14.3174 162.076 15.5656 162.076 17.0649C162.076 18.5642 161.596 19.8158 160.651 20.7684Z" fill="#0B0B0B"/>
<path d="M171.781 24.7639C172.547 24.7639 173.235 24.6573 173.827 24.4475L173.588 22.1332C173.231 22.2296 172.919 22.2743 172.608 22.2743C171.186 22.2743 170.469 21.4972 170.469 19.9669V11.9822H173.746V9.79857H170.469V5.7959H167.716V9.79857H165.347V11.989H167.716V20.5103C167.716 23.3713 169.046 24.7639 171.786 24.7639H171.781Z" fill="#0B0B0B"/>
<path d="M20.4171 3.69824H13.6113V6.64523H20.4171V3.69824Z" fill="#0B0B0B"/>
<path d="M13.6116 0.750977H0V3.69797H13.6116V0.750977Z" fill="#0B0B0B"/>
<path d="M13.6116 6.64551H0V9.59249H13.6116V6.64551Z" fill="#0B0B0B"/>
<path d="M27.2232 9.5957H20.4175V12.5427H27.2232V9.5957Z" fill="#0B0B0B"/>
<path d="M20.4174 12.543H0V15.49H20.4174V12.543Z" fill="#0B0B0B"/>
<path d="M27.2232 15.4902H20.4175V18.4372H27.2232V15.4902Z" fill="#0B0B0B"/>
<path d="M13.6116 18.4365H0V21.3834H13.6116V18.4365Z" fill="#0B0B0B"/>
<path d="M13.6116 24.3301H0V27.277H13.6116V24.3301Z" fill="#0B0B0B"/>
<path d="M20.4171 21.3838H13.6113V24.3307H20.4171V21.3838Z" fill="#0B0B0B"/>
<path d="M65.8121 9.38281H65.5059C63.8861 9.42751 62.6066 9.83329 61.6061 10.6242C60.6976 11.3463 60.1905 12.1682 60.0612 13.1379C60.0612 13.1379 59.9897 13.719 59.9795 14.0285H62.5589C62.5624 13.7053 62.678 13.1413 62.678 13.1413C62.872 12.0513 64.0596 11.3773 65.8121 11.3773C67.9083 11.3773 69.0142 12.3126 69.0142 14.0767V14.8194L64.2672 15.5829C61.0514 16.0884 59.207 17.8145 59.207 20.3214C59.207 22.9761 61.1637 24.7607 64.0732 24.7607C66.2817 24.7607 67.8811 23.7704 68.8304 21.8207L69.0754 21.3152V24.3447H71.7706V24.355L71.7739 14.2692C71.7739 11.0747 69.7152 9.38281 65.8155 9.38281H65.8121ZM69.0177 17.4225C68.9938 20.4039 67.1631 22.4809 64.5463 22.4809C63.0047 22.4809 61.9668 21.5422 61.9668 20.1426C61.9668 18.7431 62.957 17.849 64.9138 17.505L69.0279 16.7898L69.0177 17.4225Z" fill="#0B0B0B"/>
<path d="M89.8295 9.38281H89.5233C87.9035 9.42751 86.624 9.83329 85.6236 10.6242C84.715 11.3463 84.208 12.1682 84.0786 13.1379C84.0786 13.1379 84.0071 13.719 83.9969 14.0285H86.5764C86.5798 13.7053 86.6954 13.1413 86.6954 13.1413C86.8895 12.0513 88.0771 11.3773 89.8295 11.3773C91.9258 11.3773 93.0318 12.3126 93.0318 14.0767V14.8194L88.2847 15.5829C85.069 16.0884 83.2246 17.8145 83.2246 20.3214C83.2246 22.9761 85.1813 24.7607 88.0906 24.7607C90.2991 24.7607 91.8985 23.7704 92.848 21.8207L93.093 21.3152V24.3447H95.788V24.355L95.7915 14.2692C95.7915 11.0747 93.7328 9.38281 89.833 9.38281H89.8295ZM93.0351 17.4225C93.0113 20.4039 91.1805 22.4809 88.5637 22.4809C87.0223 22.4809 85.9844 21.5422 85.9844 20.1426C85.9844 18.7431 86.9746 17.849 88.9312 17.505L93.0453 16.7898L93.0351 17.4225Z" fill="#0B0B0B"/>
</g>
<defs>
<clipPath id="clip0_31178_251">
<rect width="175" height="28" fill="white"/>
</clipPath>
</defs>
</svg>
