<svg width="134" height="38" viewBox="0 0 134 38" fill="none" xmlns="http://www.w3.org/2000/svg">
<g clip-path="url(#clip0_31178_245)">
<path d="M129.261 12.2832H128.467V11.9225H130.466V12.2832H129.659V14.4843H129.249V12.2832H129.261ZM131.224 11.9102L132.043 13.8875L132.863 11.9102H133.335V14.4719H132.95V12.6687L132.193 14.4719H131.87L131.124 12.6687V14.4719H130.74V11.9102H131.224Z" fill="#1E1405"/>
<path d="M127.051 11.9102L120.433 29.7058C119.961 30.9618 118.756 31.8074 117.415 31.8074H114.024V29.1586H117.75L118.843 26.2486L113.217 11.9225H116.309L120.234 22.7915L124.071 11.9225H127.051V11.9102Z" fill="#1E1405"/>
<path d="M35.3413 19.1349C35.3413 14.7077 38.2595 11.6982 42.4571 11.6982C45.872 11.6982 48.4676 13.5636 48.9642 17.1327H45.9839C45.6734 15.4912 44.2825 14.347 42.5067 14.347C40.0355 14.347 38.4211 16.2373 38.4211 19.1349C38.4211 22.0572 40.0602 23.9475 42.5067 23.9475C44.3198 23.9475 45.6485 22.8905 45.9839 21.05H48.9642C48.3807 24.8056 45.8473 26.5963 42.4571 26.5963C38.2595 26.5963 35.3413 23.5869 35.3413 19.1349Z" fill="#1E1405"/>
<path d="M50.4917 19.1349C50.4917 14.8445 53.497 11.6982 57.7565 11.6982C61.9291 11.6982 65.0213 14.8197 65.0213 19.1349C65.0213 23.475 61.9291 26.5963 57.7565 26.5963C53.497 26.5963 50.4917 23.4501 50.4917 19.1349ZM61.9043 19.1349C61.9043 16.3243 60.1781 14.347 57.7565 14.347C55.2232 14.347 53.5839 16.3493 53.5839 19.1349C53.5839 21.9454 55.2232 23.9475 57.7565 23.9475C60.203 23.9475 61.9043 21.9454 61.9043 19.1349Z" fill="#1E1405"/>
<path d="M68.275 24.544V14.4834H65.7168V11.9216H68.275V7.60645H71.4293L70.2123 11.9216H74.8195V14.4834H71.3175V23.7357H74.8195V26.3846H70.1129C69.0822 26.3721 68.275 25.5514 68.275 24.544Z" fill="#1E1405"/>
<path d="M105.766 24.544V14.4834H103.208V11.9216H105.766V7.60645H108.921L107.704 11.9216H112.311V14.4834H108.809V23.7357H112.311V26.3846H107.604C106.586 26.3721 105.766 25.5514 105.766 24.544Z" fill="#1E1405"/>
<path d="M76.2227 22.4428C76.2227 19.9308 78.0357 18.3763 81.1776 17.9535L84.2698 17.5306C85.1019 17.4187 85.524 17.0332 85.524 16.3368C85.524 15.0808 84.3816 14.1108 82.494 14.1108C80.743 14.1108 79.4639 15.0062 79.3273 16.6229H76.3468C76.6822 13.6134 78.992 11.6982 82.494 11.6982C86.1946 11.6982 88.5541 13.8123 88.5541 17.0456V23.8729H89.9699V26.385C89.9699 26.385 88.6287 26.385 88.045 26.385C86.5423 26.385 85.8842 25.5891 85.8842 24.2709C85.1888 25.7134 83.3756 26.6088 81.2148 26.6088C78.2841 26.5963 76.2227 24.8926 76.2227 22.4428ZM85.5986 20.0178V19.4831L81.6743 20.1297C80.0599 20.3785 79.2527 21.0997 79.2527 22.3308C79.2527 23.45 80.2214 24.2211 81.6743 24.2211C84.1456 24.2211 85.5986 22.5049 85.5986 20.0178Z" fill="#1E1405"/>
<path d="M91.9692 6.20117H94.9994V26.3721H91.9692V6.20117Z" fill="#1E1405"/>
<path d="M98.1411 6.20117H101.531V9.62103H98.1411V6.20117ZM98.3151 11.9093H101.345V26.3596H98.3151V11.9093Z" fill="#1E1405"/>
<path d="M1.30212 19.6322C1.87337 18.426 2.61848 17.2944 3.57469 16.287L4.50608 17.4435L1.30212 19.6322ZM6.77866 17.0456L5.51198 17.7047L7.72245 19.9308C7.27539 19.0354 6.96493 18.0653 6.77866 17.0456ZM12.218 8.98721L10.9885 7.84312L9.27476 10.8775L12.218 8.98721ZM16.9246 8.10427L16.0925 6.38813L13.0499 8.88772L16.9246 8.10427ZM21.5318 8.30325L21.1592 6.43788L17.5827 8.07939L21.5318 8.30325ZM26.0396 9.27324L25.99 7.37056L22.1899 8.39029L26.0396 9.27324ZM14.565 6.01506L13.6585 4.7839L11.6219 7.19646L14.565 6.01506ZM18.3651 4.72173L17.9553 3.2543L15.1983 4.7839L18.3651 4.72173ZM22.5501 4.98288L22.6991 3.46571L19.582 3.90096L22.5501 4.98288ZM27.0083 5.84096L27.4305 4.37353L24.2886 4.21186L27.0083 5.84096ZM31.4293 7.27107L31.9385 5.84096L28.8089 5.49275L31.4293 7.27107ZM18.0794 31.9562L18.5762 33.6599L21.7678 31.8442L18.0794 31.9562ZM13.5964 32.2546L13.5839 34.1574L17.4213 33.2743L13.5964 32.2546ZM9.42378 31.1229L8.72834 33.0132L12.6401 33.1873L9.42378 31.1229ZM6.21983 28.5363L4.87863 29.8794L8.23161 31.9437L6.21983 28.5363ZM5.30086 24.3703L3.42568 24.6937L4.97798 28.325L5.30086 24.3703ZM5.73551 19.6074L3.83548 19.4581L4.4564 23.3506L5.73551 19.6074ZM22.575 28.5986L23.1834 29.8546L25.4312 28.0141L22.575 28.5986ZM18.452 29.1954L18.7748 30.6877L21.6187 29.3197L18.452 29.1954ZM14.0807 28.984L13.9813 30.5012L17.0859 29.9664L14.0807 28.984ZM10.1689 27.2679L9.65974 28.698L12.7892 29.0462L10.1689 27.2679ZM7.75971 23.9475L6.53028 24.8429L8.91463 26.9072L7.75971 23.9475ZM10.9885 23.848L10.5166 25.104L13.4225 25.303C12.5409 24.9051 11.7212 24.4076 10.9885 23.848ZM8.04534 20.5277L7.11395 21.709L10.0323 23.0273C9.23751 22.2935 8.57933 21.4479 8.04534 20.5277ZM19.135 26.5839L19.5325 27.8523L21.8919 26.4472C20.9481 26.5715 20.0291 26.6213 19.135 26.5839ZM14.8382 27.1808L17.5455 26.4595C16.5892 26.3352 15.6703 26.1238 14.801 25.8377L14.8382 27.1808ZM23.6677 26.1238L24.3508 27.243L26.3004 25.3278C25.4063 25.6637 24.5371 25.9248 23.6677 26.1238ZM9.56039 6.02749L11.9944 5.0948L11.2741 4.08751C10.6532 4.68443 10.0695 5.33108 9.56039 6.02749ZM19.5076 1.51329L19.52 0.244829C18.6259 0.381623 17.769 0.580598 16.9618 0.829314L19.5076 1.51329ZM15.3474 2.81904L14.9748 1.60033C14.1676 1.98584 13.4101 2.4211 12.7023 2.93096L15.3474 2.81904ZM9.56039 8.37786L8.55449 7.61927C8.14469 8.37786 7.78455 9.17375 7.49892 10.007L9.56039 8.37786ZM21.6559 0.020986L23.9782 1.28945L24.2886 0.0582919C23.3822 -0.00388722 22.5004 -0.0163216 21.6559 0.020986ZM33.3541 2.19725C32.4973 1.87392 31.6653 1.5879 30.8456 1.33918L32.8823 3.4284L33.3541 2.19725ZM26.3873 0.307008L28.4116 1.97341L28.9455 0.816878C28.0763 0.605469 27.2194 0.431366 26.3873 0.307008ZM30.6966 9.21106L26.673 9.47221L30.026 10.9894L30.6966 9.21106ZM10.1689 12.4071L7.28781 10.6785C6.98977 11.6858 6.77866 12.7304 6.66689 13.8123C7.79696 13.203 8.97672 12.7428 10.1689 12.4071ZM29.1194 27.044C29.8646 25.7259 30.5599 24.3081 31.1808 22.8158C29.9515 23.6366 28.722 24.3081 27.4926 24.8429L29.1194 27.044ZM15.1239 11.7107C16.6513 11.6858 18.1912 11.8226 19.7311 12.0962L19.2716 9.65876L15.1239 11.7107ZM10.4545 12.3324C11.8826 11.9594 13.3481 11.7604 14.8259 11.7231L13.8571 9.53439L10.4545 12.3324ZM24.624 13.3523C25.9527 13.7999 27.2567 14.3347 28.5234 14.9192L29.4051 12.5812L24.624 13.3523ZM20.0168 12.1459C21.4821 12.4195 22.9351 12.805 24.3632 13.2776L24.2886 10.8277L20.0168 12.1459ZM2.82958 29.3197L0.792963 30.0287C1.32696 31.4961 2.13416 32.8639 3.20214 34.0329L2.82958 29.3197ZM7.57343 37.0176L5.10216 32.8639L3.58711 34.4185C4.66752 35.5004 6.00871 36.3958 7.57343 37.0176ZM2.14657 25.104L0.0106022 24.9424C-0.05149 26.5093 0.159624 28.0638 0.631524 29.5437L2.14657 25.104ZM2.74266 21.0375L1.09101 20.0924C0.482501 21.5101 0.134784 23.0023 0.0354368 24.5071L2.74266 21.0375ZM26.3625 31.0981C27.2939 29.954 28.1632 28.6856 28.958 27.3176L25.1455 29.2701L26.3625 31.0981ZM8.82769 35.0651L7.95841 37.1669C9.36169 37.6642 10.9388 37.9627 12.7023 37.9875L8.82769 35.0651ZM13.3107 35.7118L13.1493 38C14.801 37.9752 16.3657 37.7139 17.8559 37.2414L13.3107 35.7118ZM17.6448 34.9408L18.2408 37.0922C19.7311 36.5699 21.1344 35.8113 22.4384 34.8537L17.6448 34.9408ZM21.8547 32.6526L22.7611 34.6174C23.9658 33.6972 25.0958 32.6028 26.139 31.3717L21.8547 32.6526ZM6.65447 16.1502C6.57996 15.3917 6.57996 14.6206 6.66689 13.8123C5.81001 14.3097 5.04007 14.8818 4.34464 15.5036L6.65447 16.1502Z" fill="#1E1405"/>
</g>
<defs>
<clipPath id="clip0_31178_245">
<rect width="134" height="38" fill="white"/>
</clipPath>
</defs>
</svg>
