<svg width="195" height="35" viewBox="0 0 195 35" fill="none" xmlns="http://www.w3.org/2000/svg">
<g clip-path="url(#clip0_31178_243)">
<mask id="mask0_31178_243" style="mask-type:luminance" maskUnits="userSpaceOnUse" x="0" y="0" width="195" height="35">
<path d="M195 0H0V34.65H195V0Z" fill="white"/>
</mask>
<g mask="url(#mask0_31178_243)">
<mask id="mask1_31178_243" style="mask-type:luminance" maskUnits="userSpaceOnUse" x="0" y="0" width="195" height="35">
<path d="M195 0H0V34.1826H195V0Z" fill="white"/>
</mask>
<g mask="url(#mask1_31178_243)">
<path d="M56.5903 18.8103H54.3487C54.2429 18.8103 54.1372 18.8743 54.1161 18.9811C53.693 20.4757 52.5511 21.2656 50.817 21.2656C48.5331 21.2656 47.0951 19.5362 47.0951 16.7606C47.0951 13.985 48.5119 12.3197 50.817 12.3197C52.4876 12.3197 53.693 13.1523 54.1161 14.6042C54.1372 14.7109 54.2429 14.7749 54.3487 14.7749H56.5903C56.6748 14.7749 56.7383 14.7322 56.7806 14.6895C56.8228 14.6256 56.844 14.5401 56.8228 14.476C56.1462 11.6578 53.968 10.0352 50.8382 10.0352C47.0527 10.0352 44.5151 12.7253 44.5151 16.7606C44.5151 20.7958 47.0527 23.5288 50.8382 23.5288C53.8834 23.5288 56.125 21.8848 56.8228 19.1305C56.8228 19.1092 56.844 19.0665 56.844 19.0451C56.8228 18.917 56.7171 18.8103 56.5903 18.8103Z" fill="#212529"/>
<path d="M64.8802 10.0353C63.2729 10.0353 61.9195 10.5904 61.0102 11.5725V6.10679C61.0102 5.97869 60.9045 5.85059 60.7564 5.85059H58.6839C58.5571 5.85059 58.4302 5.95734 58.4302 6.10679V23.0593C58.4302 23.1874 58.5359 23.3155 58.6839 23.3155H60.7564C60.8833 23.3155 61.0102 23.2087 61.0102 23.0593V16.1203C61.0102 13.729 62.2156 12.3412 64.3303 12.3412C66.445 12.3412 67.5658 13.6649 67.5658 15.9708V23.0593C67.5658 23.1874 67.6716 23.3155 67.8196 23.3155H69.871C69.9977 23.3155 70.1247 23.2087 70.1247 23.0593V15.6719C70.1036 12.2558 68.0523 10.0353 64.8802 10.0353Z" fill="#212529"/>
<path d="M78.6473 10.0352C77.0398 10.0352 75.7287 10.6116 74.8827 11.7005V10.5262C74.8827 10.3981 74.777 10.2699 74.629 10.2699H72.5565C72.4296 10.2699 72.3027 10.3768 72.3027 10.5262V23.0804C72.3027 23.2085 72.4085 23.3366 72.5565 23.3366H74.629C74.7558 23.3366 74.8827 23.2298 74.8827 23.0804C74.8827 23.059 74.8827 23.0377 74.8616 22.995V16.2482C74.8616 13.8142 75.8978 12.704 78.0974 12.704H78.6473C78.7736 12.704 78.9008 12.5972 78.9008 12.4477V10.2913C78.8797 10.1632 78.7736 10.0352 78.6473 10.0352Z" fill="#212529"/>
<path d="M89.6656 16.7812C89.6656 19.8343 87.635 21.2008 85.6256 21.2008C84.5687 21.2008 83.6382 20.8165 82.9611 20.1332C82.1998 19.3434 81.7771 18.1904 81.7981 16.7598C81.7981 14.7316 82.8137 12.3616 85.7106 12.3616C87.6774 12.3829 89.6656 13.7494 89.6656 16.7812ZM85.7317 10.0557C81.8832 10.0557 79.1758 12.81 79.1758 16.7812C79.1758 20.7525 81.8192 23.5494 85.6256 23.5494C89.4324 23.5494 92.2456 20.7097 92.2664 16.7812C92.2872 12.81 89.5806 10.0557 85.7317 10.0557Z" fill="#212529"/>
<path d="M100.196 10.0557C98.6527 10.0557 97.3414 10.6108 96.4531 11.5716V10.5255C96.4531 10.3974 96.3474 10.2693 96.2 10.2693H94.1278C94.0004 10.2693 93.873 10.376 93.873 10.5255V23.0797C93.873 23.2077 93.9796 23.3359 94.1278 23.3359H96.2C96.3266 23.3359 96.4531 23.2291 96.4531 23.0797V16.1407C96.4531 13.7494 97.6586 12.3616 99.7742 12.3616C101.889 12.3616 103.009 13.6853 103.009 15.9912V23.101C103.009 23.2291 103.114 23.3572 103.263 23.3572H105.314C105.441 23.3572 105.568 23.2505 105.568 23.101V15.7137C105.547 12.2121 103.496 10.0557 100.196 10.0557Z" fill="#212529"/>
<path d="M113.688 12.3829C115.656 12.3829 117.643 13.7494 117.643 16.7812C117.643 19.813 115.613 21.2008 113.604 21.2008C112.546 21.2008 111.615 20.8165 110.939 20.1332C110.178 19.3434 109.755 18.1904 109.776 16.7598C109.776 14.7529 110.812 12.3829 113.688 12.3829ZM113.709 10.0557C109.86 10.0557 107.154 12.81 107.154 16.7812C107.154 20.7525 109.798 23.5494 113.604 23.5494C117.411 23.5494 120.223 20.7097 120.244 16.7812C120.266 12.81 117.58 10.0557 113.709 10.0557Z" fill="#212529"/>
<path d="M127.16 15.7785C125.594 15.3515 124.262 14.9672 124.262 13.8142C124.262 12.9175 125.129 12.3197 126.441 12.3197C127.877 12.3197 128.808 13.0669 128.893 14.2625C128.893 14.3906 129.02 14.4974 129.147 14.4974H131.219C131.283 14.4974 131.347 14.476 131.41 14.412C131.452 14.3693 131.473 14.2839 131.473 14.2198C131.325 11.6364 129.422 10.0352 126.525 10.0352C123.627 10.0352 121.703 11.6151 121.703 13.7928C121.703 16.6325 124.241 17.3157 126.271 17.8495C127.773 18.2552 129.063 18.5968 129.063 19.6216C129.063 20.6465 128.153 21.2229 126.757 21.2229C125.234 21.2229 124.178 20.4757 124.071 19.3227C124.05 19.1946 123.945 19.0878 123.818 19.0878H121.683C121.618 19.0878 121.555 19.1092 121.492 19.1732C121.449 19.2159 121.428 19.3013 121.428 19.3654C121.576 21.7994 123.776 23.5074 126.779 23.5074C129.591 23.5074 131.579 21.9061 131.579 19.6216C131.537 16.9954 129.105 16.3122 127.16 15.7785Z" fill="#212529"/>
<path d="M143.718 16.7598C143.718 19.386 142.09 21.2008 139.742 21.2008C137.817 21.2008 135.766 19.813 135.766 16.7812C135.766 14.6034 137.14 12.3829 139.742 12.3829C142.09 12.3829 143.718 14.1765 143.718 16.7598ZM140.164 10.0557C138.092 10.0557 136.613 10.9952 135.745 12.0414V10.5255C135.745 10.3974 135.639 10.2693 135.492 10.2693H133.419C133.292 10.2693 133.165 10.376 133.165 10.5255V29.0365C133.165 29.1646 133.271 29.2927 133.419 29.2927H135.492C135.618 29.2927 135.745 29.186 135.745 29.0365V21.5424C136.633 22.5886 138.135 23.5494 140.164 23.5494C143.738 23.5494 146.318 20.6884 146.318 16.7598C146.34 12.81 143.803 10.0557 140.164 10.0557Z" fill="#212529"/>
<path d="M154.376 10.0353C152.768 10.0353 151.415 10.5904 150.505 11.5725V6.10679C150.505 5.97869 150.401 5.85059 150.252 5.85059H148.18C148.053 5.85059 147.926 5.95734 147.926 6.10679V23.0593C147.926 23.1874 148.032 23.3155 148.18 23.3155H150.252C150.38 23.3155 150.505 23.2087 150.505 23.0593V16.1203C150.505 13.729 151.712 12.3412 153.827 12.3412C155.941 12.3412 157.062 13.6649 157.062 15.9708V23.0593C157.062 23.1874 157.168 23.3155 157.315 23.3155H159.366C159.494 23.3155 159.621 23.2087 159.621 23.0593V15.6719C159.599 12.2558 157.548 10.0353 154.376 10.0353Z" fill="#212529"/>
<path d="M167.53 12.3402C168.629 12.3402 169.623 12.7245 170.3 13.4078C170.87 13.9842 171.188 14.7529 171.23 15.6496H163.892C164.188 13.6213 165.583 12.3402 167.53 12.3402ZM167.635 10.0557C163.808 10.0557 161.228 12.7459 161.228 16.7812C161.228 20.8165 163.808 23.5494 167.635 23.5494C170.596 23.5494 172.88 21.9054 173.62 19.2792C173.641 19.1938 173.62 19.1298 173.578 19.0657C173.535 19.0017 173.451 18.959 173.388 18.959H171.146C171.04 18.959 170.956 19.023 170.913 19.1298C170.448 20.4963 169.263 21.2862 167.635 21.2862C165.563 21.2862 164.103 19.9411 163.871 17.8487H173.556C173.683 17.8487 173.789 17.742 173.811 17.6353C173.852 17.1655 173.873 16.7812 173.873 16.3542C173.873 12.6178 171.315 10.0557 167.635 10.0557Z" fill="#212529"/>
<path d="M181.804 10.0352C180.198 10.0352 178.886 10.6116 178.04 11.7005V10.5262C178.04 10.3981 177.935 10.2699 177.786 10.2699H175.714C175.587 10.2699 175.459 10.3768 175.459 10.5262V23.0804C175.459 23.2085 175.566 23.3366 175.714 23.3366H177.786C177.913 23.3366 178.04 23.2298 178.04 23.0804C178.04 23.059 178.04 23.0377 178.019 22.995V16.2482C178.019 13.8142 179.055 12.704 181.254 12.704H181.804C181.932 12.704 182.057 12.5972 182.057 12.4477V10.2913C182.057 10.1632 181.953 10.0352 181.804 10.0352Z" fill="#212529"/>
<path d="M188.678 12.3402C189.777 12.3402 190.771 12.7245 191.447 13.4078C192.018 13.9842 192.336 14.7529 192.377 15.6496H185.039C185.315 13.6213 186.71 12.3402 188.678 12.3402ZM188.762 10.0557C184.934 10.0557 182.354 12.7459 182.354 16.7812C182.354 20.8165 184.934 23.5494 188.762 23.5494C191.722 23.5494 194.007 21.9054 194.747 19.2792C194.768 19.1938 194.747 19.1298 194.704 19.0657C194.662 19.0017 194.577 18.959 194.514 18.959H192.273C192.166 18.959 192.082 19.023 192.039 19.1298C191.574 20.4963 190.39 21.2862 188.762 21.2862C186.689 21.2862 185.23 19.9411 184.998 17.8487H194.683C194.81 17.8487 194.916 17.742 194.937 17.6353C194.979 17.1655 195 16.8025 195 16.3542C195 12.6178 192.442 10.0557 188.762 10.0557Z" fill="#212529"/>
<path fill-rule="evenodd" clip-rule="evenodd" d="M16.9179 0C24.8693 0 31.5519 5.55119 33.3494 13.0239C32.1864 11.3585 30.2619 10.2697 28.0837 10.2697C24.531 10.2697 21.6337 13.1734 21.6337 16.7817C21.6337 20.39 24.5098 23.2936 28.0837 23.2936C30.3888 23.2936 32.3977 22.0766 33.5397 20.2619C32.0805 28.183 25.1865 34.1826 16.9179 34.1826C7.57077 34.1826 0 26.539 0 17.1019C0 7.66491 7.59191 0 16.9179 0Z" fill="#2FBF71"/>
<path fill-rule="evenodd" clip-rule="evenodd" d="M17.4255 34.1611C9.1992 32.7519 2.91846 25.6421 2.91846 17.0805C2.91846 8.51894 9.17805 1.4305 17.4255 0C25.1655 0.234858 31.5943 5.70064 33.3707 13.0239C32.2076 11.3585 30.2831 10.2697 28.105 10.2697C24.5523 10.2697 21.655 13.1734 21.655 16.7817C21.655 20.3899 24.5311 23.2936 28.105 23.2936C30.4101 23.2936 32.419 22.0766 33.561 20.2618C32.1231 28.0122 25.4827 33.9263 17.4255 34.1611Z" fill="#2FBE70"/>
<path fill-rule="evenodd" clip-rule="evenodd" d="M20.1959 33.8409C10.9333 33.7129 3.46826 26.2615 3.46826 17.0806C3.46826 7.89981 10.9333 0.448417 20.1959 0.320312C26.6669 1.60136 31.8057 6.59742 33.3495 13.024C32.1864 11.3586 30.2619 10.2697 28.0838 10.2697C24.5311 10.2697 21.6338 13.1735 21.6338 16.7817C21.6338 20.39 24.51 23.2937 28.0838 23.2937C30.3889 23.2937 32.3978 22.0767 33.5398 20.2619C32.2921 27.0941 26.9631 32.5172 20.1959 33.8409Z" fill="#33C172"/>
<path fill-rule="evenodd" clip-rule="evenodd" d="M20.4498 0.896484C21.2322 0.896484 22.0147 0.960543 22.776 1.06729C27.9994 3.0102 32.0174 7.49386 33.3497 13.0451C32.1866 11.3797 30.2622 10.2908 28.084 10.2908C24.5312 10.2908 21.6341 13.1945 21.6341 16.8028C21.6341 20.4111 24.5101 23.3148 28.084 23.3148C30.389 23.3148 32.3981 22.0977 33.54 20.283C32.4404 26.2397 28.2743 31.0864 22.776 33.1574C22.0147 33.2642 21.2322 33.3282 20.4498 33.3282C11.3986 33.3282 4.06055 26.069 4.06055 17.1444C4.06055 8.21979 11.3986 0.896484 20.4498 0.896484Z" fill="#37C573"/>
<path fill-rule="evenodd" clip-rule="evenodd" d="M20.4492 1.47266C22.0987 1.47266 23.6847 1.72887 25.1651 2.17722C29.2043 4.46176 32.2283 8.36894 33.3491 13.0447C32.186 11.3794 30.2616 10.2906 28.0835 10.2906C24.5307 10.2906 21.6335 13.1942 21.6335 16.8024C21.6335 20.4107 24.5095 23.3144 28.0835 23.3144C30.3886 23.3144 32.3975 22.0975 33.5395 20.2826C32.609 25.3428 29.458 29.6129 25.1651 32.0468C23.6636 32.5166 22.0776 32.7515 20.4492 32.7515C11.6942 32.7515 4.60986 25.7484 4.60986 17.1227C4.60986 8.49708 11.6942 1.47266 20.4492 1.47266Z" fill="#3BC875"/>
<path fill-rule="evenodd" clip-rule="evenodd" d="M20.4496 2.02832C22.966 2.02832 25.3346 2.62615 27.4283 3.69368C30.3253 6.0209 32.4612 9.28762 33.3706 13.024C32.2075 11.3586 30.283 10.2697 28.1049 10.2697C24.5521 10.2697 21.655 13.1734 21.655 16.7816C21.655 20.3899 24.531 23.2937 28.1049 23.2937C30.41 23.2937 32.4189 22.0767 33.561 20.2619C32.7996 24.3825 30.558 27.9908 27.4283 30.4888C25.3346 31.5564 22.966 32.1543 20.4496 32.1543C12.0117 32.1543 5.18115 25.4074 5.18115 17.102C5.18115 8.79648 12.0117 2.02832 20.4496 2.02832Z" fill="#3FCB77"/>
<path fill-rule="evenodd" clip-rule="evenodd" d="M20.4499 2.60449C23.8757 2.60449 27.0267 3.75743 29.5221 5.67899C31.3408 7.72866 32.6942 10.248 33.3709 13.0236C32.2079 11.3582 30.2834 10.2694 28.1052 10.2694C24.5524 10.2694 21.6553 13.1731 21.6553 16.7813C21.6553 20.3896 24.5313 23.2933 28.1052 23.2933C30.4102 23.2933 32.4193 22.0764 33.5613 20.2615C32.9903 23.4001 31.5522 26.2184 29.5221 28.5029C27.0267 30.4458 23.8757 31.5774 20.4499 31.5774C12.3293 31.5774 5.75244 25.0868 5.75244 17.0803C5.75244 9.0738 12.3293 2.60449 20.4499 2.60449Z" fill="#43CE78"/>
<path fill-rule="evenodd" clip-rule="evenodd" d="M20.4494 3.18066C24.9114 3.18066 28.8871 5.20898 31.4883 8.39025C32.3341 9.82078 32.9686 11.3793 33.3704 13.0447C32.2073 11.3793 30.2829 10.2905 28.1046 10.2905C24.5519 10.2905 21.6548 13.1942 21.6548 16.8024C21.6548 20.4107 24.5308 23.3144 28.1046 23.3144C30.4098 23.3144 32.4188 22.0974 33.5607 20.2826C33.2011 22.2682 32.4822 24.1471 31.4883 25.8125C28.8871 28.9937 24.9114 31.0219 20.4494 31.0219C12.646 31.0219 6.30176 24.7876 6.30176 17.1013C6.30176 9.41513 12.646 3.18066 20.4494 3.18066Z" fill="#48D27A"/>
<path fill-rule="evenodd" clip-rule="evenodd" d="M20.4496 3.73633C26.3921 3.73633 31.4463 7.49406 33.2861 12.725C33.3073 12.8318 33.3285 12.9171 33.3708 13.024C32.2076 11.3585 30.2832 10.2696 28.1051 10.2696C24.5522 10.2696 21.6551 13.1733 21.6551 16.7816C21.6551 20.3899 24.5311 23.2936 28.1051 23.2936C30.41 23.2936 32.4192 22.0766 33.5611 20.2618C33.4765 20.6674 33.3919 21.0731 33.2861 21.4574C31.4463 26.6884 26.3921 30.4461 20.4496 30.4461C12.9424 30.4461 6.87305 24.4679 6.87305 17.1019C6.87305 9.73589 12.9424 3.73633 20.4496 3.73633Z" fill="#4CD57C"/>
<path fill-rule="evenodd" clip-rule="evenodd" d="M20.4496 4.3125C25.7576 4.3125 30.3043 7.4297 32.3344 11.892C31.1925 10.8885 29.7121 10.2907 28.105 10.2907C24.5523 10.2907 21.6551 13.1944 21.6551 16.8026C21.6551 20.4109 24.5311 23.3146 28.105 23.3146C29.9237 23.3146 31.5731 22.546 32.7363 21.329C30.9599 26.3251 26.1383 29.8907 20.4496 29.8907C13.2595 29.8907 7.42285 24.1686 7.42285 17.1016C7.42285 10.0345 13.2595 4.3125 20.4496 4.3125Z" fill="#50D87D"/>
<path fill-rule="evenodd" clip-rule="evenodd" d="M20.4495 4.86816C25.123 4.86816 29.2045 7.40889 31.3404 11.1453C30.3887 10.5902 29.289 10.2699 28.1047 10.2699C24.552 10.2699 21.6548 13.1736 21.6548 16.7819C21.6548 20.3902 24.5309 23.2938 28.1047 23.2938C29.4794 23.2938 30.7482 22.8668 31.8056 22.1196C29.86 26.3683 25.5036 29.3147 20.4495 29.3147C13.5766 29.3147 7.99365 23.8489 7.99365 17.1021C7.99365 10.3553 13.5766 4.86816 20.4495 4.86816Z" fill="#54DB7F"/>
<path fill-rule="evenodd" clip-rule="evenodd" d="M20.4497 5.44434C24.6158 5.44434 28.2743 7.53671 30.389 10.6966C29.67 10.4191 28.9087 10.2696 28.1051 10.2696C24.5524 10.2696 21.6551 13.1733 21.6551 16.7816C21.6551 20.3899 24.5311 23.2935 28.1051 23.2935C29.099 23.2935 30.0507 23.0587 30.8965 22.653C28.8875 26.2826 24.9542 28.738 20.4497 28.738C13.873 28.738 8.56494 23.5284 8.56494 17.1018C8.56494 10.6539 13.873 5.44434 20.4497 5.44434Z" fill="#58DF80"/>
<path fill-rule="evenodd" clip-rule="evenodd" d="M20.4497 6.02051C24.1506 6.02051 27.4495 7.74991 29.5008 10.4401C29.0567 10.3333 28.5915 10.2906 28.1051 10.2906C24.5524 10.2906 21.6552 13.1943 21.6552 16.8026C21.6552 20.4109 24.5313 23.3147 28.1051 23.3147C28.7818 23.3147 29.4163 23.2078 30.0296 23.0157C28.0206 26.1329 24.4889 28.1825 20.4497 28.1825C14.1902 28.1825 9.11475 23.2292 9.11475 17.1015C9.11475 10.9739 14.1902 6.02051 20.4497 6.02051Z" fill="#5CE281"/>
<path fill-rule="evenodd" clip-rule="evenodd" d="M20.4491 6.57617C23.748 6.57617 26.6876 8.02802 28.6754 10.2912C28.4851 10.2698 28.2947 10.2698 28.1044 10.2698C24.5517 10.2698 21.6545 13.1735 21.6545 16.7818C21.6545 20.3901 24.5305 23.2938 28.1044 23.2938C28.485 23.2938 28.8445 23.2511 29.2041 23.2085C27.2585 25.8773 24.0653 27.6066 20.4491 27.6066C14.5067 27.6066 9.68506 22.9095 9.68506 17.1021C9.68506 11.2946 14.5067 6.57617 20.4491 6.57617Z" fill="#60E684"/>
</g>
</g>
</g>
<defs>
<clipPath id="clip0_31178_243">
<rect width="195" height="35" fill="white"/>
</clipPath>
</defs>
</svg>
