<svg width="810" height="354" viewBox="0 0 810 354" fill="none" xmlns="http://www.w3.org/2000/svg">
<path d="M7.50071 338.16C27.2953 324.422 49.7982 315.507 71.041 306.869C106.38 292.499 142.132 280.341 177.71 271.596C208.912 263.927 238.922 260.937 269.153 258.998C301.832 256.903 334.322 255.374 366.54 254.904C395.471 254.482 425.365 251.09 455.674 243.189C482.4 236.221 506.201 223.637 525.666 200.527C535.866 188.415 542.091 176.612 539.203 164.154C535.908 149.938 524.878 138.694 510.768 134.59C471.151 123.064 423.334 151.885 386.109 182.57C357.422 206.217 332.971 234.409 315.429 265.425C303.63 286.288 296.523 311.373 308.43 326.694C320.136 341.756 342.999 348.328 365.772 345.455C387.364 342.731 410.28 335.362 431.992 326.764C472.859 310.578 513.757 288.754 551.659 263.044C602.74 228.393 648.704 187.606 691.379 143.115C704.465 129.473 789.693 21.7976 801.901 7.5001" stroke="#EBF2FF" stroke-width="15" stroke-linecap="round"/>
</svg>
