<svg width="1856" height="891" viewBox="0 0 1856 891" fill="none" xmlns="http://www.w3.org/2000/svg">
<mask id="mask0_31117_153" style="mask-type:luminance" maskUnits="userSpaceOnUse" x="0" y="0" width="1856" height="891">
<path d="M1856 0H0V890.223H1856V0Z" fill="white"/>
</mask>
<g mask="url(#mask0_31117_153)">
<g opacity="0.56">
<path d="M-308.947 594.578C-216.456 344.759 -61.9824 192.005 89.2086 165.515C240.4 139.025 387.343 229.517 507.832 383.624C581.786 478.369 647.051 596.511 724.095 682.556C814.269 783.296 917.959 837.049 1023.58 867.407C1106.03 891.19 1191.96 901.051 1275.95 860.252C1441.24 780.009 1576.02 517.814 1736.67 398.125C1918.95 262.388 2113.01 323.489 2295.86 386.331" stroke="white" stroke-opacity="0.12" stroke-width="2" stroke-miterlimit="10"/>
<path d="M-306.437 604.245C-273.032 512.013 -231.903 431.576 -185.561 364.481C-144.626 305.12 -97.8975 256.78 -51.9416 228.55C3.08962 194.905 56.5761 183.304 110.642 179.823C255.461 170.736 395.259 253.3 512.08 402.379C585.069 495.578 650.72 608.499 727.571 687.003C803.07 763.96 887.258 804.952 973.956 831.055C990.755 836.082 1007.75 840.723 1024.93 844.59C1107.38 863.733 1193.12 871.66 1277.3 834.536C1350.87 802.245 1418.84 738.823 1485.84 669.214C1526.59 627.062 1567.52 582.976 1608.65 538.504C1653.83 489.777 1699.02 442.211 1746.52 405.473C1925.13 267.802 2114.74 308.794 2295.28 366.801" stroke="white" stroke-opacity="0.12" stroke-width="1.89" stroke-miterlimit="10"/>
<path d="M-303.927 614.107C-268.784 514.914 -225.145 427.902 -175.907 355.2C-131.882 289.844 -79.9401 237.251 -30.7016 214.628C26.6467 188.331 78.0091 191.232 132.268 194.132C269.17 201.673 403.562 277.47 516.328 421.135C588.737 512.787 654.582 620.681 731.432 691.257C806.931 760.866 890.347 791.61 976.273 811.332C993.072 815.2 1009.87 818.68 1026.67 821.774C1108.93 836.082 1194.66 842.076 1279.04 808.819C1353.57 779.428 1422.7 723.354 1491.06 662.06C1532.57 624.741 1574.86 586.456 1617.15 544.304C1663.1 498.478 1708.48 450.719 1756.17 412.627C1931.11 273.216 2116.09 293.905 2294.32 347.079" stroke="white" stroke-opacity="0.12" stroke-width="1.78" stroke-miterlimit="10"/>
<path d="M-301.223 623.968C-264.15 518.008 -218.194 424.422 -166.252 346.112C-119.138 274.763 -62.3686 217.915 -9.26836 200.9C50.0109 181.951 98.67 198.966 154.281 208.634C282.107 230.87 412.058 301.639 521.155 439.891C592.406 529.803 658.83 632.669 735.294 695.704C810.986 757.966 893.243 778.462 978.59 791.803C995.196 794.51 1011.8 797.024 1028.41 798.958C1110.66 808.432 1196.4 812.686 1280.97 783.102C1356.47 756.806 1426.95 707.692 1496.46 654.712C1538.94 622.421 1582.58 589.937 1626.22 550.105C1673.14 507.18 1718.52 459.42 1766.6 419.782C1937.87 278.436 2118.41 279.017 2294.32 327.356" stroke="white" stroke-opacity="0.12" stroke-width="1.67" stroke-miterlimit="10"/>
<path d="M-298.713 633.636C-259.902 520.715 -211.629 420.748 -156.791 336.831C-106.587 259.487 -45.1834 198.193 11.7787 186.978C72.7958 174.99 123 194.326 175.714 222.943C298.327 231.644 420.168 325.616 525.403 458.647C595.689 547.012 662.692 644.658 738.963 699.958C814.848 754.872 896.14 764.927 980.521 772.081C996.934 773.434 1013.35 774.981 1029.95 775.948C1112.4 780.589 1197.94 783.102 1282.52 757.192C1358.98 733.989 1430.62 691.837 1501.48 647.365C1544.93 620.101 1589.92 593.418 1634.72 555.713C1682.41 515.687 1728.17 467.928 1776.25 426.743C1943.86 283.851 2119.76 263.741 2293.55 307.44" stroke="white" stroke-opacity="0.12" stroke-width="1.56" stroke-miterlimit="10"/>
<path d="M-296.01 643.497C-255.461 523.808 -204.678 417.075 -147.136 327.743C-93.6496 244.212 -27.8053 178.47 33.0187 173.249C95.5805 168.029 145.205 199.159 197.533 237.444C313.002 255.04 428.471 349.786 530.037 477.596C599.55 564.414 666.746 656.839 742.825 704.405C818.903 751.972 899.229 751.778 982.838 752.552C999.058 752.745 1015.28 753.325 1031.69 753.132C1114.14 752.938 1199.68 753.712 1284.25 731.669C1361.68 711.366 1434.87 676.562 1506.7 640.404C1551.3 617.974 1597.45 597.285 1643.6 561.9C1692.06 524.582 1738.02 476.822 1786.49 434.283C1950.61 289.845 2121.89 249.433 2292.97 288.104" stroke="white" stroke-opacity="0.12" stroke-width="1.45" stroke-miterlimit="10"/>
<path d="M-293.5 653.359C-251.213 526.709 -198.112 413.594 -137.675 318.655C-81.0986 229.13 -11.0062 158.167 54.0658 159.328C117.979 160.488 167.218 203.8 218.966 251.753C327.291 278.05 436.195 373.956 534.093 496.158C602.447 581.623 670.609 668.634 746.301 708.659C822.572 748.878 901.74 738.243 984.769 732.829C1000.8 731.862 1017.02 731.282 1033.04 730.315C1115.49 725.288 1201.03 724.515 1285.61 705.952C1364.19 688.743 1438.54 660.9 1511.52 633.249C1557.29 615.847 1604.59 600.958 1652.1 567.701C1701.33 533.283 1747.68 485.523 1796.14 441.438C1956.99 295.452 2123.24 234.544 2292.2 268.382" stroke="white" stroke-opacity="0.12" stroke-width="1.34" stroke-miterlimit="10"/>
<path d="M-290.99 663.027C-246.771 529.609 -191.354 409.92 -128.213 309.374C-68.3544 213.855 6.17906 137.671 75.306 145.599C140.571 152.947 189.423 208.827 240.593 266.255C341.966 301.253 444.498 398.125 538.534 515.107C605.923 599.025 674.664 680.816 750.163 713.106C826.627 745.977 904.829 725.095 986.893 713.3C1002.73 710.98 1018.75 709.433 1034.78 707.499C1117.42 697.444 1202.77 695.124 1287.54 680.236C1367.09 666.12 1442.98 645.431 1516.93 626.095C1563.85 613.72 1612.13 604.632 1660.98 573.695C1710.8 542.178 1757.52 494.418 1806.38 448.785C1963.75 301.253 2125.17 219.655 2292 248.659" stroke="white" stroke-opacity="0.12" stroke-width="1.23" stroke-miterlimit="10"/>
<path d="M-288.286 672.888C-242.33 532.509 -184.596 406.246 -118.558 300.092C-55.8034 198.579 23.3643 116.982 96.3531 131.677C163.356 145.019 211.436 213.468 262.219 280.563C356.448 324.456 452.608 422.102 542.975 533.863C609.592 616.234 678.912 692.61 753.831 717.36C830.682 742.69 907.725 711.753 989.017 693.577C1004.66 690.097 1020.49 687.39 1036.32 684.489C1118.97 669.214 1204.31 665.733 1289.08 654.325C1369.79 643.497 1447.03 629.962 1521.76 618.747C1569.84 611.593 1619.27 607.919 1669.47 579.302C1720.06 550.492 1767.18 502.925 1816.03 455.746C1970.12 306.86 2126.72 204.767 2291.23 228.936" stroke="white" stroke-opacity="0.12" stroke-width="1.13" stroke-miterlimit="10"/>
<path d="M-285.776 682.556C-238.082 535.217 -177.838 402.573 -109.097 290.811C-43.0595 183.497 40.7424 96.2928 117.593 117.756C186.141 136.898 233.641 218.302 283.845 294.872C370.93 347.466 460.911 446.078 547.416 552.426C613.067 633.056 683.159 704.405 757.693 721.614C834.93 739.403 910.815 698.411 991.334 674.048C1006.78 669.408 1022.62 665.54 1038.26 661.673C1120.9 641.371 1206.25 636.537 1291.01 628.609C1372.69 620.875 1451.67 614.687 1527.16 611.593C1576.4 609.466 1626.8 611.593 1678.36 585.297C1729.52 559.193 1777.22 512.014 1826.26 463.094C1977.07 312.854 2128.84 190.072 2290.84 209.408" stroke="white" stroke-opacity="0.12" stroke-width="1.02" stroke-miterlimit="10"/>
<path d="M-283.266 692.417C-233.834 538.117 -171.273 399.092 -99.4423 281.723C-30.3154 168.222 58.1207 75.4098 138.833 104.027C209.119 128.97 255.847 223.136 305.471 309.374C385.412 370.862 469.02 470.248 551.857 571.375C616.543 650.458 687.407 716.393 761.555 726.061C839.178 736.309 913.711 685.263 993.651 654.519C1008.91 648.718 1024.55 643.691 1039.99 639.05C1122.83 613.527 1207.98 607.533 1292.75 603.085C1372.69 599.025 1452.63 599.412 1532.38 604.439C1582.77 607.533 1634.14 615.074 1687.24 591.097C1739.18 567.701 1787.26 520.715 1836.3 470.248C1983.83 318.655 2130.58 174.989 2290.26 189.491" stroke="white" stroke-opacity="0.12" stroke-width="0.91" stroke-miterlimit="10"/>
<path d="M-280.562 702.278C-229.2 541.211 -164.514 395.612 -89.7876 272.636C-17.7643 153.14 75.6922 54.3338 159.88 90.1051C232.097 120.849 262.991 237.251 327.098 323.489C387.536 404.699 477.323 494.031 556.105 589.744C620.018 667.28 691.462 727.608 765.03 730.122C843.233 732.636 916.414 671.728 995.389 634.603C1010.64 627.449 1025.9 621.454 1041.15 615.847C1123.99 585.103 1209.14 578.142 1294.1 576.982C1377.9 575.822 1459.78 584.33 1537.21 596.898C1588.76 605.406 1641.09 618.167 1695.54 596.705C1748.06 576.015 1796.72 529.222 1845.96 477.209C1990.39 324.456 2131.93 160.101 2289.49 169.769" stroke="white" stroke-opacity="0.12" stroke-width="0.8" stroke-miterlimit="10"/>
<path d="M-278.052 712.14C-224.952 544.111 -157.756 391.938 -80.3261 263.548C-5.02022 138.058 93.4567 33.451 181.12 76.57C255.268 112.921 286.935 239.958 348.724 338.184C403.562 425.002 485.433 518.394 560.546 608.886C623.494 684.876 695.71 739.596 768.892 734.762C847.288 729.542 919.504 658.773 997.706 615.267C1012.77 606.953 1027.83 599.798 1043.08 593.224C1125.92 557.259 1211.07 549.332 1296.03 551.459C1380.99 553.586 1464.22 569.441 1542.61 589.937C1595.33 603.665 1648.62 621.841 1704.62 602.699C1757.72 584.716 1806.95 538.31 1856.19 484.557C1997.54 330.643 2134.05 145.406 2289.3 150.24" stroke="white" stroke-opacity="0.12" stroke-width="0.69" stroke-miterlimit="10"/>
<path d="M-275.542 721.808C-220.511 547.011 -150.998 388.264 -70.8648 254.073C7.72366 122.589 111.028 12.1816 202.36 62.4548C278.632 104.607 311.457 242.665 370.35 352.299C420.361 445.305 493.929 542.177 564.987 627.449C627.163 701.892 699.958 750.811 772.561 738.823C851.342 725.868 922.4 645.238 999.83 595.351C1014.31 586.263 1029.18 577.755 1044.63 570.214C1127.27 528.836 1212.62 520.135 1297.58 525.549C1383.5 531.156 1468.08 554.359 1547.63 582.589C1601.5 601.732 1655.76 624.935 1713.11 608.499C1766.98 593.031 1816.61 547.205 1866.04 491.711C2004.29 336.637 2135.6 130.517 2288.53 130.324" stroke="white" stroke-opacity="0.12" stroke-width="0.58" stroke-miterlimit="10"/>
<path d="M-272.839 731.669C-216.07 549.912 -144.24 384.59 -61.2101 244.985C20.4678 107.507 128.986 -9.08779 223.407 48.5331C301.803 96.2926 336.752 245.372 391.977 366.608C437.353 466.188 502.232 565.961 569.235 646.204C630.638 718.907 703.82 762.413 776.23 743.27C855.397 722.388 925.297 632.089 1001.95 575.822C1016.24 565.38 1030.92 555.906 1046.37 547.398C1129.01 500.799 1214.36 491.131 1299.32 500.025C1386.21 509.113 1472.13 539.47 1552.85 575.629C1607.68 600.185 1663.29 628.609 1721.99 614.687C1776.45 601.732 1826.65 556.293 1876.08 499.252C2011.25 343.018 2137.53 116.015 2288.14 110.988" stroke="white" stroke-opacity="0.12" stroke-width="0.47" stroke-miterlimit="10"/>
<path d="M-270.329 741.53C-211.822 553.005 -137.481 381.11 -51.7485 235.897C33.0189 92.232 146.943 -30.1639 244.648 34.8045C325.167 88.3649 362.627 248.659 413.603 381.11C454.732 487.844 510.342 590.13 573.676 664.96C634.114 736.116 707.875 773.821 780.092 747.524C859.259 718.714 928.193 618.747 1004.08 556.099C1017.98 544.691 1032.66 534.056 1047.91 524.388C1130.36 472.375 1215.9 461.934 1301.05 474.115C1388.91 486.683 1476.19 524.388 1557.87 568.281C1613.67 598.251 1670.44 631.702 1730.49 620.294C1785.71 609.853 1836.5 564.994 1885.93 506.213C2018.2 348.819 2139.07 100.933 2287.56 91.0719" stroke="white" stroke-opacity="0.12" stroke-width="0.36" stroke-miterlimit="10"/>
<path d="M-267.818 751.198C-207.574 555.713 -130.916 377.436 -42.287 226.616C45.763 77.1501 164.901 -51.24 265.888 20.8828C348.724 80.2439 388.694 251.753 435.423 395.418C472.496 509.5 518.838 614.107 578.311 683.716C637.783 753.325 711.93 785.229 783.954 751.778C863.314 715.04 931.283 605.406 1006.4 536.377C1185.78 371.442 1386.4 450.912 1563.08 560.933C1619.85 596.125 1677.78 634.603 1739.37 626.095C1941.35 597.478 2085.2 91.4587 2286.98 71.3494" stroke="white" stroke-opacity="0.12" stroke-width="0.25" stroke-miterlimit="10"/>
</g>
</g>
</svg>
