<svg width="390" height="344" viewBox="0 0 390 344" fill="none" xmlns="http://www.w3.org/2000/svg">
<mask id="path-1-inside-1_31123_350" fill="white">
<path d="M0 40C0 17.9086 17.9086 0 40 0H350C372.091 0 390 17.9086 390 40V344H0V40Z"/>
</mask>
<path d="M-1 40C-1 17.3563 17.3563 -1 40 -1H350C372.644 -1 391 17.3563 391 40H389C389 18.4609 371.539 1 350 1H40C18.4609 1 1 18.4609 1 40H-1ZM390 344H0H390ZM-1 344V40C-1 17.3563 17.3563 -1 40 -1V1C18.4609 1 1 18.4609 1 40V344H-1ZM350 -1C372.644 -1 391 17.3563 391 40V344H389V40C389 18.4609 371.539 1 350 1V-1Z" fill="#EAECF0" mask="url(#path-1-inside-1_31123_350)"/>
</svg>
