<svg width="292" height="368" viewBox="0 0 292 368" fill="none" xmlns="http://www.w3.org/2000/svg">
<path d="M7.50167 360.132C12.9986 348.846 20.9549 339.062 28.4092 329.725C40.8097 314.193 53.962 299.56 67.9042 286.524C80.1313 275.09 93.0089 266.088 106.255 257.506C120.573 248.229 134.95 239.259 149.473 230.838C162.514 223.277 175.236 214.121 186.999 202.81C197.371 192.835 204.982 181.053 207.942 165.592C209.493 157.489 209.315 150.539 204.83 145.613C199.711 139.991 191.834 137.691 184.375 139.419C163.434 144.272 149.043 169.551 139.942 192.979C132.927 211.033 128.996 230.074 128.924 248.639C128.875 261.126 132.035 274.337 141.349 278.268C150.506 282.131 162.571 279.295 172.189 272.188C181.308 265.45 189.847 256.264 197.524 246.826C211.974 229.06 225.003 208.723 235.68 187.384C250.069 158.624 260.57 128.379 268.632 97.2882C271.105 87.7551 282.413 17.1087 284.319 7.50125" stroke="black" stroke-opacity="0.07" stroke-width="15" stroke-linecap="round"/>
</svg>
