<svg width="391" height="355" viewBox="0 0 391 355" fill="none" xmlns="http://www.w3.org/2000/svg">
<mask id="path-1-inside-1_31123_316" fill="white">
<path d="M0 323C0 340.673 14.3269 355 32 355H359C376.673 355 391 340.673 391 323V0H0V323Z"/>
</mask>
<path d="M-1 323C-1 341.225 13.7746 356 32 356H359C377.225 356 392 341.225 392 323H390C390 340.121 376.121 354 359 354H32C14.8792 354 1 340.121 1 323H-1ZM391 0H0H391ZM-1 0V323C-1 341.225 13.7746 356 32 356V354C14.8792 354 1 340.121 1 323V0H-1ZM359 356C377.225 356 392 341.225 392 323V0H390V323C390 340.121 376.121 354 359 354V356Z" fill="#EAECF0" mask="url(#path-1-inside-1_31123_316)"/>
</svg>
