<svg width="391" height="393" viewBox="0 0 391 393" fill="none" xmlns="http://www.w3.org/2000/svg">
<mask id="path-1-inside-1_32816_257" fill="white">
<path d="M0 40C0 17.9086 17.9086 0 40 0H351C373.091 0 391 17.9086 391 40V364H0V40Z"/>
</mask>
<path d="M-1 40C-1 17.3563 17.3563 -1 40 -1H351C373.644 -1 392 17.3563 392 40H390C390 18.4609 372.539 1 351 1H40C18.4609 1 1 18.4609 1 40H-1ZM391 364H0H391ZM-1 364V40C-1 17.3563 17.3563 -1 40 -1V1C18.4609 1 1 18.4609 1 40V364H-1ZM351 -1C373.644 -1 392 17.3563 392 40V364H390V40C390 18.4609 372.539 1 351 1V-1Z" fill="#EAECF0" mask="url(#path-1-inside-1_32816_257)"/>
<line x1="0.5" y1="393" x2="0.499999" y2="362" stroke="#EAECF0"/>
</svg>
