<svg width="40" height="40" viewBox="0 0 40 40" fill="none" xmlns="http://www.w3.org/2000/svg">
<g clip-path="url(#clip0_30804_2)">
<path d="M27.2166 12.3231C29.3952 12.6009 31.6463 11.6598 32.9754 9.68806C34.8732 6.87281 34.1728 3.02242 31.4108 1.08797C28.6491 -0.84647 24.8716 -0.132433 22.9738 2.68282C21.6446 4.65466 21.5901 7.13434 22.6257 9.10779C22.9189 9.66661 22.956 10.3543 22.604 10.8766C22.2103 11.4606 21.4627 11.6588 20.8039 11.4327C16.2953 9.88492 11.1489 11.488 8.32112 15.683C4.90515 20.7504 6.16604 27.6811 11.1374 31.1632C15.0252 33.8862 20.031 33.6937 23.6622 31.0567C24.3158 30.582 25.1959 30.5039 25.8573 30.9673C26.4406 31.3759 26.6971 32.1071 26.6594 32.8277C26.5399 35.1155 27.5569 37.4108 29.545 38.8032C32.5831 40.931 36.7382 40.1458 38.8258 37.0489C40.9134 33.9522 40.1428 29.7168 37.1047 27.5887C34.6851 25.8939 31.5566 26.0473 29.3285 27.7447C28.8821 28.0849 28.2683 28.1533 27.809 27.8317C27.3236 27.4916 27.1734 26.8359 27.4011 26.2823C28.9735 22.4593 28.309 18.0526 25.7406 14.8904C25.2972 14.3446 25.2108 13.5621 25.6045 12.9781C25.9566 12.4558 26.5996 12.2445 27.2166 12.3231Z" fill="#09243C"/>
<path d="M1.73492 36.8963C3.55548 38.1473 6.04546 37.6858 7.29644 35.8651C8.54739 34.0445 8.08564 31.5545 6.26507 30.3035C4.4445 29.0526 1.95454 29.5144 0.70357 31.335C-0.547395 33.1554 -0.0856425 35.6454 1.73492 36.8963Z" fill="#09243C"/>
</g>
<defs>
<clipPath id="clip0_30804_2">
<rect width="40" height="40" fill="white"/>
</clipPath>
</defs>
</svg>
