<svg width="200" height="200" viewBox="0 0 200 200" fill="none" xmlns="http://www.w3.org/2000/svg">
<g clip-path="url(#clip0_30804_2)">
<path d="M136.083 61.6157C146.977 63.0043 158.232 58.2991 164.878 48.4403C174.367 34.3641 170.864 15.1121 157.054 5.43987C143.246 -4.23235 124.358 -0.662166 114.87 13.4141C108.224 23.2733 107.951 35.6717 113.129 45.539C114.595 48.3331 114.781 51.7713 113.02 54.383C111.052 57.3029 107.314 58.294 104.02 57.1633C81.4771 49.4246 55.7452 57.4399 41.6061 78.4148C24.5262 103.752 30.8307 138.405 55.6874 155.816C75.1265 169.431 100.156 168.469 118.312 155.283C121.579 152.91 125.98 152.52 129.287 154.836C132.204 156.879 133.486 160.536 133.298 164.138C132.7 175.577 137.785 187.054 147.725 194.016C162.916 204.655 183.691 200.729 194.129 185.244C204.567 169.761 200.715 148.584 185.524 137.944C173.426 129.47 157.783 130.237 146.643 138.724C144.411 140.424 141.342 140.767 139.045 139.158C136.618 137.458 135.868 134.18 137.006 131.411C144.868 112.297 141.545 90.2629 128.703 74.4521C126.487 71.723 126.054 67.8106 128.023 64.8905C129.783 62.2788 132.999 61.2226 136.083 61.6157Z" fill="#09243C"/>
<path d="M8.67462 130.082C17.7774 136.337 30.2273 134.029 36.4822 124.926C42.737 115.823 40.4282 103.372 31.3254 97.1177C22.2225 90.8629 9.77268 93.1719 3.51785 102.275C-2.73697 111.377 -0.428213 123.827 8.67462 130.082Z" fill="#09243C"/>
</g>
<defs>
<clipPath id="clip0_30804_2">
<rect width="200" height="200" fill="white"/>
</clipPath>
</defs>
</svg>
