<svg width="249" height="48" viewBox="0 0 249 48" fill="none" xmlns="http://www.w3.org/2000/svg">
<g clip-path="url(#clip0_31405_2015)">
<path d="M32.6602 14.7878C35.2746 15.121 37.9759 13.9918 39.5708 11.6257C41.8481 8.24737 41.0076 3.6269 37.6932 1.30557C34.3792 -1.01576 29.8462 -0.15892 27.5689 3.21939C25.9739 5.58559 25.9084 8.56121 27.1511 10.9293C27.503 11.5999 27.5475 12.4251 27.1251 13.0519C26.6527 13.7527 25.7555 13.9906 24.965 13.7192C19.5547 11.8619 13.379 13.7856 9.98563 18.8196C5.88648 24.9005 7.39955 33.2173 13.3652 37.3959C18.0305 40.6634 24.0375 40.4325 28.3949 37.268C29.1792 36.6984 30.2354 36.6047 31.029 37.1607C31.729 37.651 32.0368 38.5286 31.9916 39.3932C31.8482 42.1386 33.0686 44.8929 35.4543 46.5639C39.1001 49.1172 44.0861 48.175 46.5912 44.4587C49.0964 40.7427 48.1717 35.6602 44.5259 33.1065C41.6224 31.0727 37.8682 31.2568 35.1945 33.2937C34.6588 33.7018 33.9222 33.784 33.3711 33.398C32.7886 32.9899 32.6084 32.2031 32.8816 31.5388C34.7685 26.9512 33.971 21.6631 30.889 17.8685C30.357 17.2135 30.2532 16.2746 30.7256 15.5737C31.1482 14.9469 31.9199 14.6934 32.6602 14.7878Z" fill="#09243C"/>
<path d="M2.08191 41.5555C4.26658 43.0566 7.25455 42.5027 8.75572 40.318C10.2569 38.1332 9.70277 35.1452 7.51808 33.6441C5.3334 32.1429 2.34544 32.6971 0.844285 34.8818C-0.656873 37.0663 -0.102771 40.0543 2.08191 41.5555Z" fill="#09243C"/>
</g>
<path d="M63.24 36.5V10.22H70.224L76.812 25.916H77.46L84.012 10.22H91.104V36.5H86.028V14.072L86.676 14.144L79.584 31.136H74.364L67.236 14.144L67.92 14.072V36.5H63.24ZM105.94 37.184C104.26 37.184 102.784 36.896 101.512 36.32C100.264 35.744 99.2197 34.976 98.3797 34.016C97.5637 33.032 96.9397 31.94 96.5077 30.74C96.0997 29.54 95.8957 28.316 95.8957 27.068V26.384C95.8957 25.088 96.0997 23.84 96.5077 22.64C96.9397 21.416 97.5637 20.336 98.3797 19.4C99.2197 18.44 100.252 17.684 101.476 17.132C102.7 16.556 104.116 16.268 105.724 16.268C107.836 16.268 109.6 16.736 111.016 17.672C112.456 18.584 113.536 19.796 114.256 21.308C114.976 22.796 115.336 24.404 115.336 26.132V27.932H98.0197V24.872H112.204L110.656 26.384C110.656 25.136 110.476 24.068 110.116 23.18C109.756 22.292 109.204 21.608 108.46 21.128C107.74 20.648 106.828 20.408 105.724 20.408C104.62 20.408 103.684 20.66 102.916 21.164C102.148 21.668 101.56 22.4 101.152 23.36C100.768 24.296 100.576 25.424 100.576 26.744C100.576 27.968 100.768 29.06 101.152 30.02C101.536 30.956 102.124 31.7 102.916 32.252C103.708 32.78 104.716 33.044 105.94 33.044C107.164 33.044 108.16 32.804 108.928 32.324C109.696 31.82 110.188 31.208 110.404 30.488H115.012C114.724 31.832 114.172 33.008 113.356 34.016C112.54 35.024 111.496 35.804 110.224 36.356C108.976 36.908 107.548 37.184 105.94 37.184ZM127.616 37.148C126.248 37.148 124.988 36.896 123.836 36.392C122.684 35.888 121.688 35.18 120.848 34.268C120.008 33.356 119.36 32.3 118.904 31.1C118.448 29.876 118.22 28.556 118.22 27.14V26.384C118.22 24.992 118.436 23.684 118.868 22.46C119.324 21.236 119.948 20.168 120.74 19.256C121.556 18.344 122.528 17.636 123.656 17.132C124.808 16.604 126.08 16.34 127.472 16.34C129.008 16.34 130.352 16.676 131.504 17.348C132.68 17.996 133.616 18.98 134.312 20.3C135.008 21.62 135.392 23.276 135.464 25.268L133.988 23.54V10.22H138.992V36.5H135.032V28.184H135.896C135.824 30.176 135.416 31.844 134.672 33.188C133.928 34.508 132.944 35.504 131.72 36.176C130.52 36.824 129.152 37.148 127.616 37.148ZM128.732 32.936C129.716 32.936 130.616 32.72 131.432 32.288C132.248 31.832 132.896 31.184 133.376 30.344C133.88 29.48 134.132 28.472 134.132 27.32V25.88C134.132 24.728 133.88 23.768 133.376 23C132.872 22.208 132.212 21.608 131.396 21.2C130.58 20.768 129.692 20.552 128.732 20.552C127.652 20.552 126.692 20.816 125.852 21.344C125.036 21.848 124.388 22.568 123.908 23.504C123.452 24.44 123.224 25.532 123.224 26.78C123.224 28.028 123.464 29.12 123.944 30.056C124.424 30.968 125.072 31.676 125.888 32.18C126.728 32.684 127.676 32.936 128.732 32.936ZM145.624 36.5V16.952H150.628V36.5H145.624ZM142.888 20.696V16.952H150.628V20.696H142.888ZM147.46 14.612C146.476 14.612 145.744 14.36 145.264 13.856C144.808 13.328 144.58 12.68 144.58 11.912C144.58 11.096 144.808 10.436 145.264 9.932C145.744 9.428 146.476 9.176 147.46 9.176C148.444 9.176 149.164 9.428 149.62 9.932C150.076 10.436 150.304 11.096 150.304 11.912C150.304 12.68 150.076 13.328 149.62 13.856C149.164 14.36 148.444 14.612 147.46 14.612ZM156.791 36.5V10.22H165.179L176.231 32.252H177.419L176.699 32.9V10.22H181.523V36.5H173.099L162.047 14.468H160.823L161.543 13.82V36.5H156.791ZM196.362 37.184C194.682 37.184 193.206 36.896 191.934 36.32C190.686 35.744 189.642 34.976 188.802 34.016C187.986 33.032 187.362 31.94 186.93 30.74C186.522 29.54 186.318 28.316 186.318 27.068V26.384C186.318 25.088 186.522 23.84 186.93 22.64C187.362 21.416 187.986 20.336 188.802 19.4C189.642 18.44 190.674 17.684 191.898 17.132C193.122 16.556 194.538 16.268 196.146 16.268C198.258 16.268 200.022 16.736 201.438 17.672C202.878 18.584 203.958 19.796 204.678 21.308C205.398 22.796 205.758 24.404 205.758 26.132V27.932H188.442V24.872H202.626L201.078 26.384C201.078 25.136 200.898 24.068 200.538 23.18C200.178 22.292 199.626 21.608 198.882 21.128C198.162 20.648 197.25 20.408 196.146 20.408C195.042 20.408 194.106 20.66 193.338 21.164C192.57 21.668 191.982 22.4 191.574 23.36C191.19 24.296 190.998 25.424 190.998 26.744C190.998 27.968 191.19 29.06 191.574 30.02C191.958 30.956 192.546 31.7 193.338 32.252C194.13 32.78 195.138 33.044 196.362 33.044C197.586 33.044 198.582 32.804 199.35 32.324C200.118 31.82 200.61 31.208 200.826 30.488H205.434C205.146 31.832 204.594 33.008 203.778 34.016C202.962 35.024 201.918 35.804 200.646 36.356C199.398 36.908 197.97 37.184 196.362 37.184ZM207.6 36.5L213.972 26.06L213.864 26.888L207.852 16.952H213.288L217.212 23.828H217.752L221.46 16.952H226.572L220.884 26.852L220.992 26.132L227.724 36.5H222.288L217.644 29.12H217.104L212.712 36.5H207.6ZM242.454 36.5V30.704H241.626V24.26C241.626 23.132 241.35 22.292 240.798 21.74C240.246 21.188 239.394 20.912 238.242 20.912C237.642 20.912 236.922 20.924 236.082 20.948C235.242 20.972 234.39 21.008 233.526 21.056C232.686 21.08 231.93 21.116 231.258 21.164V16.916C231.81 16.868 232.434 16.82 233.13 16.772C233.826 16.724 234.534 16.7 235.254 16.7C235.998 16.676 236.694 16.664 237.342 16.664C239.358 16.664 241.026 16.928 242.346 17.456C243.69 17.984 244.698 18.812 245.37 19.94C246.066 21.068 246.414 22.544 246.414 24.368V36.5H242.454ZM236.154 37.004C234.738 37.004 233.49 36.752 232.41 36.248C231.354 35.744 230.526 35.024 229.926 34.088C229.35 33.152 229.062 32.024 229.062 30.704C229.062 29.264 229.41 28.088 230.106 27.176C230.826 26.264 231.822 25.58 233.094 25.124C234.39 24.668 235.902 24.44 237.63 24.44H242.166V27.428H237.558C236.406 27.428 235.518 27.716 234.894 28.292C234.294 28.844 233.994 29.564 233.994 30.452C233.994 31.34 234.294 32.06 234.894 32.612C235.518 33.164 236.406 33.44 237.558 33.44C238.254 33.44 238.89 33.32 239.466 33.08C240.066 32.816 240.558 32.384 240.942 31.784C241.35 31.16 241.578 30.32 241.626 29.264L242.85 30.668C242.73 32.036 242.394 33.188 241.842 34.124C241.314 35.06 240.57 35.78 239.61 36.284C238.674 36.764 237.522 37.004 236.154 37.004Z" fill="black"/>
<defs>
<clipPath id="clip0_31405_2015">
<rect width="48" height="48" fill="white"/>
</clipPath>
</defs>
</svg>
