<svg width="238" height="44" viewBox="0 0 238 44" fill="none" xmlns="http://www.w3.org/2000/svg">
<g clip-path="url(#clip0_31044_1067)">
<path d="M29.9384 13.5555C32.3349 13.861 34.8111 12.8258 36.2731 10.6569C38.3607 7.56009 37.5902 3.32466 34.552 1.19677C31.5141 -0.931117 27.3589 -0.145676 25.2714 2.95111C23.8093 5.12013 23.7492 7.84777 24.8884 10.0186C25.211 10.6333 25.2518 11.3897 24.8645 11.9643C24.4315 12.6066 23.6091 12.8247 22.8845 12.5759C17.925 10.8734 12.264 12.6368 9.15337 17.2513C5.39581 22.8255 6.7828 30.4492 12.2513 34.2796C16.5279 37.2748 22.0343 37.0631 26.0286 34.1623C26.7475 33.6402 27.7156 33.5543 28.4432 34.064C29.0848 34.5134 29.3669 35.3178 29.3255 36.1104C29.194 38.627 30.3128 41.1518 32.4996 42.6836C35.8416 45.0241 40.4121 44.1604 42.7085 40.7538C45.0049 37.3475 44.1573 32.6885 40.8153 30.3476C38.1537 28.4833 34.7124 28.6521 32.2615 30.5192C31.7705 30.8933 31.0953 30.9686 30.59 30.6149C30.0561 30.2407 29.8909 29.5195 30.1414 28.9105C31.871 24.7052 31.14 19.8578 28.3148 16.3795C27.8271 15.7791 27.732 14.9183 28.165 14.2759C28.5524 13.7013 29.2597 13.469 29.9384 13.5555Z" fill="white"/>
<path d="M1.90842 39.226C3.91103 40.6021 6.65 40.0944 8.02608 38.0917C9.40213 36.089 8.8942 33.35 6.89158 31.9739C4.88895 30.5979 2.14999 31.1058 0.773927 33.1085C-0.602134 35.111 -0.0942068 37.85 1.90842 39.226Z" fill="white"/>
</g>
<path d="M59.24 34.5V8.22H66.224L72.812 23.916H73.46L80.012 8.22H87.104V34.5H82.028V12.072L82.676 12.144L75.584 29.136H70.364L63.236 12.144L63.92 12.072V34.5H59.24ZM100.94 35.184C99.2597 35.184 97.7837 34.896 96.5117 34.32C95.2637 33.744 94.2197 32.976 93.3797 32.016C92.5637 31.032 91.9397 29.94 91.5077 28.74C91.0997 27.54 90.8957 26.316 90.8957 25.068V24.384C90.8957 23.088 91.0997 21.84 91.5077 20.64C91.9397 19.416 92.5637 18.336 93.3797 17.4C94.2197 16.44 95.2517 15.684 96.4757 15.132C97.6997 14.556 99.1157 14.268 100.724 14.268C102.836 14.268 104.6 14.736 106.016 15.672C107.456 16.584 108.536 17.796 109.256 19.308C109.976 20.796 110.336 22.404 110.336 24.132V25.932H93.0197V22.872H107.204L105.656 24.384C105.656 23.136 105.476 22.068 105.116 21.18C104.756 20.292 104.204 19.608 103.46 19.128C102.74 18.648 101.828 18.408 100.724 18.408C99.6197 18.408 98.6837 18.66 97.9157 19.164C97.1477 19.668 96.5597 20.4 96.1517 21.36C95.7677 22.296 95.5757 23.424 95.5757 24.744C95.5757 25.968 95.7677 27.06 96.1517 28.02C96.5357 28.956 97.1237 29.7 97.9157 30.252C98.7077 30.78 99.7157 31.044 100.94 31.044C102.164 31.044 103.16 30.804 103.928 30.324C104.696 29.82 105.188 29.208 105.404 28.488H110.012C109.724 29.832 109.172 31.008 108.356 32.016C107.54 33.024 106.496 33.804 105.224 34.356C103.976 34.908 102.548 35.184 100.94 35.184ZM121.616 35.148C120.248 35.148 118.988 34.896 117.836 34.392C116.684 33.888 115.688 33.18 114.848 32.268C114.008 31.356 113.36 30.3 112.904 29.1C112.448 27.876 112.22 26.556 112.22 25.14V24.384C112.22 22.992 112.436 21.684 112.868 20.46C113.324 19.236 113.948 18.168 114.74 17.256C115.556 16.344 116.528 15.636 117.656 15.132C118.808 14.604 120.08 14.34 121.472 14.34C123.008 14.34 124.352 14.676 125.504 15.348C126.68 15.996 127.616 16.98 128.312 18.3C129.008 19.62 129.392 21.276 129.464 23.268L127.988 21.54V8.22H132.992V34.5H129.032V26.184H129.896C129.824 28.176 129.416 29.844 128.672 31.188C127.928 32.508 126.944 33.504 125.72 34.176C124.52 34.824 123.152 35.148 121.616 35.148ZM122.732 30.936C123.716 30.936 124.616 30.72 125.432 30.288C126.248 29.832 126.896 29.184 127.376 28.344C127.88 27.48 128.132 26.472 128.132 25.32V23.88C128.132 22.728 127.88 21.768 127.376 21C126.872 20.208 126.212 19.608 125.396 19.2C124.58 18.768 123.692 18.552 122.732 18.552C121.652 18.552 120.692 18.816 119.852 19.344C119.036 19.848 118.388 20.568 117.908 21.504C117.452 22.44 117.224 23.532 117.224 24.78C117.224 26.028 117.464 27.12 117.944 28.056C118.424 28.968 119.072 29.676 119.888 30.18C120.728 30.684 121.676 30.936 122.732 30.936ZM138.624 34.5V14.952H143.628V34.5H138.624ZM135.888 18.696V14.952H143.628V18.696H135.888ZM140.46 12.612C139.476 12.612 138.744 12.36 138.264 11.856C137.808 11.328 137.58 10.68 137.58 9.912C137.58 9.096 137.808 8.436 138.264 7.932C138.744 7.428 139.476 7.176 140.46 7.176C141.444 7.176 142.164 7.428 142.62 7.932C143.076 8.436 143.304 9.096 143.304 9.912C143.304 10.68 143.076 11.328 142.62 11.856C142.164 12.36 141.444 12.612 140.46 12.612ZM148.791 34.5V8.22H157.179L168.231 30.252H169.419L168.699 30.9V8.22H173.523V34.5H165.099L154.047 12.468H152.823L153.543 11.82V34.5H148.791ZM187.362 35.184C185.682 35.184 184.206 34.896 182.934 34.32C181.686 33.744 180.642 32.976 179.802 32.016C178.986 31.032 178.362 29.94 177.93 28.74C177.522 27.54 177.318 26.316 177.318 25.068V24.384C177.318 23.088 177.522 21.84 177.93 20.64C178.362 19.416 178.986 18.336 179.802 17.4C180.642 16.44 181.674 15.684 182.898 15.132C184.122 14.556 185.538 14.268 187.146 14.268C189.258 14.268 191.022 14.736 192.438 15.672C193.878 16.584 194.958 17.796 195.678 19.308C196.398 20.796 196.758 22.404 196.758 24.132V25.932H179.442V22.872H193.626L192.078 24.384C192.078 23.136 191.898 22.068 191.538 21.18C191.178 20.292 190.626 19.608 189.882 19.128C189.162 18.648 188.25 18.408 187.146 18.408C186.042 18.408 185.106 18.66 184.338 19.164C183.57 19.668 182.982 20.4 182.574 21.36C182.19 22.296 181.998 23.424 181.998 24.744C181.998 25.968 182.19 27.06 182.574 28.02C182.958 28.956 183.546 29.7 184.338 30.252C185.13 30.78 186.138 31.044 187.362 31.044C188.586 31.044 189.582 30.804 190.35 30.324C191.118 29.82 191.61 29.208 191.826 28.488H196.434C196.146 29.832 195.594 31.008 194.778 32.016C193.962 33.024 192.918 33.804 191.646 34.356C190.398 34.908 188.97 35.184 187.362 35.184ZM197.6 34.5L203.972 24.06L203.864 24.888L197.852 14.952H203.288L207.212 21.828H207.752L211.46 14.952H216.572L210.884 24.852L210.992 24.132L217.724 34.5H212.288L207.644 27.12H207.104L202.712 34.5H197.6ZM231.454 34.5V28.704H230.626V22.26C230.626 21.132 230.35 20.292 229.798 19.74C229.246 19.188 228.394 18.912 227.242 18.912C226.642 18.912 225.922 18.924 225.082 18.948C224.242 18.972 223.39 19.008 222.526 19.056C221.686 19.08 220.93 19.116 220.258 19.164V14.916C220.81 14.868 221.434 14.82 222.13 14.772C222.826 14.724 223.534 14.7 224.254 14.7C224.998 14.676 225.694 14.664 226.342 14.664C228.358 14.664 230.026 14.928 231.346 15.456C232.69 15.984 233.698 16.812 234.37 17.94C235.066 19.068 235.414 20.544 235.414 22.368V34.5H231.454ZM225.154 35.004C223.738 35.004 222.49 34.752 221.41 34.248C220.354 33.744 219.526 33.024 218.926 32.088C218.35 31.152 218.062 30.024 218.062 28.704C218.062 27.264 218.41 26.088 219.106 25.176C219.826 24.264 220.822 23.58 222.094 23.124C223.39 22.668 224.902 22.44 226.63 22.44H231.166V25.428H226.558C225.406 25.428 224.518 25.716 223.894 26.292C223.294 26.844 222.994 27.564 222.994 28.452C222.994 29.34 223.294 30.06 223.894 30.612C224.518 31.164 225.406 31.44 226.558 31.44C227.254 31.44 227.89 31.32 228.466 31.08C229.066 30.816 229.558 30.384 229.942 29.784C230.35 29.16 230.578 28.32 230.626 27.264L231.85 28.668C231.73 30.036 231.394 31.188 230.842 32.124C230.314 33.06 229.57 33.78 228.61 34.284C227.674 34.764 226.522 35.004 225.154 35.004Z" fill="white"/>
<defs>
<clipPath id="clip0_31044_1067">
<rect width="44" height="44" fill="white"/>
</clipPath>
</defs>
</svg>
