<svg width="195" height="36" viewBox="0 0 195 36" fill="none" xmlns="http://www.w3.org/2000/svg">
<g clip-path="url(#clip0_31453_434)">
<path d="M24.4948 11.0908C26.4556 11.3408 28.4815 10.4938 29.6777 8.71925C31.3857 6.18553 30.7553 2.72018 28.2696 0.979176C25.784 -0.761823 22.3843 -0.11919 20.6763 2.41454C19.48 4.18919 19.4309 6.42091 20.363 8.19701C20.6269 8.69995 20.6603 9.31884 20.3434 9.78894C19.9891 10.3145 19.3163 10.4929 18.7234 10.2894C14.6656 8.89643 10.0339 10.3392 7.48886 14.1147C4.41449 18.6754 5.54929 24.913 10.0235 28.0469C13.5225 30.4976 18.0278 30.3243 21.2958 27.951C21.8841 27.5238 22.6762 27.4535 23.2714 27.8705C23.7964 28.2383 24.0272 28.8964 23.9934 29.5449C23.8857 31.6039 24.8011 33.6697 26.5903 34.9229C29.3247 36.8379 33.0642 36.1312 34.9431 33.344C36.8219 30.557 36.1284 26.7451 33.3941 24.8299C31.2164 23.3046 28.4008 23.4426 26.3955 24.9702C25.9937 25.2764 25.4413 25.338 25.0279 25.0485C24.5911 24.7424 24.4559 24.1523 24.6609 23.6541C26.076 20.2134 25.4779 16.2473 23.1664 13.4014C22.7674 12.9101 22.6895 12.2059 23.0439 11.6803C23.3608 11.2102 23.9395 11.0201 24.4948 11.0908Z" fill="#3368C6"/>
<path d="M1.56143 34.5667C3.19993 35.6926 5.44091 35.2772 6.56679 33.6386C7.69265 32.0001 7.27708 29.7591 5.63856 28.6332C4.00005 27.5073 1.75908 27.9229 0.633213 29.5615C-0.492655 31.1999 -0.0770783 33.4409 1.56143 34.5667Z" fill="#3368C6"/>
</g>
<path d="M50.52 28V7.56H55.952L61.076 19.768H61.58L66.676 7.56H72.192V28H68.244V10.556L68.748 10.612L63.232 23.828H59.172L53.628 10.612L54.16 10.556V28H50.52ZM83.7308 28.532C82.4242 28.532 81.2762 28.308 80.2868 27.86C79.3162 27.412 78.5042 26.8147 77.8508 26.068C77.2162 25.3027 76.7308 24.4533 76.3948 23.52C76.0775 22.5867 75.9188 21.6347 75.9188 20.664V20.132C75.9188 19.124 76.0775 18.1533 76.3948 17.22C76.7308 16.268 77.2162 15.428 77.8508 14.7C78.5042 13.9533 79.3068 13.3653 80.2588 12.936C81.2108 12.488 82.3122 12.264 83.5628 12.264C85.2055 12.264 86.5775 12.628 87.6788 13.356C88.7988 14.0653 89.6388 15.008 90.1988 16.184C90.7588 17.3413 91.0388 18.592 91.0388 19.936V21.336H77.5708V18.956H88.6028L87.3988 20.132C87.3988 19.1613 87.2588 18.3307 86.9788 17.64C86.6988 16.9493 86.2695 16.4173 85.6908 16.044C85.1308 15.6707 84.4215 15.484 83.5628 15.484C82.7042 15.484 81.9762 15.68 81.3788 16.072C80.7815 16.464 80.3242 17.0333 80.0068 17.78C79.7082 18.508 79.5588 19.3853 79.5588 20.412C79.5588 21.364 79.7082 22.2133 80.0068 22.96C80.3055 23.688 80.7628 24.2667 81.3788 24.696C81.9948 25.1067 82.7788 25.312 83.7308 25.312C84.6828 25.312 85.4575 25.1253 86.0548 24.752C86.6522 24.36 87.0348 23.884 87.2028 23.324H90.7868C90.5628 24.3693 90.1335 25.284 89.4988 26.068C88.8642 26.852 88.0522 27.4587 87.0628 27.888C86.0922 28.3173 84.9815 28.532 83.7308 28.532ZM100.59 28.504C99.5261 28.504 98.5461 28.308 97.6501 27.916C96.7541 27.524 95.9795 26.9733 95.3261 26.264C94.6728 25.5547 94.1688 24.7333 93.8141 23.8C93.4595 22.848 93.2821 21.8213 93.2821 20.72V20.132C93.2821 19.0493 93.4501 18.032 93.7861 17.08C94.1408 16.128 94.6261 15.2973 95.2421 14.588C95.8768 13.8787 96.6328 13.328 97.5101 12.936C98.4061 12.5253 99.3955 12.32 100.478 12.32C101.673 12.32 102.718 12.5813 103.614 13.104C104.529 13.608 105.257 14.3733 105.798 15.4C106.339 16.4267 106.638 17.7147 106.694 19.264L105.546 17.92V7.56H109.438V28H106.358V21.532H107.03C106.974 23.0813 106.657 24.3787 106.078 25.424C105.499 26.4507 104.734 27.2253 103.782 27.748C102.849 28.252 101.785 28.504 100.59 28.504ZM101.458 25.228C102.223 25.228 102.923 25.06 103.558 24.724C104.193 24.3693 104.697 23.8653 105.07 23.212C105.462 22.54 105.658 21.756 105.658 20.86V19.74C105.658 18.844 105.462 18.0973 105.07 17.5C104.678 16.884 104.165 16.4173 103.53 16.1C102.895 15.764 102.205 15.596 101.458 15.596C100.618 15.596 99.8715 15.8013 99.2181 16.212C98.5835 16.604 98.0795 17.164 97.7061 17.892C97.3515 18.62 97.1741 19.4693 97.1741 20.44C97.1741 21.4107 97.3608 22.26 97.7341 22.988C98.1075 23.6973 98.6115 24.248 99.2461 24.64C99.8995 25.032 100.637 25.228 101.458 25.228ZM114.596 28V12.796H118.488V28H114.596ZM112.468 15.708V12.796H118.488V15.708H112.468ZM116.024 10.976C115.259 10.976 114.69 10.78 114.316 10.388C113.962 9.97733 113.784 9.47333 113.784 8.876C113.784 8.24133 113.962 7.728 114.316 7.336C114.69 6.944 115.259 6.748 116.024 6.748C116.79 6.748 117.35 6.944 117.704 7.336C118.059 7.728 118.236 8.24133 118.236 8.876C118.236 9.47333 118.059 9.97733 117.704 10.388C117.35 10.78 116.79 10.976 116.024 10.976ZM123.282 28V7.56H129.806L138.402 24.696H139.326L138.766 25.2V7.56H142.518V28H135.966L127.37 10.864H126.418L126.978 10.36V28H123.282ZM154.059 28.532C152.752 28.532 151.604 28.308 150.615 27.86C149.644 27.412 148.832 26.8147 148.179 26.068C147.544 25.3027 147.059 24.4533 146.723 23.52C146.406 22.5867 146.247 21.6347 146.247 20.664V20.132C146.247 19.124 146.406 18.1533 146.723 17.22C147.059 16.268 147.544 15.428 148.179 14.7C148.832 13.9533 149.635 13.3653 150.587 12.936C151.539 12.488 152.64 12.264 153.891 12.264C155.534 12.264 156.906 12.628 158.007 13.356C159.127 14.0653 159.967 15.008 160.527 16.184C161.087 17.3413 161.367 18.592 161.367 19.936V21.336H147.899V18.956H158.931L157.727 20.132C157.727 19.1613 157.587 18.3307 157.307 17.64C157.027 16.9493 156.598 16.4173 156.019 16.044C155.459 15.6707 154.75 15.484 153.891 15.484C153.032 15.484 152.304 15.68 151.707 16.072C151.11 16.464 150.652 17.0333 150.335 17.78C150.036 18.508 149.887 19.3853 149.887 20.412C149.887 21.364 150.036 22.2133 150.335 22.96C150.634 23.688 151.091 24.2667 151.707 24.696C152.323 25.1067 153.107 25.312 154.059 25.312C155.011 25.312 155.786 25.1253 156.383 24.752C156.98 24.36 157.363 23.884 157.531 23.324H161.115C160.891 24.3693 160.462 25.284 159.827 26.068C159.192 26.852 158.38 27.4587 157.391 27.888C156.42 28.3173 155.31 28.532 154.059 28.532ZM162.8 28L167.756 19.88L167.672 20.524L162.996 12.796H167.224L170.276 18.144H170.696L173.58 12.796H177.556L173.132 20.496L173.216 19.936L178.452 28H174.224L170.612 22.26H170.192L166.776 28H162.8ZM189.908 28V23.492H189.264V18.48C189.264 17.6027 189.05 16.9493 188.62 16.52C188.191 16.0907 187.528 15.876 186.632 15.876C186.166 15.876 185.606 15.8853 184.952 15.904C184.299 15.9227 183.636 15.9507 182.964 15.988C182.311 16.0067 181.723 16.0347 181.2 16.072V12.768C181.63 12.7307 182.115 12.6933 182.656 12.656C183.198 12.6187 183.748 12.6 184.308 12.6C184.887 12.5813 185.428 12.572 185.932 12.572C187.5 12.572 188.798 12.7773 189.824 13.188C190.87 13.5987 191.654 14.2427 192.176 15.12C192.718 15.9973 192.988 17.1453 192.988 18.564V28H189.908ZM185.008 28.392C183.907 28.392 182.936 28.196 182.096 27.804C181.275 27.412 180.631 26.852 180.164 26.124C179.716 25.396 179.492 24.5187 179.492 23.492C179.492 22.372 179.763 21.4573 180.304 20.748C180.864 20.0387 181.639 19.5067 182.628 19.152C183.636 18.7973 184.812 18.62 186.156 18.62H189.684V20.944H186.1C185.204 20.944 184.514 21.168 184.028 21.616C183.562 22.0453 183.328 22.6053 183.328 23.296C183.328 23.9867 183.562 24.5467 184.028 24.976C184.514 25.4053 185.204 25.62 186.1 25.62C186.642 25.62 187.136 25.5267 187.584 25.34C188.051 25.1347 188.434 24.7987 188.732 24.332C189.05 23.8467 189.227 23.1933 189.264 22.372L190.216 23.464C190.123 24.528 189.862 25.424 189.432 26.152C189.022 26.88 188.443 27.44 187.696 27.832C186.968 28.2053 186.072 28.392 185.008 28.392Z" fill="white"/>
<defs>
<clipPath id="clip0_31453_434">
<rect width="36" height="36" fill="white"/>
</clipPath>
</defs>
</svg>
