<svg width="213" height="40" viewBox="0 0 213 40" fill="none" xmlns="http://www.w3.org/2000/svg">
<g clip-path="url(#clip0_30813_16)">
<path d="M27.2166 12.3231C29.3952 12.6009 31.6463 11.6598 32.9754 9.68806C34.8732 6.87281 34.1728 3.02242 31.4108 1.08797C28.6491 -0.84647 24.8716 -0.132433 22.9738 2.68282C21.6446 4.65466 21.5901 7.13434 22.6257 9.10779C22.9189 9.66661 22.956 10.3543 22.604 10.8766C22.2103 11.4606 21.4627 11.6588 20.8039 11.4327C16.2953 9.88492 11.1489 11.488 8.32112 15.683C4.90515 20.7504 6.16604 27.6811 11.1374 31.1632C15.0252 33.8862 20.031 33.6937 23.6622 31.0567C24.3158 30.582 25.1959 30.5039 25.8573 30.9673C26.4406 31.3759 26.6971 32.1071 26.6594 32.8277C26.5399 35.1155 27.5569 37.4108 29.545 38.8032C32.5831 40.931 36.7382 40.1458 38.8258 37.0489C40.9134 33.9522 40.1428 29.7168 37.1047 27.5887C34.6851 25.8939 31.5566 26.0473 29.3285 27.7447C28.8821 28.0849 28.2683 28.1533 27.809 27.8317C27.3236 27.4916 27.1734 26.8359 27.4011 26.2823C28.9735 22.4593 28.309 18.0526 25.7406 14.8904C25.2972 14.3446 25.2108 13.5621 25.6045 12.9781C25.9566 12.4558 26.5996 12.2445 27.2166 12.3231Z" fill="#09243C"/>
<path d="M1.73492 36.8963C3.55548 38.1473 6.04546 37.6858 7.29644 35.8651C8.54739 34.0445 8.08564 31.5545 6.26507 30.3035C4.4445 29.0526 1.95454 29.5144 0.70357 31.335C-0.547395 33.1554 -0.0856425 35.6454 1.73492 36.8963Z" fill="#09243C"/>
</g>
<path d="M54.88 31V7.64H61.088L66.944 21.592H67.52L73.344 7.64H79.648V31H75.136V11.064L75.712 11.128L69.408 26.232H64.768L58.432 11.128L59.04 11.064V31H54.88ZM91.8353 31.608C90.3419 31.608 89.0299 31.352 87.8993 30.84C86.7899 30.328 85.8619 29.6453 85.1153 28.792C84.3899 27.9173 83.8353 26.9467 83.4513 25.88C83.0886 24.8133 82.9073 23.7253 82.9073 22.616V22.008C82.9073 20.856 83.0886 19.7467 83.4513 18.68C83.8353 17.592 84.3899 16.632 85.1153 15.8C85.8619 14.9467 86.7793 14.2747 87.8673 13.784C88.9553 13.272 90.2139 13.016 91.6433 13.016C93.5206 13.016 95.0886 13.432 96.3473 14.264C97.6273 15.0747 98.5873 16.152 99.2273 17.496C99.8673 18.8187 100.187 20.248 100.187 21.784V23.384H84.7953V20.664H97.4033L96.0273 22.008C96.0273 20.8987 95.8673 19.9493 95.5473 19.16C95.2273 18.3707 94.7366 17.7627 94.0753 17.336C93.4353 16.9093 92.6246 16.696 91.6433 16.696C90.6619 16.696 89.8299 16.92 89.1473 17.368C88.4646 17.816 87.9419 18.4667 87.5793 19.32C87.2379 20.152 87.0673 21.1547 87.0673 22.328C87.0673 23.416 87.2379 24.3867 87.5793 25.24C87.9206 26.072 88.4433 26.7333 89.1473 27.224C89.8513 27.6933 90.7473 27.928 91.8353 27.928C92.9233 27.928 93.8086 27.7147 94.4913 27.288C95.1739 26.84 95.6113 26.296 95.8033 25.656H99.8993C99.6433 26.8507 99.1526 27.896 98.4272 28.792C97.7019 29.688 96.7739 30.3813 95.6433 30.872C94.5339 31.3627 93.2646 31.608 91.8353 31.608ZM110.103 31.576C108.887 31.576 107.767 31.352 106.743 30.904C105.719 30.456 104.834 29.8267 104.087 29.016C103.34 28.2053 102.764 27.2667 102.359 26.2C101.954 25.112 101.751 23.9387 101.751 22.68V22.008C101.751 20.7707 101.943 19.608 102.327 18.52C102.732 17.432 103.287 16.4827 103.991 15.672C104.716 14.8613 105.58 14.232 106.583 13.784C107.607 13.3147 108.738 13.08 109.975 13.08C111.34 13.08 112.535 13.3787 113.559 13.976C114.604 14.552 115.436 15.4267 116.055 16.6C116.674 17.7733 117.015 19.2453 117.079 21.016L115.767 19.48V7.64H120.215V31H116.695V23.608H117.463C117.399 25.3787 117.036 26.8613 116.375 28.056C115.714 29.2293 114.839 30.1147 113.751 30.712C112.684 31.288 111.468 31.576 110.103 31.576ZM111.095 27.832C111.97 27.832 112.77 27.64 113.495 27.256C114.22 26.8507 114.796 26.2747 115.223 25.528C115.671 24.76 115.895 23.864 115.895 22.84V21.56C115.895 20.536 115.671 19.6827 115.223 19C114.775 18.296 114.188 17.7627 113.463 17.4C112.738 17.016 111.948 16.824 111.095 16.824C110.135 16.824 109.282 17.0587 108.535 17.528C107.81 17.976 107.234 18.616 106.807 19.448C106.402 20.28 106.199 21.2507 106.199 22.36C106.199 23.4693 106.412 24.44 106.839 25.272C107.266 26.0827 107.842 26.712 108.567 27.16C109.314 27.608 110.156 27.832 111.095 27.832ZM125.11 31V13.624H129.558V31H125.11ZM122.678 16.952V13.624H129.558V16.952H122.678ZM126.742 11.544C125.867 11.544 125.217 11.32 124.79 10.872C124.385 10.4027 124.182 9.82667 124.182 9.144C124.182 8.41867 124.385 7.832 124.79 7.384C125.217 6.936 125.867 6.712 126.742 6.712C127.617 6.712 128.257 6.936 128.662 7.384C129.067 7.832 129.27 8.41867 129.27 9.144C129.27 9.82667 129.067 10.4027 128.662 10.872C128.257 11.32 127.617 11.544 126.742 11.544ZM134.036 31V7.64H141.492L151.316 27.224H152.372L151.732 27.8V7.64H156.02V31H148.532L138.708 11.416H137.62L138.26 10.84V31H134.036ZM168.21 31.608C166.717 31.608 165.405 31.352 164.274 30.84C163.165 30.328 162.237 29.6453 161.49 28.792C160.765 27.9173 160.21 26.9467 159.826 25.88C159.464 24.8133 159.282 23.7253 159.282 22.616V22.008C159.282 20.856 159.464 19.7467 159.826 18.68C160.21 17.592 160.765 16.632 161.49 15.8C162.237 14.9467 163.154 14.2747 164.242 13.784C165.33 13.272 166.589 13.016 168.018 13.016C169.896 13.016 171.464 13.432 172.722 14.264C174.002 15.0747 174.962 16.152 175.602 17.496C176.242 18.8187 176.562 20.248 176.562 21.784V23.384H161.17V20.664H173.778L172.402 22.008C172.402 20.8987 172.242 19.9493 171.922 19.16C171.602 18.3707 171.112 17.7627 170.45 17.336C169.81 16.9093 169 16.696 168.018 16.696C167.037 16.696 166.205 16.92 165.522 17.368C164.84 17.816 164.317 18.4667 163.954 19.32C163.613 20.152 163.442 21.1547 163.442 22.328C163.442 23.416 163.613 24.3867 163.954 25.24C164.296 26.072 164.818 26.7333 165.522 27.224C166.226 27.6933 167.122 27.928 168.21 27.928C169.298 27.928 170.184 27.7147 170.866 27.288C171.549 26.84 171.986 26.296 172.178 25.656H176.274C176.018 26.8507 175.528 27.896 174.802 28.792C174.077 29.688 173.149 30.3813 172.018 30.872C170.909 31.3627 169.64 31.608 168.21 31.608ZM177.2 31L182.864 21.72L182.768 22.456L177.424 13.624H182.256L185.744 19.736H186.224L189.52 13.624H194.064L189.008 22.424L189.104 21.784L195.088 31H190.256L186.128 24.44H185.648L181.744 31H177.2ZM207.181 31V25.848H206.445V20.12C206.445 19.1173 206.2 18.3707 205.709 17.88C205.218 17.3893 204.461 17.144 203.437 17.144C202.904 17.144 202.264 17.1547 201.517 17.176C200.77 17.1973 200.013 17.2293 199.245 17.272C198.498 17.2933 197.826 17.3253 197.229 17.368V13.592C197.72 13.5493 198.274 13.5067 198.893 13.464C199.512 13.4213 200.141 13.4 200.781 13.4C201.442 13.3787 202.061 13.368 202.637 13.368C204.429 13.368 205.912 13.6027 207.085 14.072C208.28 14.5413 209.176 15.2773 209.773 16.28C210.392 17.2827 210.701 18.5947 210.701 20.216V31H207.181ZM201.581 31.448C200.322 31.448 199.213 31.224 198.253 30.776C197.314 30.328 196.578 29.688 196.045 28.856C195.533 28.024 195.277 27.0213 195.277 25.848C195.277 24.568 195.586 23.5227 196.205 22.712C196.845 21.9013 197.73 21.2933 198.861 20.888C200.013 20.4827 201.357 20.28 202.893 20.28H206.925V22.936H202.829C201.805 22.936 201.016 23.192 200.461 23.704C199.928 24.1947 199.661 24.8347 199.661 25.624C199.661 26.4133 199.928 27.0533 200.461 27.544C201.016 28.0347 201.805 28.28 202.829 28.28C203.448 28.28 204.013 28.1733 204.525 27.96C205.058 27.7253 205.496 27.3413 205.837 26.808C206.2 26.2533 206.402 25.5067 206.445 24.568L207.533 25.816C207.426 27.032 207.128 28.056 206.637 28.888C206.168 29.72 205.506 30.36 204.653 30.808C203.821 31.2347 202.797 31.448 201.581 31.448Z" fill="black"/>
<defs>
<clipPath id="clip0_30813_16">
<rect width="40" height="40" fill="white"/>
</clipPath>
</defs>
</svg>
